<svg width="32" height="32" viewBox="0 0 32 32" fill="none" xmlns="http://www.w3.org/2000/svg">
<path d="M13.3337 22.5997H8.28033C3.78699 22.5997 2.66699 21.4797 2.66699 16.9864V8.98638C2.66699 4.49305 3.78699 3.37305 8.28033 3.37305H22.3203C26.8137 3.37305 27.9337 4.49305 27.9337 8.98638" stroke="#FF931E" stroke-width="1.5" stroke-linecap="round" stroke-linejoin="round"/>
<path d="M13.333 28.6263V22.5996" stroke="#FF931E" stroke-width="1.5" stroke-linecap="round" stroke-linejoin="round"/>
<path d="M2.66699 17.2666H13.3337" stroke="#FF931E" stroke-width="1.5" stroke-linecap="round" stroke-linejoin="round"/>
<path d="M8.98633 28.627H13.333" stroke="#FF931E" stroke-width="1.5" stroke-linecap="round" stroke-linejoin="round"/>
<path d="M29.3337 17.0668V24.6801C29.3337 27.8401 28.547 28.6268 25.387 28.6268H20.6537C17.4937 28.6268 16.707 27.8401 16.707 24.6801V17.0668C16.707 13.9068 17.4937 13.1201 20.6537 13.1201H25.387C28.547 13.1201 29.3337 13.9068 29.3337 17.0668Z" stroke="#FF931E" stroke-width="1.5" stroke-linecap="round" stroke-linejoin="round"/>
<path d="M22.9924 24.3337H23.0043" stroke="#FF931E" stroke-width="2" stroke-linecap="round" stroke-linejoin="round"/>
</svg>
