<svg width="20" height="21" viewBox="0 0 20 21" fill="none" xmlns="http://www.w3.org/2000/svg">
<path d="M6.66675 1.6665V4.1665" stroke="#292D32" stroke-width="1.5" stroke-miterlimit="10" stroke-linecap="round" stroke-linejoin="round"/>
<path d="M13.3333 1.6665V4.1665" stroke="#292D32" stroke-width="1.5" stroke-miterlimit="10" stroke-linecap="round" stroke-linejoin="round"/>
<path d="M2.91675 7.5752H17.5001" stroke="#292D32" stroke-width="1.5" stroke-miterlimit="10" stroke-linecap="round" stroke-linejoin="round"/>
<path d="M6.66667 18.3332C3.75 18.3332 2.5 16.6665 2.5 14.1665V7.08317C2.5 4.58317 3.75 2.9165 6.66667 2.9165H13.3333C16.25 2.9165 17.5 4.58317 17.5 7.08317V7.49984" stroke="#292D32" stroke-width="1.5" stroke-miterlimit="10" stroke-linecap="round" stroke-linejoin="round"/>
<path d="M10.9392 12.4852C11.2407 12.166 11.6016 11.8627 12.0455 11.6065C14.0514 10.4484 16.6143 11.1351 17.7724 13.141C18.9305 15.1469 18.2438 17.7098 16.2379 18.8679C14.232 20.026 11.6691 19.3392 10.511 17.3333" stroke="#292D32" stroke-width="1.5" stroke-linecap="round" stroke-linejoin="round"/>
<path d="M10.4782 12.8849L10.8858 10.7959" stroke="#292D32" stroke-width="1.5" stroke-linecap="round" stroke-linejoin="round"/>
<path d="M10.4773 12.8848L12.4833 13.1001" stroke="#292D32" stroke-width="1.5" stroke-linecap="round" stroke-linejoin="round"/>
</svg>
