<svg width="32" height="32" viewBox="0 0 32 32" fill="none" xmlns="http://www.w3.org/2000/svg">
<path d="M23.6682 9.40028C23.3482 9.34695 23.0149 9.33363 22.6682 9.33363H9.33488C8.96155 9.33363 8.60155 9.3603 8.25488 9.41363C8.44155 9.0403 8.70822 8.69367 9.02822 8.37367L13.3616 4.02699C15.1882 2.21366 18.1482 2.21366 19.9749 4.02699L22.3082 6.38694C23.1615 7.22694 23.6149 8.29362 23.6682 9.40028Z" stroke="#FF931E" stroke-width="1.5" stroke-linecap="round" stroke-linejoin="round"/>
<path d="M11.9997 25.3333C11.9997 26.3333 11.7197 27.28 11.2263 28.08C10.3063 29.6267 8.61301 30.6667 6.66634 30.6667C4.71967 30.6667 3.02634 29.6267 2.10634 28.08C1.61301 27.28 1.33301 26.3333 1.33301 25.3333C1.33301 22.3867 3.71967 20 6.66634 20C9.61301 20 11.9997 22.3867 11.9997 25.3333Z" stroke="#FF931E" stroke-width="1.5" stroke-miterlimit="10" stroke-linecap="round" stroke-linejoin="round"/>
<path d="M8.65497 25.3057H4.68164" stroke="#FF931E" stroke-width="1.5" stroke-miterlimit="10" stroke-linecap="round" stroke-linejoin="round"/>
<path d="M6.66602 23.3594V27.346" stroke="#FF931E" stroke-width="1.5" stroke-miterlimit="10" stroke-linecap="round" stroke-linejoin="round"/>
<path d="M29.3337 15.9997V22.6663C29.3337 26.6663 26.667 29.333 22.667 29.333H10.1737C10.587 28.9863 10.947 28.5597 11.227 28.0797C11.7203 27.2797 12.0003 26.333 12.0003 25.333C12.0003 22.3863 9.61366 19.9997 6.66699 19.9997C5.06699 19.9997 3.64033 20.7063 2.66699 21.813V15.9997C2.66699 12.373 4.85366 9.83967 8.25366 9.413C8.60033 9.35967 8.96033 9.33301 9.33366 9.33301H22.667C23.0137 9.33301 23.347 9.34632 23.667 9.39966C27.107 9.79966 29.3337 12.3463 29.3337 15.9997Z" stroke="#FF931E" stroke-width="1.5" stroke-linecap="round" stroke-linejoin="round"/>
<path d="M29.3337 16.667H25.3337C23.867 16.667 22.667 17.867 22.667 19.3337C22.667 20.8003 23.867 22.0003 25.3337 22.0003H29.3337" stroke="#FF931E" stroke-width="1.5" stroke-linecap="round" stroke-linejoin="round"/>
</svg>
