<svg width="426" height="131" viewBox="0 0 426 131" fill="none" xmlns="http://www.w3.org/2000/svg">
<path d="M182.459 66.5153L211.755 113.544C216.408 121.011 227.156 121.11 231.941 113.741L288.893 25.7743C292.793 19.7483 288.5 11.7573 281.389 11.7573C274.278 11.7573 275.491 13.3293 273.82 15.9165L231.678 82.1698C227.713 88.425 218.636 88.425 214.671 82.1698L213.131 79.7463C209.494 74.015 213.557 66.4825 220.34 66.4825C227.123 66.4825 225.977 64.976 227.517 62.5198L227.681 62.2905C231.547 56.2318 227.222 48.2408 220.078 48.2408H192.519C183.245 48.2408 177.576 58.557 182.525 66.4825L182.459 66.5153Z" fill="#3378FF"/>
<path d="M302.755 118.948C297.479 118.948 292.891 117.769 288.926 115.378C285.06 112.987 282.045 109.581 279.849 105.16C277.752 100.641 276.703 95.3025 276.703 89.1127V51.8432C276.703 50.959 276.998 50.2057 277.621 49.5835C278.244 48.9612 278.964 48.6665 279.849 48.6665H292.072C293.022 48.6665 293.842 48.9612 294.432 49.5835C295.054 50.2057 295.349 50.959 295.349 51.8432V88.3267C295.349 98.9377 299.97 104.243 309.178 104.243C318.386 104.243 317.206 102.868 319.828 100.117C322.449 97.3002 323.76 93.3375 323.76 88.294V51.8105C323.76 50.9262 324.022 50.173 324.546 49.5507C325.169 48.9285 325.956 48.6337 326.906 48.6337H338.998C339.948 48.6337 340.767 48.9285 341.357 49.5507C341.98 50.173 342.275 50.9262 342.275 51.8105V114.428C342.275 115.313 341.98 116.066 341.357 116.688C340.734 117.31 339.948 117.605 338.998 117.605H327.692C326.808 117.605 326.054 117.31 325.464 116.688C324.841 116.066 324.546 115.313 324.546 114.428V108.992C322.253 112.169 319.336 114.658 315.732 116.426C312.225 118.096 307.867 118.948 302.689 118.948H302.755Z" fill="black"/>
<path fill-rule="evenodd" clip-rule="evenodd" d="M380.975 118.948C371.243 118.948 363.476 116.131 357.676 110.466C351.876 104.8 348.763 96.7107 348.337 86.198V79.8445C348.697 73.1307 350.172 67.334 352.826 62.4542C355.546 57.5745 359.282 53.8737 364.001 51.3192C368.818 48.6665 374.487 47.3237 380.975 47.3237C387.463 47.3237 394.181 48.8302 398.998 51.8432C403.815 54.8562 407.453 59.0155 409.91 64.321C412.466 69.5282 413.712 75.5542 413.712 82.3662V85.281C413.712 86.1652 413.417 86.9185 412.794 87.5407C412.171 88.163 411.385 88.4577 410.435 88.4577H366.884V89.5057C367.048 92.5187 367.671 95.3025 368.719 97.857C369.768 100.346 371.308 102.376 373.34 103.948C375.437 105.455 377.993 106.208 380.975 106.208C383.957 106.208 385.202 105.848 386.775 105.16C388.446 104.44 389.757 103.621 390.708 102.638C391.756 101.656 392.51 100.903 392.936 100.379C393.722 99.3307 394.345 98.7085 394.771 98.512C395.197 98.25 395.951 98.119 396.999 98.119H408.96C409.845 98.119 410.533 98.381 411.057 98.905C411.68 99.429 411.942 100.084 411.844 100.903C411.745 102.311 411.024 104.079 409.615 106.208C408.305 108.239 406.338 110.236 403.684 112.169C401.128 114.101 397.95 115.738 394.083 117.081C390.314 118.326 385.923 118.948 380.91 118.948H380.975ZM395.197 77.028H366.917V76.635C366.917 73.2617 367.441 70.347 368.49 67.8907C369.637 65.3362 371.243 63.3385 373.373 61.9302C375.47 60.522 378.026 59.8015 381.008 59.8015C383.99 59.8015 386.546 60.522 388.643 61.9302C390.74 63.3385 392.379 65.3362 393.526 67.8907C394.673 70.3797 395.23 73.2945 395.23 76.635V77.028H395.197Z" fill="black"/>
<path d="M115.872 117.638C114.987 117.638 114.234 117.343 113.644 116.721C113.021 116.099 112.726 115.345 112.726 114.461V51.8432C112.726 50.959 113.021 50.2057 113.644 49.5835C114.266 48.9612 114.987 48.6665 115.872 48.6665H127.177C128.128 48.6665 128.947 48.9612 129.537 49.5835C130.159 50.2057 130.454 50.959 130.454 51.8432V57.2797C132.748 54.4632 135.632 52.1052 139.138 50.2385C142.743 48.3062 147.167 47.3237 152.443 47.3237C157.718 47.3237 162.306 48.5027 166.271 50.8935C170.203 53.2842 173.251 56.723 175.348 61.2425C177.544 65.6637 178.625 70.9692 178.625 77.159V114.428C178.625 115.313 178.33 116.066 177.708 116.688C177.183 117.31 176.43 117.605 175.479 117.605H163.224C162.339 117.605 161.585 117.31 160.995 116.688C160.405 116.066 160.078 115.313 160.078 114.428V77.945C160.078 72.9015 158.865 69.0042 156.408 66.2532C154.048 63.4367 150.542 61.9957 145.889 61.9957C141.235 61.9957 137.86 63.404 135.239 66.2532C132.617 69.0042 131.306 72.9015 131.306 77.945V114.428C131.306 115.313 131.011 116.066 130.389 116.688C129.766 117.31 129.045 117.605 128.161 117.605H115.905L115.872 117.638Z" fill="black"/>
<path d="M86.1831 117.638C85.2983 117.638 84.5446 117.343 83.9548 116.721C83.3322 116.099 83.0372 115.346 83.0372 114.461V51.8433C83.0372 50.959 83.3322 50.2057 83.9548 49.5835C84.5774 48.9612 85.3311 48.6665 86.1831 48.6665H97.7506C98.7009 48.6665 99.4546 48.9612 99.9789 49.5835C100.602 50.2057 100.896 50.959 100.896 51.8433V114.461C100.896 115.346 100.602 116.099 99.9789 116.721C99.4546 117.343 98.7009 117.638 97.7506 117.638H86.1831Z" fill="black"/>
<path d="M85.6588 37.4988C84.774 37.4988 84.0203 37.204 83.4305 36.5818C82.8079 35.9595 82.5129 35.1735 82.5129 34.191V24.366C82.5129 23.4818 82.8079 22.7285 83.4305 22.1063C84.0531 21.484 84.8068 21.1893 85.6588 21.1893H98.3077C99.1925 21.1893 99.9462 21.484 100.536 22.1063C101.159 22.7285 101.454 23.4818 101.454 24.366V34.191C101.454 35.1735 101.159 35.9595 100.536 36.5818C99.9134 37.204 99.1925 37.4988 98.3077 37.4988H85.6588Z" fill="black"/>
<path d="M15.4016 117.638C14.5168 117.638 13.7631 117.343 13.1733 116.721C12.5507 116.099 12.2557 115.345 12.2557 114.461V28.0667C12.2557 27.0842 12.5507 26.2982 13.1733 25.676C13.7959 25.0537 14.5496 24.759 15.4016 24.759H73.0427C73.993 24.759 74.7467 25.0537 75.271 25.676C75.8936 26.2982 76.1885 27.0842 76.1885 28.0667V37.8917C76.1885 38.8742 75.8936 39.6602 75.271 40.2825C74.7467 40.9047 73.993 41.1995 73.0427 41.1995H30.9342V65.5982H70.4211C71.3714 65.5982 72.1251 65.893 72.6494 66.5152C73.272 67.0392 73.567 67.7925 73.567 68.775V78.731C73.567 79.6152 73.272 80.3685 72.6494 80.9907C72.1251 81.613 71.3714 81.9077 70.4211 81.9077H30.9342V114.428C30.9342 115.313 30.6393 116.066 30.0167 116.688C29.4924 117.31 28.7387 117.605 27.7884 117.605H15.4016V117.638Z" fill="black"/>
</svg>
