<svg width="42" height="42" viewBox="0 0 42 42" fill="none" xmlns="http://www.w3.org/2000/svg">
<g clip-path="url(#clip0_2796_37696)">
<rect x="26.9404" y="16.5581" width="1.5" height="11" rx="0.75" transform="rotate(45 26.9404 16.5581)" fill="#121212"/>
<rect x="28.0015" y="24.3364" width="1.5" height="11" rx="0.75" transform="rotate(135 28.0015 24.3364)" fill="#121212"/>
<path fill-rule="evenodd" clip-rule="evenodd" d="M10.0604 22.0607C9.47465 21.4749 9.47465 20.5251 10.0604 19.9393L17.2069 12.7929C17.3944 12.6054 17.6488 12.5 17.914 12.5H28.9998C30.9328 12.5 32.4998 14.067 32.4998 16V26C32.4998 27.933 30.9328 29.5 28.9998 29.5H17.914C17.6488 29.5 17.3944 29.3946 17.2069 29.2071L10.0604 22.0607ZM11.7069 21.7071C11.3164 21.3166 11.3164 20.6834 11.7069 20.2929L17.8533 14.1464C17.9471 14.0527 18.0743 14 18.2069 14H28.9998C30.1043 14 30.9998 14.8954 30.9998 16V26C30.9998 27.1046 30.1043 28 28.9998 28H18.2069C18.0743 28 17.9471 27.9473 17.8533 27.8536L11.7069 21.7071Z" fill="#121212"/>
</g>
<defs>
<clipPath id="clip0_2796_37696">
<rect width="42" height="42" fill="white"/>
</clipPath>
</defs>
</svg>
