<svg width="25" height="24" viewBox="0 0 25 24" fill="none" xmlns="http://www.w3.org/2000/svg">
<path fill-rule="evenodd" clip-rule="evenodd" d="M9.82176 19.85C9.10176 18.89 7.85176 18.82 7.03176 19.7C5.26176 21.59 3.80176 20.97 3.80176 18.3V7.04C3.80176 3.01 4.74176 2 8.52176 2H16.0818C19.8618 2 20.8018 3.01 20.7918 7.04V18.31C20.7918 20.97 19.3418 21.6 17.5618 19.7C16.7418 18.82 15.4918 18.89 14.7718 19.85L13.7618 21.2C12.9518 22.27 11.6418 22.27 10.8318 21.2L9.82176 19.85ZM12.8519 9.60741L13.9595 10C14.5316 10.2 15.2944 10.6222 15.3018 11.9556C15.3018 13.0889 14.4142 14.0148 13.3287 14.0148H12.8519V14.4444C12.8519 14.7481 12.6025 15 12.3018 15C12.001 15 11.7516 14.7481 11.7516 14.4444V14.0074H11.4876C10.2846 14.0074 9.30909 12.9852 9.30909 11.7259C9.30909 11.4222 9.55848 11.1704 9.85922 11.1704C10.1599 11.1704 10.4093 11.4222 10.4093 11.7259C10.4093 12.3704 10.8934 12.8963 11.4876 12.8963H11.7516V10.3926L10.6441 10C10.0646 9.79259 9.30176 9.37037 9.30176 8.04444C9.30176 6.91111 10.1893 5.98519 11.2749 5.98519H11.7516V5.55556C11.7516 5.25185 12.001 5 12.3018 5C12.6025 5 12.8519 5.25185 12.8519 5.55556V5.98519H13.1159C14.3189 5.98519 15.2944 7.00741 15.2944 8.26667C15.2944 8.57037 15.045 8.82222 14.7443 8.82222C14.4436 8.82222 14.1942 8.57037 14.1942 8.26667C14.1942 7.62222 13.7101 7.0963 13.1159 7.0963H12.8519V9.60741ZM10.4093 8.05185C10.4093 8.6963 10.6367 8.82222 11.0108 8.95556L11.759 9.22222V7.1037H11.2822C10.7981 7.1037 10.4093 7.52593 10.4093 8.05185ZM12.8519 12.9037H13.3287C13.8054 12.9037 14.1942 12.4741 14.1942 11.9481C14.1942 11.3037 13.9668 11.1778 13.5927 11.0444L12.8519 10.7852V12.9037Z" fill="#FF931E"/>
</svg>
