<svg width="32" height="32" viewBox="0 0 32 32" fill="none" xmlns="http://www.w3.org/2000/svg">
<path d="M13.9869 2.97309L7.33354 5.46641C5.8002 6.03975 4.54688 7.85307 4.54688 9.49307V19.3997C4.54688 20.9731 5.58689 23.0397 6.85356 23.9864L12.5869 28.2664C14.4669 29.6798 17.5602 29.6798 19.4402 28.2664L25.1735 23.9864C26.4402 23.0397 27.4802 20.9731 27.4802 19.3997V9.49307C27.4802 7.85307 26.2269 6.03975 24.6935 5.46641L18.0402 2.97309C16.9069 2.55975 15.0935 2.55975 13.9869 2.97309Z" stroke="#FF931E" stroke-width="1.5" stroke-linecap="round" stroke-linejoin="round"/>
<path d="M15.9999 14.5596C15.9466 14.5596 15.8799 14.5596 15.8266 14.5596C14.5732 14.5196 13.5732 13.4796 13.5732 12.2129C13.5732 10.9196 14.6266 9.86621 15.9199 9.86621C17.2133 9.86621 18.2666 10.9196 18.2666 12.2129C18.2533 13.4929 17.2533 14.5196 15.9999 14.5596Z" stroke="#FF931E" stroke-width="1.5" stroke-linecap="round" stroke-linejoin="round"/>
<path d="M13.3467 18.2925C12.0667 19.1458 12.0667 20.5458 13.3467 21.3991C14.8001 22.3725 17.1867 22.3725 18.6401 21.3991C19.9201 20.5458 19.9201 19.1458 18.6401 18.2925C17.2001 17.3192 14.8134 17.3192 13.3467 18.2925Z" stroke="#FF931E" stroke-width="1.5" stroke-linecap="round" stroke-linejoin="round"/>
</svg>
