<svg width="25" height="25" viewBox="0 0 25 25" fill="none" xmlns="http://www.w3.org/2000/svg">
<path d="M12.5001 22.7579C10.9882 22.7621 9.49532 22.42 8.1361 21.7578C7.63865 21.5159 7.16203 21.2332 6.7111 20.9128L6.5741 20.8128C5.33392 19.8974 4.31997 18.71 3.6101 17.3418C2.87584 15.9257 2.49501 14.353 2.50005 12.7578C2.50005 7.23496 6.97725 2.75781 12.5001 2.75781C18.0229 2.75781 22.5001 7.23496 22.5001 12.7578C22.5051 14.3522 22.1247 15.9242 21.3911 17.3398C20.6822 18.7072 19.6697 19.8942 18.4311 20.8098C17.9639 21.1518 17.468 21.4529 16.9491 21.7098L16.8691 21.7498C15.509 22.4155 14.0144 22.7604 12.5001 22.7579ZM12.5001 17.7578C11.0016 17.7549 9.62776 18.5918 8.9431 19.9248C11.1845 21.035 13.8157 21.035 16.0571 19.9248V19.9198C15.3716 18.5883 13.9977 17.7532 12.5001 17.7578ZM12.5001 15.7578C14.6662 15.7606 16.6635 16.9279 17.7291 18.8138L17.7441 18.8008L17.7581 18.7888L17.7411 18.8038L17.7311 18.8118C20.2601 16.6269 21.1644 13.1002 19.9987 9.96792C18.8331 6.83569 15.8432 4.75813 12.5011 4.75813C9.15901 4.75813 6.16909 6.83569 5.00345 9.96792C3.83781 13.1002 4.7421 16.6269 7.2711 18.8118C8.33736 16.9268 10.3345 15.7604 12.5001 15.7578ZM12.5001 14.7578C10.291 14.7578 8.5001 12.967 8.5001 10.7578C8.5001 8.54867 10.291 6.75781 12.5001 6.75781C14.7092 6.75781 16.5001 8.54867 16.5001 10.7578C16.5001 11.8187 16.0787 12.8361 15.3285 13.5862C14.5784 14.3364 13.561 14.7578 12.5001 14.7578ZM12.5001 8.75781C11.3955 8.75781 10.5001 9.65324 10.5001 10.7578C10.5001 11.8624 11.3955 12.7578 12.5001 12.7578C13.6047 12.7578 14.5001 11.8624 14.5001 10.7578C14.5001 9.65324 13.6047 8.75781 12.5001 8.75781Z" fill="#FF931E"/>
</svg>
