<svg width="88" height="88" viewBox="0 0 88 88" fill="none" xmlns="http://www.w3.org/2000/svg">
<g filter="url(#filter0_d_12581_40787)">
<path d="M38.7003 8.99999C41.0097 4.99999 46.7832 5 49.0926 9L76.7158 56.8447C79.0252 60.8447 76.1385 65.8447 71.5197 65.8447H16.2733C11.6545 65.8447 8.76776 60.8447 11.0772 56.8447L38.7003 8.99999Z" fill="url(#paint0_linear_12581_40787)"/>
</g>
<path d="M40.9561 54.0517C40.9561 53.5785 41.0493 53.1099 41.2304 52.6727C41.4114 52.2355 41.6769 51.8383 42.0115 51.5037C42.3461 51.1691 42.7433 50.9036 43.1805 50.7225C43.6177 50.5415 44.0863 50.4482 44.5595 50.4482C45.0327 50.4482 45.5013 50.5415 45.9385 50.7225C46.3757 50.9036 46.7729 51.1691 47.1075 51.5037C47.4421 51.8383 47.7076 52.2355 47.8886 52.6727C48.0697 53.1099 48.1629 53.5785 48.1629 54.0517C48.1629 55.0074 47.7833 55.9239 47.1075 56.5997C46.4317 57.2755 45.5152 57.6551 44.5595 57.6551C43.6038 57.6551 42.6873 57.2755 42.0115 56.5997C41.3357 55.9239 40.9561 55.0074 40.9561 54.0517ZM41.3092 32.413C41.2612 31.9584 41.3093 31.4988 41.4504 31.064C41.5916 30.6292 41.8225 30.2289 42.1283 29.8891C42.4341 29.5493 42.808 29.2776 43.2255 29.0917C43.6431 28.9057 44.0952 28.8096 44.5523 28.8096C45.0094 28.8096 45.4614 28.9057 45.879 29.0917C46.2966 29.2776 46.6705 29.5493 46.9763 29.8891C47.2821 30.2289 47.513 30.6292 47.6541 31.064C47.7953 31.4988 47.8434 31.9584 47.7954 32.413L46.5342 45.0503C46.4829 45.5402 46.252 45.9938 45.886 46.3235C45.5201 46.6532 45.0449 46.8357 44.5523 46.8357C44.0597 46.8357 43.5845 46.6532 43.2185 46.3235C42.8525 45.9938 42.6216 45.5402 42.5704 45.0503L41.3092 32.413Z" fill="white"/>
<defs>
<filter id="filter0_d_12581_40787" x="3.26465" y="3" width="81.2637" height="73.8447" filterUnits="userSpaceOnUse" color-interpolation-filters="sRGB">
<feFlood flood-opacity="0" result="BackgroundImageFix"/>
<feColorMatrix in="SourceAlpha" type="matrix" values="0 0 0 0 0 0 0 0 0 0 0 0 0 0 0 0 0 0 127 0" result="hardAlpha"/>
<feOffset dy="4"/>
<feGaussianBlur stdDeviation="3.5"/>
<feComposite in2="hardAlpha" operator="out"/>
<feColorMatrix type="matrix" values="0 0 0 0 0 0 0 0 0 0 0 0 0 0 0 0 0 0 0.1 0"/>
<feBlend mode="normal" in2="BackgroundImageFix" result="effect1_dropShadow_12581_40787"/>
<feBlend mode="normal" in="SourceGraphic" in2="effect1_dropShadow_12581_40787" result="shape"/>
</filter>
<linearGradient id="paint0_linear_12581_40787" x1="43.8965" y1="-43.8965" x2="-43.8965" y2="43.8965" gradientUnits="userSpaceOnUse">
<stop offset="1" stop-color="#FF931E"/>
</linearGradient>
</defs>
</svg>
