<svg width="16" height="16" viewBox="0 0 16 16" fill="none" xmlns="http://www.w3.org/2000/svg">
<path d="M12.0004 3.99967C11.5938 3.99967 11.2204 3.76634 11.0338 3.40634L10.5538 2.43967C10.2471 1.83301 9.4471 1.33301 8.7671 1.33301H7.24044C6.55377 1.33301 5.75377 1.83301 5.4471 2.43967L4.9671 3.40634C4.78044 3.76634 4.4071 3.99967 4.00044 3.99967C2.55377 3.99967 1.4071 5.21967 1.50044 6.65967L1.8471 12.1663C1.9271 13.5397 2.6671 14.6663 4.5071 14.6663H11.4938C13.3338 14.6663 14.0671 13.5397 14.1538 12.1663L14.5004 6.65967C14.5938 5.21967 13.4471 3.99967 12.0004 3.99967ZM7.00044 4.83301H9.00044C9.27377 4.83301 9.50044 5.05967 9.50044 5.33301C9.50044 5.60634 9.27377 5.83301 9.00044 5.83301H7.00044C6.7271 5.83301 6.50044 5.60634 6.50044 5.33301C6.50044 5.05967 6.7271 4.83301 7.00044 4.83301ZM8.00044 12.0797C6.76044 12.0797 5.7471 11.073 5.7471 9.82634C5.7471 8.57967 6.75377 7.57301 8.00044 7.57301C9.2471 7.57301 10.2538 8.57967 10.2538 9.82634C10.2538 11.073 9.24044 12.0797 8.00044 12.0797Z" fill="white"/>
</svg>
