<svg width="17" height="20" viewBox="0 0 17 20" fill="none" xmlns="http://www.w3.org/2000/svg">
<path d="M15.6665 5.58366V14.417C15.6665 17.9503 14.7832 18.8337 11.2499 18.8337H5.94987C2.41654 18.8337 1.5332 17.9503 1.5332 14.417V5.58366C1.5332 2.05033 2.41654 1.16699 5.94987 1.16699H11.2499C14.7832 1.16699 15.6665 2.05033 15.6665 5.58366Z" stroke="white" stroke-width="1.5" stroke-linecap="round" stroke-linejoin="round"/>
<path d="M10.3673 4.25879H6.83398" stroke="white" stroke-width="1.5" stroke-linecap="round" stroke-linejoin="round"/>
<path d="M8.59964 16.2725C9.35581 16.2725 9.9688 15.6595 9.9688 14.9033C9.9688 14.1472 9.35581 13.5342 8.59964 13.5342C7.84347 13.5342 7.23047 14.1472 7.23047 14.9033C7.23047 15.6595 7.84347 16.2725 8.59964 16.2725Z" stroke="white" stroke-width="1.5" stroke-linecap="round" stroke-linejoin="round"/>
</svg>
