<svg width="32" height="32" viewBox="0 0 32 32" fill="none" xmlns="http://www.w3.org/2000/svg">
<path d="M10.667 2.6665V6.6665" stroke="#FF931E" stroke-width="1.5" stroke-miterlimit="10" stroke-linecap="round" stroke-linejoin="round"/>
<path d="M21.333 2.6665V6.6665" stroke="#FF931E" stroke-width="1.5" stroke-miterlimit="10" stroke-linecap="round" stroke-linejoin="round"/>
<path d="M4.66699 12.1201H28.0003" stroke="#FF931E" stroke-width="1.5" stroke-miterlimit="10" stroke-linecap="round" stroke-linejoin="round"/>
<path d="M10.6667 29.3332C6 29.3332 4 26.6665 4 22.6665V11.3332C4 7.33317 6 4.6665 10.6667 4.6665H21.3333C26 4.6665 28 7.33317 28 11.3332V11.9998" stroke="#FF931E" stroke-width="1.5" stroke-miterlimit="10" stroke-linecap="round" stroke-linejoin="round"/>
<path d="M17.502 19.976C17.9843 19.4653 18.5618 18.98 19.272 18.5699C22.4814 16.717 26.5821 17.8157 28.435 21.0252C30.288 24.2346 29.1892 28.3352 25.9798 30.1882C22.7704 32.0411 18.6697 30.9424 16.8168 27.7329" stroke="#FF931E" stroke-width="1.5" stroke-linecap="round" stroke-linejoin="round"/>
<path d="M16.7648 20.6156L17.4168 17.2731" stroke="#FF931E" stroke-width="1.5" stroke-linecap="round" stroke-linejoin="round"/>
<path d="M16.7637 20.6152L19.9733 20.9598" stroke="#FF931E" stroke-width="1.5" stroke-linecap="round" stroke-linejoin="round"/>
</svg>
