<svg width="93" height="92" viewBox="0 0 93 92" fill="none" xmlns="http://www.w3.org/2000/svg">
<g id="vuesax/bold/danger">
<g id="danger">
<path id="Vector" d="M83.9135 61.0267L59.3802 16.8667C56.0835 10.925 51.5218 7.66667 46.5002 7.66667C41.4785 7.66667 36.9168 10.925 33.6202 16.8667L9.08682 61.0267C5.98182 66.6617 5.63683 72.0667 8.12849 76.3217C10.6202 80.5767 15.5268 82.915 21.9668 82.915H71.0335C77.4735 82.915 82.3802 80.5767 84.8718 76.3217C87.3635 72.0667 87.0185 66.6233 83.9135 61.0267ZM43.6252 34.5C43.6252 32.9283 44.9285 31.625 46.5002 31.625C48.0718 31.625 49.3752 32.9283 49.3752 34.5V53.6667C49.3752 55.2383 48.0718 56.5417 46.5002 56.5417C44.9285 56.5417 43.6252 55.2383 43.6252 53.6667V34.5ZM49.2218 67.8883C49.0302 68.0417 48.8385 68.195 48.6468 68.3483C48.4168 68.5017 48.1868 68.6167 47.9568 68.6933C47.7268 68.8083 47.4968 68.885 47.2285 68.9233C46.9985 68.9617 46.7302 69 46.5002 69C46.2702 69 46.0018 68.9617 45.7335 68.9233C45.5035 68.885 45.2735 68.8083 45.0435 68.6933C44.8135 68.6167 44.5835 68.5017 44.3535 68.3483C44.1618 68.195 43.9702 68.0417 43.7785 67.8883C43.0885 67.16 42.6668 66.1633 42.6668 65.1667C42.6668 64.17 43.0885 63.1733 43.7785 62.445C43.9702 62.2917 44.1618 62.1383 44.3535 61.985C44.5835 61.8317 44.8135 61.7167 45.0435 61.64C45.2735 61.525 45.5035 61.4483 45.7335 61.41C46.2318 61.295 46.7685 61.295 47.2285 61.41C47.4968 61.4483 47.7268 61.525 47.9568 61.64C48.1868 61.7167 48.4168 61.8317 48.6468 61.985C48.8385 62.1383 49.0302 62.2917 49.2218 62.445C49.9118 63.1733 50.3335 64.17 50.3335 65.1667C50.3335 66.1633 49.9118 67.16 49.2218 67.8883Z" fill="#F8CE4E"/>
</g>
</g>
</svg>
