<svg width="14" height="16" viewBox="0 0 14 16" fill="none" xmlns="http://www.w3.org/2000/svg">
<path id="Search" fill-rule="evenodd" clip-rule="evenodd" d="M13.7431 14.0388L9.9101 9.88472C10.5972 8.86953 10.9652 7.6422 10.9601 6.38339C10.947 3.09748 8.49372 0.435909 5.4606 0.41693C4.00908 0.409816 2.61522 1.03189 1.58953 2.14458C0.563845 3.25726 -0.00846493 4.76813 9.46502e-05 6.3406C0.0132044 9.6268 2.4667 12.2886 5.50009 12.3076C6.66681 12.3131 7.80387 11.9097 8.7416 11.1576L8.7456 11.1544L12.5751 15.3052C12.7821 15.5405 13.0907 15.6357 13.3811 15.554C13.6716 15.4723 13.8983 15.2265 13.9735 14.9117C14.0487 14.597 13.9605 14.2629 13.7431 14.0388ZM5.49577 11.1181C3.06919 11.103 1.10642 8.97374 1.09577 6.34492C1.08922 5.0871 1.54711 3.87866 2.3675 2.98857C3.1879 2.09849 4.30271 1.60065 5.46377 1.60588C7.89036 1.621 9.85312 3.75022 9.86377 6.37904C9.87032 7.63685 9.41244 8.8453 8.59204 9.73539C7.77165 10.6255 6.65684 11.1233 5.49577 11.1181Z" fill="#8F9AA8"/>
</svg>
