<svg width="32" height="34" viewBox="0 0 32 34" fill="none" xmlns="http://www.w3.org/2000/svg">
<path d="M29 9V25C29 31.4 27.375 33 20.875 33H11.125C4.625 33 3 31.4 3 25V9C3 2.6 4.625 1 11.125 1H20.875C27.375 1 29 2.6 29 9Z" stroke="#FF931E" stroke-width="1.5" stroke-linecap="round" stroke-linejoin="round"/>
<path d="M19.25 6.59961H12.75" stroke="#FF931E" stroke-width="1.5" stroke-linecap="round" stroke-linejoin="round"/>
<path d="M16.0002 28.3604C17.3913 28.3604 18.5189 27.2501 18.5189 25.8804C18.5189 24.5107 17.3913 23.4004 16.0002 23.4004C14.6091 23.4004 13.4814 24.5107 13.4814 25.8804C13.4814 27.2501 14.6091 28.3604 16.0002 28.3604Z" stroke="#FF931E" stroke-width="1.5" stroke-linecap="round" stroke-linejoin="round"/>
</svg>
