<svg width="62" height="38" viewBox="0 0 62 38" fill="none" xmlns="http://www.w3.org/2000/svg">
<path fill-rule="evenodd" clip-rule="evenodd" d="M17.9332 0H46.5547C47.9482 0 49.0787 1.13045 49.0787 2.52378V21.0315C49.0787 22.4249 47.9482 23.5553 46.5547 23.5553H17.9332C16.5397 23.5553 15.4091 22.4249 15.4091 21.0315V2.52378C15.4091 1.13045 16.5397 0 17.9332 0ZM17.9332 21.0315L46.6838 21.1294V2.52378H17.9332V21.0315ZM31.4026 8.41262C31.4026 10.2686 29.8934 11.7777 28.0372 11.7777C26.181 11.7777 24.6718 10.2686 24.6718 8.41262C24.6718 6.55658 26.181 5.04757 28.0372 5.04757C29.8934 5.04757 31.4026 6.55658 31.4026 8.41262ZM32.7487 18.5078H23.3256C22.6736 18.5078 22.1477 18.0556 22.1477 17.4982V16.4887C22.1477 14.8167 23.7305 13.4602 25.6814 13.4602C25.9178 13.4602 26.1141 13.5256 26.3519 13.6048C26.7172 13.7265 27.1804 13.8808 28.0372 13.8808C28.8724 13.8808 29.3532 13.725 29.7296 13.6031C29.9717 13.5246 30.1706 13.4602 30.393 13.4602C32.3438 13.4602 33.9266 14.8167 33.9266 16.4887V17.4982C33.9266 18.0556 33.4008 18.5078 32.7487 18.5078ZM41.9194 15.1427H36.03C35.7986 15.1427 35.6093 14.9534 35.6093 14.7221V13.8808C35.6093 13.6495 35.7986 13.4602 36.03 13.4602H41.9194C42.1508 13.4602 42.3401 13.6495 42.3401 13.8808V14.7221C42.3401 14.9534 42.1508 15.1427 41.9194 15.1427ZM41.9194 11.7777H36.03C35.7986 11.7777 35.6093 11.5884 35.6093 11.357V10.5158C35.6093 10.2844 35.7986 10.0951 36.03 10.0951H41.9194C42.1508 10.0951 42.3401 10.2844 42.3401 10.5158V11.357C42.3401 11.5884 42.1508 11.7777 41.9194 11.7777ZM41.9194 8.41262H36.03C35.7986 8.41262 35.6093 8.22333 35.6093 7.99199V7.15072C35.6093 6.91938 35.7986 6.73009 36.03 6.73009H41.9194C42.1508 6.73009 42.3401 6.91938 42.3401 7.15072V7.99199C42.3401 8.22333 42.1508 8.41262 41.9194 8.41262ZM62 26.1074C62 31.6433 45.3568 33.2914 40.2852 33.6632V33.6717H40.2007C40.0553 33.6767 39.9103 33.653 39.774 33.602C39.6378 33.5509 39.5129 33.4736 39.4066 33.3743C39.3002 33.275 39.2145 33.1558 39.1542 33.0233C39.0939 32.8909 39.0603 32.7479 39.0554 32.6025C39.0504 32.4571 39.0741 32.3122 39.1251 32.1759C39.1761 32.0397 39.2535 31.9148 39.3528 31.8085C39.4521 31.7022 39.5713 31.6164 39.7038 31.5562C39.8362 31.4959 39.9792 31.4623 40.1246 31.4573C53.5389 30.4769 59.7854 27.6878 59.7854 26.1158C59.7854 25.3805 58.4753 24.1466 54.7815 23.014C54.6352 22.9778 54.498 22.9122 54.378 22.8211C54.258 22.73 54.1579 22.6154 54.0838 22.4843C54.0096 22.3532 53.963 22.2083 53.9468 22.0586C53.9306 21.9088 53.9451 21.7574 53.9894 21.6134C54.0338 21.4695 54.107 21.3361 54.2047 21.2214C54.3023 21.1068 54.4224 21.0132 54.5575 20.9466C54.6925 20.8799 54.8398 20.8415 54.9902 20.8336C55.1406 20.8258 55.2911 20.8488 55.4323 20.9011C59.7939 22.2534 62 24.0029 62 26.1074ZM29.3203 31.7843L20.7596 31.3559C8.08071 30.2994 2.22304 27.5949 2.22304 26.0989C2.22304 25.465 3.76987 23.893 9.61909 22.4985C9.90491 22.4301 10.1519 22.251 10.3056 22.0006C10.4594 21.7501 10.5074 21.4489 10.439 21.1631C10.3706 20.8773 10.1915 20.6304 9.94104 20.4766C9.69059 20.3229 9.3893 20.2749 9.10348 20.3433C3.0683 21.7801 0 23.724 0 26.0905C0 31.2714 14.3695 33.0378 20.599 33.5534L28.7317 33.9527L25.1719 35.979C24.9427 36.1358 24.7807 36.373 24.7182 36.6436C24.6557 36.9142 24.6972 37.1984 24.8344 37.4398C24.9716 37.6813 25.1946 37.8624 25.4591 37.9471C25.7236 38.0319 26.0103 38.0142 26.2623 37.8976L33.4048 33.8323C33.5679 33.7393 33.7048 33.6063 33.8024 33.4459C33.9 33.2855 33.9552 33.1028 33.9629 32.9152C33.9705 32.7276 33.9302 32.5411 33.8459 32.3733C33.7616 32.2055 33.636 32.0619 33.4808 31.956L26.3553 27.0793C26.113 26.9255 25.8205 26.8718 25.5394 26.9294C25.2583 26.987 25.0105 27.1515 24.8483 27.3882C24.6861 27.6249 24.6221 27.9153 24.6699 28.1982C24.7176 28.4812 24.8734 28.7345 25.1043 28.9049L29.3203 31.7843Z" fill="white"/>
</svg>
