<svg width="25" height="25" viewBox="0 0 25 25" fill="none" xmlns="http://www.w3.org/2000/svg">
<path d="M20.5 20.7578H4.5C3.43052 20.7898 2.53642 19.9511 2.5 18.8818V6.63275C2.53641 5.56356 3.43068 4.72518 4.5 4.75775H20.5C21.5693 4.72518 22.4636 5.56356 22.5 6.63275V18.8828C22.463 19.9517 21.5691 20.7898 20.5 20.7578ZM4.5 6.75775V18.7468L20.5 18.7578V6.76875L4.5 6.75775ZM13.93 16.7578H6.5C6.57353 15.9298 6.96534 15.1627 7.593 14.6178C8.29183 13.9245 9.23081 13.527 10.215 13.5078C11.1992 13.527 12.1382 13.9245 12.837 14.6178C13.4645 15.1628 13.8563 15.9299 13.93 16.7578ZM18.5 15.7578H15.5V13.7578H18.5V15.7578ZM10.215 12.7578C9.67907 12.7764 9.15947 12.5717 8.78029 12.1925C8.4011 11.8133 8.19638 11.2937 8.215 10.7578C8.19668 10.2219 8.4015 9.70249 8.78062 9.32337C9.15974 8.94425 9.67916 8.73943 10.215 8.75775C10.7508 8.73943 11.2703 8.94425 11.6494 9.32337C12.0285 9.70249 12.2333 10.2219 12.215 10.7578C12.2336 11.2937 12.0289 11.8133 11.6497 12.1925C11.2705 12.5717 10.7509 12.7764 10.215 12.7578ZM18.5 11.7578H14.5V9.75775H18.5V11.7578Z" fill="#FF931E"/>
</svg>
