<svg width="254" height="254" viewBox="0 0 254 254" fill="none" xmlns="http://www.w3.org/2000/svg">
<path d="M252.943 217.326C259.069 205.202 241.561 144.585 120.161 144.585C32.5352 144.585 -7.68276 194.202 1.20862 219.347" fill="url(#paint0_radial_2796_28019)"/>
<mask id="mask0_2796_28019" style="mask-type:luminance" maskUnits="userSpaceOnUse" x="0" y="144" width="254" height="76">
<path d="M252.943 217.326C259.069 205.202 241.561 144.585 120.161 144.585C32.5352 144.585 -7.68276 194.202 1.20862 219.347" fill="white"/>
</mask>
<g mask="url(#mask0_2796_28019)">
<ellipse opacity="0.671968" cx="101.437" cy="198.116" rx="6.6764" ry="3.70841" fill="url(#paint1_linear_2796_28019)"/>
<ellipse opacity="0.256348" cx="169.581" cy="172.918" rx="10.5339" ry="5.78512" fill="url(#paint2_linear_2796_28019)"/>
<ellipse opacity="0.729957" cx="49.7021" cy="157.49" rx="10.5339" ry="5.78512" fill="url(#paint3_linear_2796_28019)"/>
</g>
<path opacity="0.5" d="M98.9625 158.028C98.9625 158.028 124.795 170.175 135.044 174.837C143.161 178.529 184.96 190.341 189.939 186.984C194.919 183.626 205.913 174.411 202.283 168.097C198.654 161.784 179.565 150.447 170.436 148.791C161.307 147.135 135.203 154.664 135.203 154.664L112.937 158.488L98.9625 158.028Z" fill="url(#paint4_linear_2796_28019)"/>
<path d="M118.11 103.717L89.3233 124.884L96.9988 106.876L125.828 88.5737L118.11 103.717Z" fill="#E2E7EC"/>
<path d="M96.5201 107.247L125.828 88.9004V138.938L98.9624 157.773L96.5201 107.247Z" fill="#D8DFE6"/>
<path d="M125.828 88.9004L170.766 99.4138V149.47L125.828 138.956V88.9004Z" fill="#E9EFF1"/>
<path d="M96.5201 107.244L142.436 117.975V168.03L98.9624 158.047L96.5201 107.244Z" fill="#E8EAEB"/>
<path d="M141.458 117.994L170.766 99.6465V149.684L141.458 168.031V117.994Z" fill="#D8DFE6"/>
<mask id="mask1_2796_28019" style="mask-type:luminance" maskUnits="userSpaceOnUse" x="141" y="99" width="30" height="70">
<path d="M141.458 117.994L170.766 99.6465V149.684L141.458 168.031V117.994Z" fill="white"/>
</mask>
<g mask="url(#mask1_2796_28019)">
<rect x="152.344" y="95.4766" width="9.21099" height="76.7242" fill="#C7D0D9"/>
</g>
<path d="M154.637 132.862L183.466 114.56L170.287 99.6465L141.458 117.949L154.637 132.862Z" fill="#E2E7EC"/>
<path opacity="0.5" d="M74.0382 159.29L119.38 182.457L123.613 170.181L79.1259 155.382L74.0382 159.29Z" fill="url(#paint5_linear_2796_28019)"/>
<path d="M72.8003 121.204L88.4351 122.437L84.9632 156.445C84.9632 156.445 84.6591 156.785 83.9215 156.653C83.1838 156.521 82.4099 156.111 82.4099 156.111L80.0846 129.075C80.0846 129.075 78.7398 138.635 78.8337 141.324C78.9045 143.351 79.5973 145.823 79.9682 147.937C80.2873 149.757 80.9588 154.106 80.9588 154.106C80.9588 154.106 80.1654 154.468 79.7434 154.55C79.3214 154.632 78.7805 154.182 78.7805 154.182C78.7805 154.182 73.2987 143.541 73.2281 141.52C73.1576 139.499 72.8003 121.204 72.8003 121.204Z" fill="url(#paint6_linear_2796_28019)"/>
<path d="M78.5377 154.132C78.5377 154.132 77.8413 155.386 76.9762 156.151C76.1112 156.915 74.4041 157.828 74.0149 158.243C73.6258 158.657 74.0508 159.269 74.0508 159.269L78.2345 159.123L81.5776 156.294L81.1105 153.599L78.5377 154.132Z" fill="#677285"/>
<path d="M85.3568 155.584L86.3336 158.293C86.3336 158.293 84.7296 159.535 82.5134 159.881C80.2973 160.227 78.7702 159.696 78.7702 159.696C78.7702 159.696 78.3701 158.89 79.1242 158.545C79.4706 158.387 80.2469 157.729 80.9285 156.887C81.2362 156.506 82.3953 155.688 82.3953 155.688L85.3568 155.584Z" fill="#677285"/>
<path d="M92.3609 103.473C92.3609 103.473 93.6424 105.422 94.4282 104.9C95.214 104.379 100.119 99.351 100.119 99.351C100.119 99.351 101.578 98.2276 101.848 98.4946C102.118 98.7617 101.362 99.351 101.362 99.351C101.362 99.351 102.954 99.5074 103.452 99.5074C103.949 99.5074 104.996 100.302 104.311 100.569C103.627 100.836 100.973 100.902 100.973 100.902C100.973 100.902 96.9426 108.523 94.8426 109.064C92.7426 109.604 89.8492 106.548 89.8492 106.548L92.3609 103.473Z" fill="#FDE7E6"/>
<path d="M71.8856 103.613C71.8856 103.613 71.0454 105.333 70.284 104.92C69.5226 104.507 65.2505 100.002 65.2505 100.002C65.2505 100.002 63.8278 99.1308 63.4799 99.2876C63.132 99.4444 63.9897 100.002 63.9897 100.002C63.9897 100.002 61.8965 100.172 61.5028 100.33C61.109 100.488 60.6504 100.974 61.2457 101.194C61.8411 101.415 64.12 101.572 64.12 101.572C64.12 101.572 67.2882 107.832 69.6884 108.564C72.0887 109.296 74.1336 106.412 74.1336 106.412L71.8856 103.613Z" fill="#FDE7E6"/>
<path d="M79.6566 98.3434V95.2676C79.6566 95.2676 78.0618 95.3484 77.4136 94.2805C76.7653 93.2126 76.5902 90.1822 76.5902 90.1822L77.0787 88.7772L81.8821 88.5742L84.4056 90.7247L83.2307 92.7999L83.0067 93.1987L84.1266 97.915L79.6566 98.3434Z" fill="#FDE7E6"/>
<mask id="mask2_2796_28019" style="mask-type:luminance" maskUnits="userSpaceOnUse" x="76" y="88" width="9" height="11">
<path d="M79.6566 98.3434V95.2676C79.6566 95.2676 78.0618 95.3484 77.4136 94.2805C76.7653 93.2126 76.5902 90.1822 76.5902 90.1822L77.0787 88.7772L81.8821 88.5742L84.4056 90.7247L83.2307 92.7999L83.0067 93.1987L84.1266 97.915L79.6566 98.3434Z" fill="white"/>
</mask>
<g mask="url(#mask2_2796_28019)">
<path d="M82.7815 92.3456C81.3619 94.111 78.9066 95.3449 78.5869 95.3449C78.2673 95.3449 80.3722 97.5592 80.3722 97.5592L82.0848 98.3443L84.5155 97.829L85.3833 95.3449L83.8514 92.5266C83.8514 92.5266 84.201 90.5801 82.7815 92.3456Z" fill="url(#paint7_linear_2796_28019)"/>
</g>
<path d="M70.8654 104.848L73.2258 108.027L74.7313 106.438C74.7313 106.438 73.5863 112.715 73.2258 115.726C72.8654 118.737 72.7983 121.736 72.7983 121.736C72.7983 121.736 76.578 123.139 79.3956 123.375C82.2132 123.611 88.7726 123.003 88.7726 123.003L87.9259 105.332L90.3825 107.613L93.2671 104.282C93.2671 104.282 88.3015 96.6512 87.3625 96.2066C86.4234 95.7621 83.8131 96.2066 83.8131 96.2066C83.8131 96.2066 81.9607 98.3987 81.2096 98.4293C80.4585 98.4599 78.7923 96.2066 78.7923 96.2066C78.7923 96.2066 76.1304 95.7815 75.3564 96.6512C74.5824 97.5209 70.8654 104.848 70.8654 104.848Z" fill="url(#paint8_linear_2796_28019)"/>
<path d="M76.591 90.2169C76.591 90.2169 77.1571 88.7884 77.896 89.0373C78.5953 89.2728 79.201 89.8333 80.071 90.0964C80.941 90.3595 81.0372 89.1776 81.6284 89.3772C82.2196 89.5767 81.8294 91.3154 82.246 91.6392C82.6627 91.9629 82.6627 89.3772 83.551 90.0733C84.4394 90.7694 82.6242 92.7288 82.6242 92.7288C82.6242 92.7288 82.8569 93.933 82.9316 94.015C83.0062 94.0969 82.9977 93.1388 82.9977 93.1388C82.9977 93.1388 83.846 92.8132 84.2076 91.3443C84.5691 89.8755 84.7254 89.2907 84.2076 88.2234C83.6897 87.1562 83.5421 86.3204 82.246 85.8169C80.95 85.3134 79.9666 85.5104 79.0608 85.8169C78.1549 86.1235 77.4985 86.7325 77.0795 87.3386C76.1026 88.7773 76.591 90.2169 76.591 90.2169Z" fill="#4D364F"/>
<path fill-rule="evenodd" clip-rule="evenodd" d="M163.928 52.5439C162.899 52.8586 141.587 65.6096 141.587 65.6096L147.806 66.0734L152.226 70.9576C152.226 70.9576 164.957 52.2292 163.928 52.5439Z" fill="#E8EAEB"/>
<mask id="mask3_2796_28019" style="mask-type:luminance" maskUnits="userSpaceOnUse" x="141" y="52" width="23" height="19">
<path fill-rule="evenodd" clip-rule="evenodd" d="M163.928 52.5439C162.899 52.8586 141.587 65.6096 141.587 65.6096L147.806 66.0734L152.226 70.9576C152.226 70.9576 164.957 52.2292 163.928 52.5439Z" fill="white"/>
</mask>
<g mask="url(#mask3_2796_28019)">
<path fill-rule="evenodd" clip-rule="evenodd" d="M147.807 66.0734L163.928 52.5439L152.226 70.9576L147.807 66.0734Z" fill="#D8DFE6"/>
</g>
<path fill-rule="evenodd" clip-rule="evenodd" d="M160.728 67.3189L153.255 66.5378L163.936 52.6751L160.728 67.3189Z" fill="#E8EAEB"/>
<path fill-rule="evenodd" clip-rule="evenodd" d="M146.968 76.5557C147.435 75.5676 147.905 74.5448 148.378 73.4873L149.151 73.8332C148.675 74.8959 148.203 75.924 147.733 76.9174L146.968 76.5557ZM143.927 82.584C144.443 81.632 144.963 80.6348 145.487 79.5926L146.244 79.9731C145.715 81.0229 145.191 82.0277 144.671 82.9874L143.927 82.584ZM142.267 85.5168C141.666 86.5309 141.07 87.4814 140.481 88.3681L141.186 88.8368C141.783 87.9378 142.387 86.9751 142.995 85.9487L142.267 85.5168ZM136.35 93.6428C137.064 92.9021 137.789 92.0568 138.524 91.1069L139.193 91.6251C138.44 92.5984 137.695 93.4668 136.959 94.2304L136.35 93.6428ZM133.863 95.8305C132.873 96.5398 131.909 97.0303 130.972 97.3045L131.21 98.1171C132.244 97.8146 133.292 97.281 134.356 96.5187L133.863 95.8305ZM125.001 95.9198C125.932 96.6706 126.879 97.1623 127.842 97.3995L127.64 98.2216C126.551 97.9534 125.494 97.4043 124.47 96.5789L125.001 95.9198ZM122.719 93.515C122.667 93.4463 122.615 93.3768 122.562 93.3064C121.881 92.389 121.386 91.5183 121.07 90.696L120.28 90.9994C120.624 91.8978 121.157 92.835 121.883 93.8113C121.937 93.8848 121.992 93.9573 122.047 94.029L122.719 93.515ZM122.517 84.9981C121.602 85.7535 121.014 86.6206 120.774 87.5879L119.952 87.3841C120.238 86.2299 120.93 85.2105 121.977 84.3454L122.517 84.9981ZM125.345 83.4071C126.298 83.0351 127.369 82.7317 128.531 82.5027L128.367 81.672C127.158 81.9104 126.039 82.2274 125.037 82.6185L125.345 83.4071ZM135.159 82.0183C134.033 81.9783 132.91 81.9969 131.817 82.0738L131.758 81.2293C132.881 81.1502 134.033 81.1311 135.189 81.1722L135.159 82.0183ZM138.529 82.3151C139.664 82.4767 140.762 82.698 141.799 82.9754L142.018 82.1575C140.947 81.8712 139.816 81.6431 138.649 81.4769L138.529 82.3151ZM147.755 85.7656C146.98 85.1356 146.036 84.57 144.945 84.0785L145.293 83.3067C146.447 83.8269 147.455 84.4299 148.289 85.1089L147.755 85.7656ZM149.772 88.3088C149.977 88.7834 150.107 89.2778 150.162 89.792C150.221 90.336 150.241 90.8827 150.223 91.4324L151.069 91.46C151.088 90.8711 151.067 90.2849 151.004 89.7018C150.94 89.1028 150.788 88.526 150.55 87.9741L149.772 88.3088ZM148.416 97.7409C148.961 96.713 149.383 95.696 149.682 94.6897L150.494 94.931C150.178 95.9924 149.735 97.0612 149.164 98.1374L148.416 97.7409ZM146.623 100.572C145.997 101.425 145.289 102.284 144.499 103.151L145.125 103.721C145.934 102.833 146.661 101.95 147.306 101.073L146.623 100.572ZM139.637 107.732C140.536 106.988 141.377 106.249 142.162 105.513L142.741 106.131C141.943 106.878 141.089 107.629 140.177 108.384L139.637 107.732ZM136.969 109.829C136.099 110.48 135.185 111.134 134.23 111.792L134.71 112.489C135.675 111.826 136.597 111.165 137.476 110.507L136.969 109.829ZM129.628 114.78C130.229 114.41 130.818 114.041 131.393 113.673L131.849 114.386C131.27 114.757 130.677 115.128 130.071 115.501L129.628 114.78Z" fill="#C7D0D9"/>
<defs>
<radialGradient id="paint0_radial_2796_28019" cx="0" cy="0" r="1" gradientUnits="userSpaceOnUse" gradientTransform="translate(110.161 170.512) rotate(-90) scale(43.4681 453.981)">
<stop stop-color="#EBEDF0" stop-opacity="0.24"/>
<stop offset="0.536775" stop-color="#EBEDF0" stop-opacity="0.845525"/>
<stop offset="1" stop-color="#E0E4E7" stop-opacity="0.01"/>
</radialGradient>
<linearGradient id="paint1_linear_2796_28019" x1="96.063" y1="197.133" x2="98.097" y2="201.483" gradientUnits="userSpaceOnUse">
<stop stop-color="#E1E7EA"/>
<stop offset="1" stop-color="#D0D6DC"/>
</linearGradient>
<linearGradient id="paint2_linear_2796_28019" x1="160.737" y1="172.377" x2="164.458" y2="180.14" gradientUnits="userSpaceOnUse">
<stop stop-color="#E1E7EA"/>
<stop offset="1" stop-color="#D0D6DC"/>
</linearGradient>
<linearGradient id="paint3_linear_2796_28019" x1="42.9855" y1="157.584" x2="45.0915" y2="165.974" gradientUnits="userSpaceOnUse">
<stop stop-color="#FBFBFB"/>
<stop offset="1" stop-color="#D9DFE3"/>
</linearGradient>
<linearGradient id="paint4_linear_2796_28019" x1="95.1666" y1="162.24" x2="102.681" y2="195.939" gradientUnits="userSpaceOnUse">
<stop stop-color="#C4CDD1"/>
<stop offset="1" stop-color="#C6CFD3" stop-opacity="0.01"/>
</linearGradient>
<linearGradient id="paint5_linear_2796_28019" x1="72.4648" y1="165.632" x2="81.1819" y2="188.382" gradientUnits="userSpaceOnUse">
<stop stop-color="#C4CDD1"/>
<stop offset="1" stop-color="#C6CFD3" stop-opacity="0.01"/>
</linearGradient>
<linearGradient id="paint6_linear_2796_28019" x1="89.5654" y1="156.507" x2="88.323" y2="120.931" gradientUnits="userSpaceOnUse">
<stop stop-color="#A1A7B8"/>
<stop offset="1" stop-color="#7B8195"/>
</linearGradient>
<linearGradient id="paint7_linear_2796_28019" x1="83.4542" y1="96.279" x2="83.4542" y2="93.2988" gradientUnits="userSpaceOnUse">
<stop stop-color="#FBD8D6"/>
<stop offset="1" stop-color="#EAC0BE" stop-opacity="0.7"/>
</linearGradient>
<linearGradient id="paint8_linear_2796_28019" x1="59.5327" y1="108.521" x2="83.0852" y2="133.367" gradientUnits="userSpaceOnUse">
<stop stop-color="#E5E9F0"/>
<stop offset="1" stop-color="#D2DAE8"/>
</linearGradient>
</defs>
</svg>
