<svg width="26" height="26" viewBox="0 0 26 26" fill="none" xmlns="http://www.w3.org/2000/svg">
<path d="M13.3334 2.44434C7.51728 2.44434 2.77783 7.18378 2.77783 12.9999C2.77783 18.816 7.51728 23.5554 13.3334 23.5554C19.1495 23.5554 23.8889 18.816 23.8889 12.9999C23.8889 7.18378 19.1495 2.44434 13.3334 2.44434ZM12.5417 8.77767C12.5417 8.34489 12.9006 7.986 13.3334 7.986C13.7662 7.986 14.1251 8.34489 14.1251 8.77767V14.0554C14.1251 14.4882 13.7662 14.8471 13.3334 14.8471C12.9006 14.8471 12.5417 14.4882 12.5417 14.0554V8.77767ZM14.3045 17.6232C14.2517 17.7604 14.1778 17.866 14.0828 17.9716C13.9773 18.0666 13.8612 18.1404 13.7345 18.1932C13.6078 18.246 13.4706 18.2777 13.3334 18.2777C13.1962 18.2777 13.0589 18.246 12.9323 18.1932C12.8056 18.1404 12.6895 18.0666 12.5839 17.9716C12.4889 17.866 12.4151 17.7604 12.3623 17.6232C12.3095 17.4966 12.2778 17.3593 12.2778 17.2221C12.2778 17.0849 12.3095 16.9477 12.3623 16.821C12.4151 16.6943 12.4889 16.5782 12.5839 16.4727C12.6895 16.3777 12.8056 16.3038 12.9323 16.251C13.1856 16.1454 13.4812 16.1454 13.7345 16.251C13.8612 16.3038 13.9773 16.3777 14.0828 16.4727C14.1778 16.5782 14.2517 16.6943 14.3045 16.821C14.3573 16.9477 14.3889 17.0849 14.3889 17.2221C14.3889 17.3593 14.3573 17.4966 14.3045 17.6232Z" fill="#384254"/>
</svg>
