<svg width="25" height="24" viewBox="0 0 25 24" fill="none" xmlns="http://www.w3.org/2000/svg">
<path d="M9.75 22H15.75C20.75 22 22.75 20 22.75 15V9C22.75 4 20.75 2 15.75 2H9.75C4.75 2 2.75 4 2.75 9V15C2.75 20 4.75 22 9.75 22Z" stroke="#292D32" stroke-width="1.5" stroke-linecap="round" stroke-linejoin="round"/>
<path d="M9.75 10C10.8546 10 11.75 9.10457 11.75 8C11.75 6.89543 10.8546 6 9.75 6C8.64543 6 7.75 6.89543 7.75 8C7.75 9.10457 8.64543 10 9.75 10Z" stroke="#292D32" stroke-width="1.5" stroke-linecap="round" stroke-linejoin="round"/>
<path d="M3.41992 18.9496L8.34992 15.6396C9.13992 15.1096 10.2799 15.1696 10.9899 15.7796L11.3199 16.0696C12.0999 16.7396 13.3599 16.7396 14.1399 16.0696L18.2999 12.4996C19.0799 11.8296 20.3399 11.8296 21.1199 12.4996L22.7499 13.8996" stroke="#292D32" stroke-width="1.5" stroke-linecap="round" stroke-linejoin="round"/>
</svg>
