<svg id="vector" xmlns="http://www.w3.org/2000/svg" width="176.001" height="44.85" viewBox="0 0 176.001 44.85"><path fill="#f7931e" d="M20.079,0.952a11.3,11.3 0,0 1,5.837 4.347,15.191 15.191,0 0,1 2.446,5.533 26.5,26.5 0,0 1,0.652 5.671,22.771 22.771,0 0,1 -2.746,11.579q-3.723,6.39 -11.5,6.39L0,34.472L0,0.21h14.772A18.177,18.177 0,0 1,20.079 0.952ZM6.95,6.16L6.95,28.544h6.611q5.074,0 7.078,-5a17.579,17.579 0,0 0,1.095 -6.532q0,-5.236 -1.64,-8.034t-6.532,-2.8Z" fill-rule="evenodd" id="path_0"/><path fill="#4d4d4d" d="M40.66,6.114L33.942,6.114L33.942,0h6.718ZM33.942,9.137h6.718L40.66,34.472L33.942,34.472Z" fill-rule="evenodd" id="path_1"/><path fill="#4d4d4d" d="M59.614,9.113a7.975,7.975 0,0 1,3.9 3.675L63.514,9.136L69.982,9.136v24.039q0,4.908 -1.652,7.394 -2.841,4.28 -10.879,4.28a14.825,14.825 0,0 1,-7.932 -1.909,7.028 7.028,0 0,1 -3.391,-5.7h7.2a2.971,2.971 0,0 0,0.909 1.672,5.584 5.584,0 0,0 3.6,0.909q3.58,0 4.79,-2.395a12.124,12.124 0,0 0,0.79 -5.161v-1.628a8.083,8.083 0,0 1,-2.047 2.442,8.232 8.232,0 0,1 -5.137,1.51 9.721,9.721 0,0 1,-7.8 -3.43q-2.917,-3.43 -2.917,-9.287a15.608,15.608 0,0 1,2.81 -9.484,9.328 9.328,0 0,1 7.963,-3.849A8.693,8.693 0,0 1,59.614 9.113ZM61.871,27.292q1.6,-1.755 1.581,-5.592a8.586,8.586 0,0 0,-1.513 -5.485,4.952 4.952,0 0,0 -4.051,-1.9 4.792,4.792 0,0 0,-4.79 3.28,11.678 11.678,0 0,0 -0.676,4.3 9.838,9.838 0,0 0,0.739 3.928A4.824,4.824 0,0 0,57.982 29.038a5.082,5.082 0,0 0,3.893 -1.755Z" fill-rule="evenodd" id="path_2"/><path fill="#4d4d4d" d="M82.973,6.114L76.255,6.114L76.255,0h6.718ZM76.255,9.137h6.718L82.973,34.472L76.255,34.472Z" fill-rule="evenodd" id="path_3"/><path fill="#4d4d4d" d="M110.004,0.952a11.31,11.31 0,0 1,5.841 4.347,15.117 15.117,0 0,1 2.442,5.533 26.507,26.507 0,0 1,0.652 5.671,22.8 22.8,0 0,1 -2.743,11.579q-3.707,6.39 -11.5,6.39L89.925,34.472L89.925,0.21h14.776A18.131,18.131 0,0 1,110.004 0.952ZM96.876,6.16L96.876,28.544h6.616q5.074,0 7.078,-5a17.578,17.578 0,0 0,1.095 -6.532q0,-5.236 -1.64,-8.034t-6.532,-2.8Z" fill-rule="evenodd" id="path_4"/><path fill="#4d4d4d" d="M144.895,31.377q-3.213,3.952 -9.741,3.952t-9.742,-3.952a15.7,15.7 0,0 1,0 -19.02q3.209,-4.019 9.742,-4.019t9.741,4a14.781,14.781 0,0 1,3.209 9.484A14.567,14.567 0,0 1,144.895 31.377ZM139.595,27.718a9.692,9.692 0,0 0,1.581 -5.876,9.278 9.278,0 0,0 -1.581,-5.861 5.209,5.209 0,0 0,-4.446 -2.059,5.3 5.3,0 0,0 -4.477,2.059 9.456,9.456 0,0 0,-1.581 5.861,9.527 9.527,0 0,0 1.581,5.876 5.873,5.873 0,0 0,8.939 0Z" fill-rule="evenodd" id="path_5"/><path fill="#4d4d4d" d="M169.374,9.65a10.337,10.337 0,0 1,4.371 3.75,12.487 12.487,0 0,1 2.015,5.24 31.973,31.973 0,0 1,0.221 5.027L157.542,23.667q0.154,3.818 2.652,5.347a6.718,6.718 0,0 0,3.651 0.956,5.138 5.138,0 0,0 5.043,-2.909L175.651,27.061a8.233,8.233 0,0 1,-2.454 4.58q-3.406,3.7 -9.536,3.7a13.832,13.832 0,0 1,-8.927 -3.118q-3.865,-3.118 -3.865,-10.148 0,-6.584 3.489,-10.1a12.214,12.214 0,0 1,9.062 -3.513A14.444,14.444 0,0 1,169.374 9.65ZM159.462,15.377a6.885,6.885 0,0 0,-1.766 3.92h11.417a5.514,5.514 0,0 0,-1.766 -4,5.791 5.791,0 0,0 -3.928,-1.371A5.248,5.248 0,0 0,159.462 15.377Z" fill-rule="evenodd" id="path_6"/></svg>