<svg width="217" height="167" viewBox="0 0 217 167" fill="none" xmlns="http://www.w3.org/2000/svg">
<rect width="215" height="166" transform="translate(1 0.628906)" fill="white"/>
<path d="M55.2447 154C55.2447 154 90.0803 127.514 138.415 156.572C186.75 185.629 242.535 142.795 202.492 102.527C162.45 62.2583 206.694 52.8392 179.271 27.6073C148.102 -1.0701 114.283 38.4703 88.7757 23.1027C32.481 -10.8139 -2.49367 -4.10289 1.00007 27.6073C3.78712 52.9032 29.2487 74.5294 9.98399 95.2738C-9.28072 116.018 22.5934 172.95 55.2447 154Z" fill="#FF931E" fill-opacity="0.08"/>
<mask id="mask0_9839_26328" style="mask-type:alpha" maskUnits="userSpaceOnUse" x="-6" y="-3" width="223" height="170">
<path d="M55.2447 154C55.2447 154 90.0803 127.514 138.415 156.572C186.75 185.629 242.535 142.795 202.492 102.527C162.45 62.2583 206.694 52.8393 179.27 27.6073C148.102 -1.0701 114.283 38.4703 88.7757 23.1027C32.481 -10.8139 -11.8941 -10.1752 -4.82431 17.9488C7.58578 67.3168 29.2487 74.5294 9.98399 95.2738C-9.28072 116.018 22.5934 172.95 55.2447 154Z" fill="#DEE9FF"/>
</mask>
<g mask="url(#mask0_9839_26328)">
<path d="M97.953 69.0772C98.3247 69.5465 101.711 75.5769 102.166 75.965L125.747 113.581L149.978 143.886L153.565 150.669C153.565 150.669 163.634 233.473 174.162 234.346C176.52 235.166 183.665 237.933 187.629 242.226C188.907 243.61 198.973 273.176 214.575 314.983C215.356 317.075 216.889 318.799 218.873 319.817C220.858 320.834 223.15 321.072 225.299 320.482C244.662 315.167 288.032 303.46 308.662 295.571C309.933 295.086 311.067 294.296 311.963 293.271C312.859 292.246 313.492 291.016 313.804 289.689C314.117 288.362 314.1 286.979 313.756 285.66C313.412 284.341 312.751 283.127 311.83 282.123C288.044 256.187 238.022 196.811 238.022 196.811L234.622 189.774C234.622 189.774 201.04 132.681 194.06 128.36C191.417 125.498 176.203 103.289 170.201 87.7847C168.84 85.5296 162.529 76.145 157.243 68.042C153.497 62.2493 150.245 57.0961 149.689 55.6233C149.569 55.2857 149.369 54.9825 149.106 54.7397C149.106 54.7397 149.123 54.7349 149.102 54.7228C146.582 52.0972 138.243 52.7112 137.862 62.7022C137.435 73.7233 147.377 96.5608 149.368 97.179C150.381 99.608 162.9 120.849 180.639 122.337C169.165 123.707 152.316 120.184 147.593 119.145C142.865 118.089 122.827 70.3109 122.827 70.3109L111.729 56.1648C109.729 54.8745 107.353 54.2997 104.986 54.5338C102.182 54.8636 99.6153 56.2692 97.8238 58.4553C93.9664 62.9563 96.5032 67.2658 97.953 69.0772Z" fill="#FF931E"/>
<path d="M59.5156 122.533L179.303 122.533C184.075 122.532 187.945 118.651 187.945 113.861L187.946 45.7171C187.946 40.9264 184.075 37.0453 179.303 37.0452L59.5161 37.0459C54.7447 37.0459 50.8736 40.927 50.8734 45.7178L50.8731 113.861C50.8731 118.652 54.7442 122.533 59.5156 122.533Z" fill="#FFFFFC" stroke="#B9C8CC"/>
<path d="M178.939 36.5446L59.8804 36.5453C54.63 36.5453 50.3731 40.8894 50.3731 46.248L50.373 54.5342L188.446 54.5335L188.446 46.2473C188.446 40.8887 184.189 36.5446 178.939 36.5446Z" fill="#8F9AA8"/>
<path d="M174.639 46.9223L62.1094 46.9229L62.1094 41.3882L174.639 41.3876L174.639 46.9223Z" fill="white"/>
<path d="M124.933 60.0693L103.531 60.0694L103.531 64.2207L124.933 64.2206L124.933 60.0693Z" fill="#DEDEDE"/>
<path d="M103.531 69.7559L158.07 69.7556L158.07 66.2963L103.531 66.2966L103.531 69.7559Z" fill="#DEDEDE"/>
<path d="M103.531 83.5947L153.237 83.5945L153.237 80.1352L103.531 80.1354L103.531 83.5947Z" fill="#DEDEDE"/>
<path d="M103.531 91.8975L147.024 91.8972L147.024 87.0541L103.531 87.0543L103.531 91.8975Z" fill="#DEDEDE"/>
<path d="M124.933 93.9731L103.531 93.9732L103.531 97.4326L124.933 97.4325L124.933 93.9731Z" fill="#DEDEDE"/>
<path d="M158.07 107.119L103.531 107.119L103.531 111.271L158.07 111.27L158.07 107.119Z" fill="#DEDEDE"/>
<path d="M97.3182 114.038L57.2773 114.038L57.2776 58.6857L97.3185 58.6855L97.3182 114.038Z" fill="#F7F7F7"/>
<mask id="mask1_9839_26328" style="mask-type:luminance" maskUnits="userSpaceOnUse" x="57" y="58" width="41" height="56">
<path d="M57.5234 113.977L97.7123 113.976L97.7126 58.5601L57.5237 58.5603L57.5234 113.977Z" fill="white"/>
</mask>
<g mask="url(#mask1_9839_26328)">
<path d="M72.1486 97.3409L72.5546 116.854L77.735 120.975L83.2454 116.524L83.0805 97.815C83.0805 97.815 80.9519 91.9221 72.1486 97.3409Z" fill="white"/>
<path d="M78.0967 107.405L76.8257 107.405L75.5 102.464L79.4232 102.464L78.0967 107.405Z" fill="#8F9AA8"/>
<path d="M81.4702 121.339L73.4531 121.339L76.8507 107.081L78.0727 107.081L81.4702 121.339Z" fill="#8F9AA8"/>
<path d="M70.1194 82.171C70.1194 84.2871 68.5812 86.0019 66.6837 86.0019C64.7862 86.0019 63.2481 84.2871 63.2481 82.171C63.2481 80.0549 64.7863 78.3394 66.6838 78.3394C68.5813 78.3393 70.1194 80.0549 70.1194 82.171Z" fill="#BCBCBC"/>
<path d="M91.9925 82.171C91.9924 84.2871 90.4543 86.0019 88.5568 86.0019C86.6593 86.0019 85.1211 84.2871 85.1211 82.171C85.1211 80.0549 86.6593 78.3394 88.5568 78.3394C90.4543 78.3393 91.9925 80.0549 91.9925 82.171Z" fill="#BCBCBC"/>
<path d="M72.1739 89.2788L83.0649 89.2787L83.0649 102.39L72.1738 102.39L72.1739 89.2788Z" fill="#D2D2D2"/>
<path d="M72.1738 95.1676C73.8452 95.8893 75.6851 96.292 77.6194 96.292C79.5543 96.292 81.3935 95.8892 83.0649 95.1675L83.0649 89.2811L72.1739 89.2812L72.1738 95.1676Z" fill="#BCBCBC"/>
<path d="M81.0411 93.7939L74.6097 93.7939C69.9664 93.7939 66.2031 90.0215 66.2032 85.3685L66.2032 72.7924C66.2033 68.1387 69.9666 64.367 74.6099 64.3669L81.0412 64.3669C85.6838 64.3669 89.4471 68.1386 89.4471 72.7923L89.447 85.3684C89.447 90.0214 85.6837 93.7938 81.0411 93.7939Z" fill="#D2D2D2"/>
<path d="M69.2926 67.9418C69.2926 67.9418 80.0014 77.6453 84.842 76.1752C89.6834 74.705 89.5364 80.4384 89.5364 80.4384C89.5364 80.4384 92.764 73.5285 91.8833 71.0292C91.1496 68.9449 91.1503 66.0306 86.0159 64.7069C80.8814 63.384 67.3858 56.9153 69.2926 67.9418Z" fill="#494544"/>
<path d="M66.968 65.2203C66.968 65.2203 62.5494 65.6916 63.286 69.9353C64.022 74.1784 66.0843 80.7793 66.0843 80.7793C66.0843 80.7793 72.417 71.6638 71.239 68.678C70.0609 65.6915 69.3242 64.5916 66.968 65.2203Z" fill="#494544"/>
<path d="M75.4102 76.7016C75.4102 76.7016 77.0787 76.9968 76.8821 79.849C76.6862 82.7013 75.8026 85.5536 76.9807 85.6517C78.1581 85.7499 78.6485 85.0614 78.6485 85.0614C78.6485 85.0614 78.5505 87.2251 76.5882 86.5366C74.6252 85.8488 75.7047 82.308 76.0972 80.6357C76.4896 78.9635 75.4102 76.7016 75.4102 76.7016Z" fill="#BCBCBC"/>
<path d="M72.1562 97.34L77.6715 102.599L72.0215 105.97L72.1562 97.34Z" fill="#DADAD8"/>
<path d="M83.0825 97.34L77.5664 102.599L83.2164 105.97L83.0825 97.34Z" fill="#DADAD8"/>
<path d="M72.1 97.0238C72.105 97.3406 77.8363 121.781 77.8363 121.781L54.457 121.781L54.4571 103.051L72.1 97.0238Z" fill="#393B47"/>
<path d="M83.137 97.0238C83.1326 97.3407 77.4004 121.781 77.4004 121.781L100.78 121.781L100.78 103.051L83.137 97.0238Z" fill="#393B47"/>
</g>
<path d="M176.709 100.891L145.643 100.892L145.643 91.6186L146.58 91.6186L146.58 87.3425L145.643 87.3425L145.643 83.6431L150.549 83.6431C151.098 89.3529 155.96 93.8186 161.878 93.8185C168.162 93.8185 173.257 88.7805 173.257 82.5653C173.257 76.3501 168.162 71.3122 161.878 71.3122C156.458 71.3122 151.923 75.0592 150.777 80.0756L145.643 80.0756L145.643 69.9902L158.241 69.9902L158.241 66.4227L145.643 66.4227L145.643 64.9126L176.709 64.9124L176.709 100.891Z" fill="#DEDEDE"/>
<path d="M150.92 83.5947L145.643 83.5947L145.643 80.1352L151.165 80.1352C150.969 80.9118 150.865 81.7199 150.865 82.5496C150.865 82.902 150.883 83.2508 150.92 83.5947Z" fill="#B3C3C5"/>
<path d="M145.643 91.8975L147.023 91.8975L147.023 87.0541L145.643 87.0541L145.643 91.8975Z" fill="#B3C3C5"/>
<path d="M161.831 91.2041C157.41 91.2041 153.763 87.8979 153.234 83.6273L153.234 81.4833C153.763 77.2127 157.41 73.9065 161.831 73.9065C166.615 73.9064 170.493 77.7788 170.493 82.5552C170.493 87.3323 166.615 91.204 161.831 91.2041Z" fill="#DEDEDE"/>
<path d="M105.601 119.574L104.221 119.574L104.221 113.347L105.601 113.347L105.601 119.574Z" fill="#999B9B"/>
<path d="M111.125 119.574L106.293 119.574L106.293 113.347L111.126 113.347L111.125 119.574Z" fill="#999B9B"/>
<path d="M115.265 119.574L114.574 119.574L114.574 113.347L115.265 113.347L115.265 119.574Z" fill="#999B9B"/>
<path d="M120.788 119.574L120.098 119.574L120.098 113.347L120.788 113.347L120.788 119.574Z" fill="#999B9B"/>
<path d="M122.86 119.574L122.17 119.574L122.17 113.347L122.86 113.347L122.86 119.574Z" fill="#999B9B"/>
<path d="M125.622 119.574L124.932 119.574L124.932 113.347L125.622 113.347L125.622 119.574Z" fill="#999B9B"/>
<path d="M135.286 119.574L134.596 119.574L134.596 113.347L135.286 113.347L135.286 119.574Z" fill="#999B9B"/>
<path d="M140.81 119.574L138.049 119.574L138.049 113.347L140.81 113.347L140.81 119.574Z" fill="#999B9B"/>
<path d="M145.644 119.574L144.264 119.574L144.264 113.347L145.644 113.347L145.644 119.574Z" fill="#999B9B"/>
<path d="M341.864 331.859C340.968 332.885 339.834 333.674 338.563 334.159L197.405 161.858L197.405 157.735C202.128 158.774 201.398 154.446 200.912 152.772C195.29 141.697 192.398 128.61 191.386 126.181C189.394 125.563 179.453 102.725 179.879 91.704C180.261 81.713 188.599 81.099 191.119 83.7246C191.14 83.7366 191.124 83.7414 191.124 83.7414C191.387 83.9842 191.587 84.2875 191.706 84.625C192.262 86.0978 195.514 91.2511 199.26 97.0438C204.547 105.147 210.858 114.531 212.219 116.787C218.221 132.291 233.435 154.5 236.077 157.362C243.057 161.683 264.523 228.363 264.523 228.363L267.923 235.399C267.923 235.399 317.945 294.775 341.731 320.711C342.652 321.715 343.313 322.929 343.657 324.248C344.002 325.567 344.018 326.951 343.705 328.277C343.393 329.604 342.761 330.834 341.864 331.859Z" fill="#FF931E"/>
<path d="M193.736 98.8689C195.69 99.0441 197.681 98.1006 199.258 97.0416C195.511 91.2487 192.259 86.0953 191.703 84.6224C191.584 84.2849 191.384 83.9816 191.121 83.7388C186.635 89.133 193.196 98.3179 193.736 98.8689Z" fill="#DEDEDE"/>
<path d="M159.927 154.132L152.225 156.269C148.415 157.325 144.474 155.089 143.423 151.274C142.372 147.459 144.608 143.509 148.418 142.453L156.12 140.317C159.93 139.26 163.871 141.496 164.922 145.311C165.973 149.127 163.737 153.076 159.927 154.132Z" fill="#FF931E"/>
<path d="M153.424 140.534L143.672 143.239C140.583 144.096 137.387 142.282 136.535 139.189C135.682 136.095 137.496 132.893 140.585 132.036L150.337 129.332C153.426 128.475 156.622 130.288 157.474 133.382C158.326 136.475 156.513 139.678 153.424 140.534Z" fill="#FF931E"/>
<path d="M143.625 129.995L137.863 131.593C135.528 132.241 133.112 130.87 132.468 128.532C131.824 126.193 133.195 123.773 135.53 123.125L141.292 121.527C143.627 120.88 146.042 122.25 146.686 124.589C147.331 126.927 145.96 129.348 143.625 129.995Z" fill="#FF931E"/>
<path d="M139.819 129.372L136.452 130.306C135.869 130.468 135.266 130.125 135.105 129.542L134.274 126.525C134.113 125.942 134.456 125.337 135.038 125.176L138.405 124.242C138.988 124.08 139.591 124.422 139.752 125.006L140.583 128.023C140.744 128.606 140.402 129.211 139.819 129.372Z" fill="#FFE3C3"/>
<path d="M146.24 139.693L142.468 140.739C141.22 141.085 139.928 140.352 139.583 139.102L139.08 137.275C138.735 136.024 139.468 134.729 140.717 134.383L144.489 133.337C145.738 132.991 147.03 133.724 147.374 134.974L147.878 136.801C148.222 138.052 147.489 139.347 146.24 139.693Z" fill="#FFE3C3"/>
<path d="M154.963 152.921L151.918 153.765C150.252 154.227 148.53 153.25 148.07 151.582L147.41 149.183C146.95 147.516 147.928 145.789 149.593 145.327L152.639 144.483C154.304 144.021 156.027 144.998 156.486 146.666L157.147 149.065C157.606 150.732 156.629 152.459 154.963 152.921Z" fill="#FFE3C3"/>
</g>
<path d="M37.8328 82.6956C37.5322 82.4103 37.1334 82.2523 36.7198 82.2548C36.3061 82.2573 35.9097 82.42 35.6133 82.7089L24.6778 93.3696C24.5229 93.5206 24.4001 93.7015 24.3168 93.9014C24.2334 94.1013 24.1913 94.3161 24.1929 94.5329C24.1945 94.7497 24.2398 94.964 24.326 95.1628C24.4123 95.3617 24.5377 95.5411 24.6948 95.6903L25.6181 96.5667C25.7752 96.7158 25.9607 96.8315 26.1635 96.907C26.3662 96.9824 26.582 97.016 26.7979 97.0056C27.0138 96.9953 27.2254 96.9413 27.4198 96.8469C27.6143 96.7524 27.7876 96.6195 27.9294 96.4561L37.9415 84.9192C38.2129 84.6064 38.3531 84.2005 38.3329 83.7861C38.3126 83.3717 38.1334 82.981 37.8328 82.6956Z" fill="#FF931E"/>
<path d="M38.7023 83.735C38.7609 83.3248 38.6589 82.9076 38.4177 82.5705C38.1765 82.2334 37.8147 82.0027 37.408 81.9264L22.4026 79.1127C22.19 79.0728 21.9717 79.0764 21.7607 79.1233C21.5497 79.1701 21.3504 79.2592 21.1748 79.3853C20.9991 79.5114 20.8508 79.6717 20.7387 79.8568C20.6266 80.0418 20.5531 80.2477 20.5225 80.4621L20.3426 81.7221C20.312 81.9364 20.325 82.1548 20.3808 82.3642C20.4366 82.5735 20.5341 82.7694 20.6673 82.9402C20.8006 83.1109 20.9669 83.2529 21.1562 83.3577C21.3456 83.4625 21.554 83.5278 21.7691 83.5498L36.9543 85.1036C37.3659 85.1457 37.7776 85.0269 38.1034 84.7718C38.4291 84.5167 38.6437 84.1453 38.7023 83.735Z" fill="#FF931E"/>
<path d="M24.4774 87.903C24.2947 87.7295 24.0522 87.6335 23.8008 87.635C23.5493 87.6365 23.3083 87.7354 23.1281 87.9111L16.4799 94.3922C16.3857 94.484 16.311 94.594 16.2604 94.7155C16.2097 94.8371 16.1841 94.9676 16.1851 95.0994C16.186 95.2312 16.2136 95.3615 16.266 95.4824C16.3185 95.6033 16.3947 95.7124 16.4902 95.8031L17.0516 96.3359C17.1471 96.4265 17.2598 96.4969 17.3831 96.5427C17.5064 96.5886 17.6376 96.609 17.7688 96.6027C17.9001 96.5965 18.0287 96.5636 18.1469 96.5062C18.2651 96.4488 18.3705 96.368 18.4567 96.2686L24.5435 89.2548C24.7085 89.0647 24.7938 88.8178 24.7815 88.5659C24.7691 88.314 24.6602 88.0765 24.4774 87.903Z" fill="#FF931E"/>
<path d="M25.0053 88.5353C25.0409 88.2859 24.9789 88.0322 24.8322 87.8273C24.6856 87.6224 24.4657 87.4821 24.2184 87.4357L15.0959 85.7251C14.9667 85.7009 14.8339 85.7031 14.7056 85.7315C14.5774 85.76 14.4562 85.8142 14.3494 85.8909C14.2427 85.9675 14.1525 86.065 14.0843 86.1775C14.0162 86.29 13.9715 86.4152 13.9529 86.5455L13.8435 87.3115C13.8249 87.4418 13.8328 87.5746 13.8667 87.7019C13.9007 87.8291 13.9599 87.9482 14.0409 88.052C14.1219 88.1558 14.223 88.2422 14.3381 88.3059C14.4533 88.3696 14.58 88.4093 14.7108 88.4227L23.9426 89.3673C24.1928 89.3929 24.4431 89.3206 24.6411 89.1656C24.8392 89.0105 24.9696 88.7847 25.0053 88.5353Z" fill="#FF931E"/>
</svg>
