<svg width="257" height="193" viewBox="0 0 257 193" fill="none" xmlns="http://www.w3.org/2000/svg">
<path d="M71.0706 178.393C71.0706 178.393 111.253 147.759 167.007 181.367C222.761 214.976 287.107 165.433 240.919 118.857C194.731 72.282 245.765 61.3877 214.133 32.2038C178.18 -0.965286 139.17 44.7682 109.748 26.9936C44.8129 -12.2352 4.47004 -4.47309 8.50004 32.2038C11.7149 61.4617 41.0845 86.4751 18.8629 110.469C-3.35874 134.462 33.4077 200.311 71.0706 178.393Z" fill="white" fill-opacity="0.16"/>
<mask id="mask0_4047_20026" style="mask-type:alpha" maskUnits="userSpaceOnUse" x="0" y="-3" width="257" height="196">
<path d="M71.0706 178.393C71.0706 178.393 111.253 147.759 167.007 181.367C222.761 214.976 287.107 165.433 240.919 118.857C194.731 72.282 245.765 61.3877 214.133 32.2038C178.18 -0.965272 139.17 44.7682 109.748 26.9936C44.8129 -12.2352 -6.37328 -11.4965 1.78168 21.0325C16.0966 78.1328 41.0845 86.4751 18.8629 110.469C-3.35874 134.462 33.4077 200.311 71.0706 178.393Z" fill="#DEE9FF"/>
</mask>
<g mask="url(#mask0_4047_20026)">
<path d="M169.201 91.6582C169.363 91.8638 170.842 94.5043 171.041 94.6742L181.338 111.146L185.981 156.204L215.584 177.836C215.584 177.836 220.629 182.064 225.227 182.446C226.257 182.805 229.377 184.017 231.108 185.896C231.666 186.503 236.061 199.449 242.875 217.755C243.216 218.671 243.885 219.426 244.752 219.872C245.618 220.317 246.619 220.421 247.558 220.163C256.014 217.835 274.953 212.709 283.962 209.255C284.517 209.042 285.012 208.697 285.404 208.248C285.795 207.799 286.071 207.26 286.208 206.679C286.344 206.098 286.337 205.492 286.187 204.915C286.036 204.337 285.748 203.806 285.346 203.366C274.958 192.009 253.114 166.01 253.114 166.01L251.629 162.929C251.629 162.929 242.256 133.732 239.208 131.84C238.054 130.586 231.41 120.861 228.789 114.073C228.194 113.085 225.439 108.976 223.13 105.428C221.494 102.891 220.074 100.635 219.831 99.9898C219.779 99.842 219.692 99.7092 219.577 99.6029C219.577 99.6029 219.584 99.6008 219.575 99.5955C218.475 98.4459 214.833 98.7147 214.666 103.09C214.48 107.915 218.821 117.915 219.691 118.186C220.133 119.25 221.396 124.98 223.851 129.83C224.063 130.563 224.382 132.458 222.32 132.003C220.255 131.541 180.063 92.1984 180.063 92.1984L175.217 86.0042C174.343 85.4392 173.306 85.1875 172.272 85.29C171.048 85.4344 169.927 86.0499 169.144 87.0072C167.46 88.978 168.568 90.8651 169.201 91.6582Z" fill="#8F9AA8"/>
<path d="M220.718 106.227C221.571 106.303 222.441 105.89 223.129 105.426C221.494 102.89 220.073 100.633 219.831 99.9885C219.778 99.8407 219.691 99.7079 219.576 99.6016C217.617 101.964 220.482 105.985 220.718 106.227Z" fill="#DEDEDE"/>
<path d="M171.932 101.133L206.884 90.9191C209.322 90.2068 211.872 91.6151 212.581 94.0645L233.916 167.804C234.625 170.254 233.223 172.817 230.786 173.529L195.834 183.743C193.396 184.455 190.846 183.047 190.137 180.598L168.802 106.858C168.093 104.408 169.495 101.845 171.932 101.133Z" fill="#8F9AA8"/>
<path d="M173.774 102.977L206.312 93.4687C208.14 92.9345 210.053 93.9907 210.584 95.8278L231.29 167.392C231.822 169.229 230.771 171.152 228.943 171.686L196.405 181.194C194.577 181.728 192.664 180.672 192.133 178.835L171.427 107.271C170.895 105.434 171.946 103.511 173.774 102.977Z" fill="#DEDEDE"/>
<path d="M168.131 112.089L174.001 112.028C176.905 111.998 179.283 114.339 179.312 117.257C179.342 120.175 177.012 122.565 174.109 122.595L168.239 122.655C165.335 122.685 162.957 120.344 162.928 117.426C162.898 114.508 165.228 112.119 168.131 112.089Z" fill="#8F9AA8"/>
<path d="M170.193 123.005L177.625 122.929C179.98 122.904 181.908 124.803 181.932 127.169C181.956 129.535 180.067 131.473 177.712 131.497L170.28 131.574C167.926 131.598 165.997 129.7 165.973 127.333C165.949 124.967 167.839 123.03 170.193 123.005Z" fill="#8F9AA8"/>
<path d="M175.17 132.369L179.561 132.324C181.341 132.305 182.799 133.74 182.817 135.529C182.835 137.317 181.407 138.782 179.627 138.8L175.236 138.846C173.456 138.864 171.999 137.429 171.981 135.64C171.962 133.852 173.39 132.387 175.17 132.369Z" fill="#8F9AA8"/>
<path d="M177.756 133.535L180.322 133.508C180.766 133.504 181.13 133.862 181.134 134.308L181.158 136.615C181.162 137.061 180.806 137.427 180.362 137.431L177.796 137.458C177.352 137.462 176.988 137.104 176.983 136.658L176.96 134.351C176.956 133.905 177.312 133.539 177.756 133.535Z" fill="#DEDEDE"/>
<path d="M175.136 124.968L178.011 124.938C178.962 124.928 179.742 125.696 179.752 126.652L179.766 128.049C179.775 129.006 179.012 129.789 178.06 129.799L175.185 129.829C174.234 129.838 173.454 129.071 173.444 128.115L173.43 126.717C173.421 125.761 174.184 124.978 175.136 124.968Z" fill="#DEDEDE"/>
<path d="M171.429 113.894L173.75 113.87C175.019 113.857 176.058 114.881 176.071 116.156L176.09 117.99C176.103 119.265 175.084 120.31 173.815 120.323L171.494 120.347C170.225 120.36 169.186 119.337 169.173 118.061L169.154 116.227C169.141 114.952 170.159 113.907 171.429 113.894Z" fill="#DEDEDE"/>
<path d="M105.047 86.3093C104.885 86.5152 104.703 86.7047 104.505 86.8751L90.3022 99.2275L79.7011 131.586L50.1481 153.288C50.1481 153.288 45.1126 157.528 40.5162 157.921C39.4873 158.282 36.3699 159.501 34.6433 161.385C34.0866 161.992 29.7211 174.949 22.9503 193.271C22.6114 194.188 21.9437 194.945 21.0783 195.393C20.2128 195.84 19.2121 195.946 18.2727 195.691C9.81183 193.383 -9.13929 188.301 -18.1559 184.868C-18.7116 184.657 -19.2074 184.313 -19.5999 183.865C-19.9924 183.417 -20.2697 182.879 -20.4075 182.298C-20.5454 181.717 -20.5396 181.112 -20.3907 180.534C-20.2418 179.956 -19.9542 179.423 -19.5532 178.983C-9.19226 167.601 12.591 141.55 12.591 141.55L14.0689 138.466C14.0689 138.466 23.3747 109.246 26.4185 107.347C27.5696 106.091 34.1907 96.3502 36.7959 89.555C37.388 88.5662 40.1343 84.4503 42.4346 80.8967C44.0645 78.3564 45.4794 76.0965 45.7207 75.4511C45.7726 75.3031 45.8596 75.1701 45.9742 75.0635C45.9742 75.0635 45.9669 75.0615 45.9762 75.0562C47.0739 73.9039 50.716 74.1642 50.8927 78.5386C51.0902 83.3641 46.772 93.3744 45.9029 93.6472C45.4632 94.7118 44.2139 100.446 41.7699 105.301C41.5594 106.034 41.245 107.93 43.3064 107.47C45.3699 107.003 93.0986 84.4065 93.0986 84.4065L99.018 80.6694C99.89 80.1023 100.927 79.8482 101.961 79.9483C103.186 80.0898 104.308 80.7026 105.092 81.658C106.781 83.625 105.678 85.5146 105.047 86.3093Z" fill="#FF931E"/>
<path d="M44.8477 81.6906C43.9948 81.7694 43.1242 81.3583 42.4348 80.8962C44.0648 78.3559 45.4797 76.096 45.7209 75.4505C45.7729 75.3026 45.8599 75.1696 45.9744 75.063C47.9387 77.4203 45.0831 81.4489 44.8477 81.6906Z" fill="#FFE3C3"/>
<path d="M93.6204 76.4818L58.6448 66.3505C56.2058 65.644 53.6587 67.0583 52.9557 69.5094L31.7916 143.3C31.0886 145.751 32.4959 148.311 34.9349 149.017L69.9104 159.148C72.3494 159.855 74.8965 158.441 75.5995 155.989L96.7637 82.1992C97.4667 79.7481 96.0594 77.1883 93.6204 76.4818Z" fill="url(#paint0_linear_4047_20026)"/>
<path d="M91.783 78.3298L59.2235 68.8984C57.3943 68.3685 55.4839 69.4292 54.9567 71.2676L34.4169 142.881C33.8896 144.719 34.9451 146.639 36.7744 147.169L69.3338 156.6C71.163 157.13 73.0734 156.07 73.6006 154.231L94.1404 82.6179C94.6677 80.7795 93.6122 78.8597 91.783 78.3298Z" fill="#FFE3C3"/>
<path d="M93.4481 102.472L87.578 102.425C84.6744 102.402 82.302 104.749 82.2791 107.667C82.2562 110.585 84.5914 112.969 87.495 112.992L93.3652 113.039C96.2688 113.062 98.6412 110.715 98.6641 107.797C98.687 104.879 96.3517 102.495 93.4481 102.472Z" fill="#FF931E"/>
<path d="M91.4132 113.393L83.9809 113.334C81.6263 113.315 79.7025 115.218 79.6839 117.584C79.6653 119.951 81.559 121.884 83.9136 121.903L91.3459 121.962C93.7005 121.98 95.6243 120.077 95.6429 117.711C95.6615 115.345 93.7678 113.411 91.4132 113.393Z" fill="#FF931E"/>
<path d="M86.4577 122.768L82.0663 122.734C80.2866 122.719 78.8325 124.158 78.8184 125.947C78.8044 127.735 80.2358 129.196 82.0155 129.211L86.4068 129.245C88.1865 129.259 89.6407 127.821 89.6547 126.032C89.6688 124.244 88.2374 122.782 86.4577 122.768Z" fill="#FF931E"/>
<path d="M83.8734 123.94L81.3077 123.92C80.8635 123.916 80.5006 124.275 80.4971 124.722L80.479 127.029C80.4755 127.475 80.8327 127.84 81.2769 127.843L83.8426 127.864C84.2868 127.867 84.6497 127.508 84.6532 127.062L84.6713 124.755C84.6748 124.309 84.3176 123.944 83.8734 123.94Z" fill="#FFE3C3"/>
<path d="M86.4753 115.367L83.6009 115.344C82.6491 115.337 81.8714 116.106 81.8638 117.063L81.8529 118.46C81.8454 119.416 82.6109 120.198 83.5627 120.205L86.4372 120.228C87.389 120.236 88.1667 119.466 88.1742 118.51L88.1852 117.113C88.1927 116.156 87.4272 115.375 86.4753 115.367Z" fill="#FFE3C3"/>
<path d="M90.158 104.285L87.837 104.266C86.5679 104.256 85.5309 105.282 85.5209 106.557L85.5065 108.392C85.4965 109.667 86.5172 110.709 87.7863 110.719L90.1073 110.738C91.3764 110.748 92.4133 109.722 92.4233 108.447L92.4377 106.612C92.4477 105.337 91.427 104.295 90.158 104.285Z" fill="#FFE3C3"/>
</g>
<path d="M123.636 22.0901L105.526 48.8C105.526 48.8 120.672 45.1972 139.489 51.833C149.725 55.4541 159.151 61.0567 167.232 68.3241L183.712 38.7094C183.712 38.7094 154.639 15.0831 123.636 22.0901Z" fill="#FF931E"/>
<path d="M109.692 46.0012L124.027 23.8787L124.09 23.8465L124.152 23.8142C128.233 22.93 132.408 22.5722 136.577 22.7495C141.33 22.9829 146.042 23.7452 150.626 25.0224C155.696 26.4133 160.632 28.2538 165.376 30.5222C170.485 32.9146 175.378 35.7457 180.001 38.9841L180.195 39.1214L180.076 39.3302L179.221 40.9041L166.522 63.8225L166.367 64.0947L166.141 63.8947C159.952 58.5293 152.975 54.1543 145.455 50.9231C139.51 48.4163 133.254 46.7289 126.855 45.9069C122.673 45.3536 118.444 45.2174 114.233 45.5003C112.753 45.6083 111.614 45.7212 110.857 45.852L109.997 45.9795L109.701 46.0192L109.987 45.9391L110.847 45.7665C111.613 45.6311 112.738 45.4688 114.213 45.3294C118.448 44.9677 122.707 45.0431 126.924 45.5545C133.361 46.3344 139.66 47.9975 145.644 50.4973C153.225 53.7205 160.261 58.1046 166.501 63.4938L166.12 63.566L178.801 40.6343L179.656 39.0604L179.727 39.3975C175.133 36.1795 170.273 33.3618 165.2 30.975C160.487 28.7132 155.583 26.8754 150.545 25.483C145.985 24.2085 141.297 23.4415 136.567 23.1958C132.434 22.9987 128.29 23.3288 124.236 24.1781L124.361 24.1135L109.692 46.0012Z" fill="white"/>
<path d="M155.035 33.0249C156.354 37.2444 152.659 42.1191 146.771 43.9159C140.883 45.7126 135.022 43.7602 133.703 39.5407C132.383 35.3212 136.079 30.4465 141.966 28.6497C147.854 26.853 153.688 28.8192 155.035 33.0249Z" fill="#FAFAFA"/>
<path d="M113.784 39.7671C113.784 39.7671 119.15 39.7339 116.698 45.0529L109.204 45.8462L113.784 39.7671Z" fill="#FAFAFA"/>
<path d="M121.909 27.4114C121.909 27.4114 128.238 29.6413 129.852 23.0816L124.186 23.9608L121.909 27.4114Z" fill="#FAFAFA"/>
<path d="M160.843 59.3121C160.843 59.3121 164.084 51.9776 170.4 56.367L166.342 63.6934L160.843 59.3121Z" fill="#FAFAFA"/>
<path d="M174.549 35.7246C174.549 35.7246 171.836 40.2967 177.183 44.0684L179.875 39.2125L174.549 35.7246Z" fill="#FAFAFA"/>
<path d="M127.589 24.2616C127.905 24.8795 127.268 25.8422 126.241 26.3727C125.214 26.9032 124.074 26.8583 123.759 26.2405C123.443 25.6226 124.08 24.6598 125.107 24.1294C126.134 23.5989 127.269 23.6348 127.589 24.2616Z" fill="#FF931E"/>
<path d="M116.03 41.9798C116.314 42.3205 116.485 42.7416 116.52 43.1849C116.555 43.6282 116.452 44.0718 116.225 44.4543C115.998 44.8369 115.659 45.1395 115.254 45.3204C114.849 45.5013 114.398 45.5515 113.964 45.464C113.53 45.3766 113.134 45.1558 112.831 44.8323C112.528 44.5087 112.333 44.0984 112.272 43.6579C112.212 43.2175 112.289 42.7687 112.493 42.3736C112.698 41.9786 113.019 41.6567 113.413 41.4526C113.833 41.1812 114.341 41.0845 114.829 41.1829C115.318 41.2814 115.749 41.5672 116.03 41.9798Z" fill="#FF931E"/>
<path d="M163.844 45.2307C162.935 46.391 161.059 46.4091 159.719 45.2444C159.073 44.7896 158.626 44.1026 158.471 43.3252C158.316 42.5479 158.464 41.7396 158.884 41.0674C159.793 39.9072 161.669 39.889 163.014 41.0627C163.659 41.5164 164.104 42.2022 164.259 42.9781C164.414 43.754 164.265 44.5605 163.844 45.2307Z" fill="#FAFAFA"/>
<path d="M210.774 81.4498C210.945 81.1625 210.999 80.8198 210.925 80.4935C210.85 80.1672 210.653 79.8825 210.374 79.6989L200.096 72.9252C199.951 72.8292 199.787 72.7638 199.616 72.733C199.445 72.7021 199.269 72.7064 199.099 72.7456C198.93 72.7847 198.769 72.858 198.629 72.9609C198.488 73.0638 198.369 73.1943 198.28 73.3445L197.755 74.227C197.666 74.3772 197.607 74.544 197.584 74.7173C197.56 74.8907 197.572 75.067 197.618 75.2358C197.664 75.4045 197.743 75.5621 197.852 75.6992C197.96 75.8363 198.094 75.95 198.247 76.0334L209.05 81.9246C209.343 82.0842 209.686 82.124 210.007 82.0355C210.329 81.9471 210.603 81.7372 210.774 81.4498Z" fill="#FF931E"/>
<path d="M210.115 82.313C210.447 82.2875 210.756 82.1339 210.979 81.8844C211.201 81.6349 211.318 81.3087 211.307 80.9742L210.88 68.6297C210.874 68.4548 210.833 68.283 210.759 68.1246C210.685 67.9661 210.58 67.8243 210.451 67.7076C210.321 67.591 210.169 67.5019 210.004 67.4458C209.839 67.3896 209.665 67.3675 209.491 67.3809L208.471 67.4594C208.297 67.4727 208.128 67.5212 207.974 67.6019C207.819 67.6826 207.683 67.7939 207.572 67.929C207.462 68.0642 207.379 68.2204 207.33 68.3883C207.281 68.5561 207.267 68.7323 207.287 68.906L208.734 81.1719C208.773 81.5044 208.939 81.8087 209.196 82.0214C209.453 82.2341 209.783 82.3385 210.115 82.313Z" fill="#FF931E"/>
<path d="M204.356 71.8341C204.46 71.6594 204.493 71.4511 204.447 71.2527C204.402 71.0544 204.282 70.8813 204.113 70.7697L197.864 66.6516C197.776 66.5932 197.677 66.5535 197.572 66.5347C197.468 66.516 197.361 66.5186 197.258 66.5424C197.155 66.5662 197.058 66.6107 196.972 66.6733C196.887 66.7359 196.814 66.8152 196.76 66.9065L196.441 67.443C196.387 67.5343 196.351 67.6357 196.337 67.7411C196.323 67.8465 196.33 67.9537 196.358 68.0563C196.386 68.1589 196.434 68.2547 196.5 68.338C196.566 68.4214 196.647 68.4905 196.74 68.5412L203.308 72.1227C203.486 72.2198 203.694 72.244 203.89 72.1902C204.085 72.1364 204.252 72.0088 204.356 71.8341Z" fill="#FF931E"/>
<path d="M203.955 72.3591C204.157 72.3435 204.345 72.2502 204.48 72.0985C204.615 71.9468 204.686 71.7485 204.679 71.5451L204.42 64.0403C204.416 63.934 204.391 63.8295 204.346 63.7332C204.302 63.6369 204.238 63.5507 204.159 63.4797C204.08 63.4088 203.988 63.3547 203.887 63.3205C203.787 63.2864 203.681 63.273 203.576 63.2811L202.955 63.3288C202.85 63.3369 202.747 63.3664 202.653 63.4155C202.559 63.4645 202.476 63.5322 202.409 63.6143C202.342 63.6965 202.292 63.7915 202.262 63.8935C202.232 63.9956 202.223 64.1027 202.236 64.2083L203.115 71.6653C203.139 71.8674 203.24 72.0525 203.396 72.1818C203.553 72.3111 203.753 72.3746 203.955 72.3591Z" fill="#FF931E"/>
<path d="M91.2504 47.3232C90.9034 46.9926 90.4433 46.8095 89.9663 46.8119C89.4892 46.8144 89.0322 47.0024 88.6906 47.3365L76.0884 59.6643C75.9099 59.8389 75.7685 60.0482 75.6725 60.2795C75.5766 60.5108 75.5282 60.7593 75.5303 61.0102C75.5323 61.2611 75.5847 61.5092 75.6844 61.7394C75.7841 61.9697 75.9289 62.1775 76.1103 62.3502L77.176 63.3654C77.3573 63.5381 77.5713 63.6723 77.8052 63.7598C78.0391 63.8473 78.2881 63.8864 78.5371 63.8746C78.7861 63.8629 79.03 63.8006 79.2541 63.6915C79.4783 63.5823 79.6781 63.4287 79.8415 63.2397L91.3779 49.8968C91.6906 49.5351 91.8519 49.0653 91.8282 48.5857C91.8044 48.1061 91.5974 47.6538 91.2504 47.3232Z" fill="#FF931E"/>
<path d="M92.2614 48.533C92.3286 48.0587 92.2106 47.5762 91.932 47.1863C91.6535 46.7964 91.236 46.5292 90.7668 46.4406L73.4563 43.1731C73.2111 43.1268 72.9592 43.1308 72.7159 43.1848C72.4726 43.2387 72.2428 43.3416 72.0403 43.4872C71.8379 43.6328 71.6669 43.818 71.5378 44.0319C71.4087 44.2457 71.324 44.4837 71.2889 44.7315L71.0827 46.1881C71.0476 46.4359 71.0628 46.6884 71.1273 46.9305C71.1919 47.1726 71.3045 47.3992 71.4584 47.5967C71.6122 47.7942 71.8042 47.9586 72.0227 48.0799C72.2412 48.2012 72.4817 48.277 72.7298 48.3026L90.2465 50.1136C90.7213 50.1627 91.1961 50.0257 91.5716 49.7311C91.9471 49.4365 92.1942 49.0072 92.2614 48.533Z" fill="#FF931E"/>
<path d="M75.8825 53.3461C75.6715 53.1452 75.3918 53.0338 75.1018 53.0353C74.8118 53.0368 74.5339 53.1511 74.3262 53.3542L66.6648 60.8489C66.5562 60.9551 66.4702 61.0823 66.4119 61.2229C66.3536 61.3635 66.3242 61.5146 66.3254 61.6671C66.3267 61.8197 66.3585 61.9705 66.4191 62.1105C66.4797 62.2505 66.5678 62.3768 66.678 62.4818L67.3259 63.099C67.4362 63.204 67.5663 63.2855 67.7085 63.3387C67.8507 63.3919 68.002 63.4157 68.1534 63.4085C68.3048 63.4014 68.4531 63.3635 68.5893 63.2972C68.7256 63.2309 68.8471 63.1374 68.9464 63.0225L75.96 54.9107C76.1501 54.6909 76.2482 54.4053 76.2337 54.1137C76.2193 53.8221 76.0934 53.5471 75.8825 53.3461Z" fill="#FF931E"/>
<path d="M76.4965 54.0813C76.5373 53.7929 76.4656 53.4996 76.2962 53.2625C76.1269 53.0255 75.8731 52.8631 75.5878 52.8092L65.0639 50.8227C64.9148 50.7946 64.7617 50.797 64.6138 50.8298C64.4659 50.8626 64.3262 50.9252 64.2031 51.0137C64.08 51.1022 63.9761 51.2148 63.8976 51.3448C63.8191 51.4748 63.7676 51.6195 63.7463 51.7702L63.6209 52.6557C63.5996 52.8063 63.6088 52.9599 63.648 53.107C63.6873 53.2542 63.7557 53.392 63.8493 53.5121C63.9428 53.6321 64.0595 53.7321 64.1923 53.8058C64.3252 53.8796 64.4714 53.9256 64.6223 53.9412L75.2715 55.0422C75.5602 55.0721 75.8488 54.9887 76.0771 54.8096C76.3054 54.6306 76.4556 54.3696 76.4965 54.0813Z" fill="#FF931E"/>
<defs>
<linearGradient id="paint0_linear_4047_20026" x1="75.3705" y1="74.0733" x2="52.212" y2="154.022" gradientUnits="userSpaceOnUse">
<stop stop-color="#FFC875"/>
<stop offset="0.977659" stop-color="#FF931E"/>
</linearGradient>
</defs>
</svg>
