<svg width="44" height="43" viewBox="0 0 44 43" fill="none" xmlns="http://www.w3.org/2000/svg">
<path d="M38.7443 4.75795C32.382 -1.58598 22.0646 -1.58598 15.7452 4.75795C11.2958 9.16645 9.96316 15.5104 11.6827 21.1017L1.58029 31.2089C0.870969 31.9401 0.376595 33.3809 0.527057 34.4132L1.17189 39.1012C1.40833 40.6496 2.84847 42.1119 4.39607 42.327L9.08188 42.9721C10.1136 43.1226 11.5538 42.6495 12.2846 41.8969L14.0471 40.1335C14.477 39.7249 14.477 39.0367 14.0471 38.6066L9.87718 34.4347C9.25384 33.811 9.25384 32.7788 9.87718 32.1552C10.5005 31.5315 11.5323 31.5315 12.1556 32.1552L16.347 36.3486C16.7554 36.7572 17.4433 36.7572 17.8516 36.3486L22.4085 31.8111C27.9756 33.553 34.3165 32.1982 38.7443 27.7897C45.0852 21.4457 45.0852 11.1019 38.7443 4.75795ZM27.3737 21.4887C24.4075 21.4887 22.0001 19.0802 22.0001 16.1125C22.0001 13.1449 24.4075 10.7363 27.3737 10.7363C30.34 10.7363 32.7474 13.1449 32.7474 16.1125C32.7474 19.0802 30.34 21.4887 27.3737 21.4887Z" fill="url(#paint0_linear_6913_12539)"/>
<defs>
<linearGradient id="paint0_linear_6913_12539" x1="22" y1="1.38214" x2="22" y2="43" gradientUnits="userSpaceOnUse">
<stop stop-color="#FFC875"/>
<stop offset="0.977659" stop-color="#FF931E"/>
</linearGradient>
</defs>
</svg>
