<svg width="26" height="26" viewBox="0 0 26 26" fill="none" xmlns="http://www.w3.org/2000/svg">
<g id="Frame 48095706">
<g id="Group 26867">
<path id="Path 37740" d="M22.0002 11.3636C21.8432 10.5484 21.5437 9.77733 21.1194 9.09632C20.6089 8.25425 19.8685 7.62701 19.0128 7.31166C18.3916 7.1021 17.7463 6.99915 17.0984 7.0062H11.7632V8.63729C12.1453 8.95258 12.5044 9.30249 12.8369 9.68361C13.4159 10.3161 13.8843 11.0677 14.2171 11.8986L14.2631 12.026V9.44651H16.6494C17.8253 9.44651 18.6111 9.82903 19.0069 10.5941C19.4534 11.6163 19.658 12.7531 19.6005 13.8925C19.6197 14.8065 19.486 15.7162 19.2065 16.5733C19.0374 17.1867 18.6956 17.7198 18.2338 18.0905C17.772 18.4612 17.2158 18.6489 16.6509 18.6247H14.2764V14.5068C14.1294 14.8407 13.9345 15.1444 13.6999 15.4055L12.0125 17.3243L11.7669 17.0467V21.0692H17.0999C17.9373 21.1183 18.7699 20.8977 19.502 20.4329C20.2342 19.9681 20.8362 19.2779 21.2389 18.4415C21.9352 16.9862 22.2776 15.346 22.231 13.69C22.2276 12.9074 22.1502 12.1275 22.0002 11.3636Z" fill="#384254"/>
<path id="Path 37741" d="M16.8248 11.5911C16.6444 10.8337 16.3652 10.1112 15.9966 9.4478C15.592 8.71565 15.1139 8.03944 14.572 7.43278C14.4433 7.28652 14.3083 7.14335 14.1668 7.00328C13.7866 6.62625 13.382 6.28214 12.9566 5.97383C12.3373 5.5241 11.6453 5.21945 10.9212 5.0777C10.0337 4.89067 9.11666 5.0435 8.31367 5.51226C7.74349 5.86274 7.22273 6.30844 6.76877 6.83452L3 11.1228L11.7433 21.0654L15.5136 16.7763C16.1398 16.1405 16.5952 15.3163 16.8272 14.3989C17.0592 13.4814 17.0583 12.508 16.8248 11.5911ZM14.2722 14.5073C14.1251 14.8411 13.9303 15.1448 13.6956 15.406L12.0082 17.3239L11.7626 17.0463L6.29906 10.8317L7.98644 8.91282C8.81751 7.96719 9.60951 7.60689 10.3624 7.8319C10.8689 8.00074 11.3436 8.27451 11.7626 8.63943C12.1448 8.95472 12.5038 9.30463 12.8363 9.68576C13.4154 10.3183 13.8837 11.0699 14.2165 11.9008L14.2625 12.0282C14.4218 12.416 14.5051 12.8385 14.5068 13.2665C14.5085 13.6946 14.4284 14.1179 14.2722 14.5073Z" fill="#8F9AA8"/>
</g>
</g>
</svg>
