<svg width="32" height="32" viewBox="0 0 32 32" fill="none" xmlns="http://www.w3.org/2000/svg">
<path d="M2.66663 11.3333H18" stroke="#FF931E" stroke-width="1.5" stroke-miterlimit="10" stroke-linecap="round" stroke-linejoin="round"/>
<path d="M8 22H10.6667" stroke="#FF931E" stroke-width="1.5" stroke-miterlimit="10" stroke-linecap="round" stroke-linejoin="round"/>
<path d="M14 22H19.3333" stroke="#FF931E" stroke-width="1.5" stroke-miterlimit="10" stroke-linecap="round" stroke-linejoin="round"/>
<path d="M29.3333 17.3733V21.48C29.3333 26.16 28.1466 27.3333 23.4133 27.3333H8.58663C3.85329 27.3333 2.66663 26.16 2.66663 21.48V10.52C2.66663 5.84 3.85329 4.66667 8.58663 4.66667H16.6666" stroke="#FF931E" stroke-width="1.5" stroke-linecap="round" stroke-linejoin="round"/>
<path d="M25.3333 9.33334C26.0697 9.33334 26.6667 8.73638 26.6667 8.00001C26.6667 7.26363 26.0697 6.66667 25.3333 6.66667C24.597 6.66667 24 7.26363 24 8.00001C24 8.73638 24.597 9.33334 25.3333 9.33334Z" stroke="#FF931E" stroke-width="1.5" stroke-miterlimit="10" stroke-linecap="round" stroke-linejoin="round"/>
<path d="M20 8.49724V7.50277C20 6.91513 20.4531 6.4292 21.0128 6.4292C21.9777 6.4292 22.3721 5.70595 21.8871 4.81884C21.6099 4.31031 21.7751 3.64922 22.2602 3.3554L23.1824 2.79601C23.6035 2.53044 24.1473 2.68865 24.3978 3.13503L24.4564 3.24239C24.9362 4.1295 25.7251 4.1295 26.2102 3.24239L26.2689 3.13503C26.5194 2.68865 27.0631 2.53044 27.4843 2.79601L28.4065 3.3554C28.8916 3.64922 29.0568 4.31031 28.7796 4.81884C28.2945 5.70595 28.689 6.4292 29.6538 6.4292C30.2082 6.4292 30.6667 6.90948 30.6667 7.50277V8.49724C30.6667 9.08488 30.2136 9.57081 29.6538 9.57081C28.689 9.57081 28.2945 10.2941 28.7796 11.1812C29.0568 11.6953 28.8916 12.3508 28.4065 12.6446L27.4843 13.204C27.0631 13.4696 26.5194 13.3114 26.2689 12.865L26.2102 12.7576C25.7305 11.8705 24.9415 11.8705 24.4564 12.7576L24.3978 12.865C24.1473 13.3114 23.6035 13.4696 23.1824 13.204L22.2602 12.6446C21.7751 12.3508 21.6099 11.6897 21.8871 11.1812C22.3721 10.2941 21.9777 9.57081 21.0128 9.57081C20.4531 9.57081 20 9.08488 20 8.49724Z" stroke="#FF931E" stroke-width="1.5" stroke-miterlimit="10" stroke-linecap="round" stroke-linejoin="round"/>
</svg>
