<svg width="94" height="101" viewBox="0 0 94 101" fill="none" xmlns="http://www.w3.org/2000/svg">
<rect x="0.5" width="93" height="101" rx="12" fill="url(#paint0_linear_6913_12528)"/>
<path d="M65.3197 49.2396V40.4596C65.3197 38.8196 64.0797 36.9596 62.5397 36.3396L51.3997 31.7796C48.8997 30.7596 46.0797 30.7596 43.5797 31.7796L32.4397 36.3396C30.9197 36.9596 29.6797 38.8196 29.6797 40.4596V49.2396C29.6797 59.0196 36.7797 68.1796 46.4797 70.8596C47.1397 71.0396 47.8597 71.0396 48.5197 70.8596C58.2197 68.1796 65.3197 59.0196 65.3197 49.2396ZM48.9997 52.7396V57.9996C48.9997 58.8196 48.3197 59.4996 47.4997 59.4996C46.6797 59.4996 45.9997 58.8196 45.9997 57.9996V52.7396C43.9797 52.0996 42.4997 50.2196 42.4997 47.9996C42.4997 45.2396 44.7397 42.9996 47.4997 42.9996C50.2597 42.9996 52.4997 45.2396 52.4997 47.9996C52.4997 50.2396 51.0197 52.0996 48.9997 52.7396Z" fill="white"/>
<path d="M0.5 12C0.5 5.37258 5.87258 0 12.5 0H81.5C88.1274 0 93.5 5.37258 93.5 12V15H0.5V12Z" fill="#FF931E"/>
<circle cx="81.7615" cy="7.68139" r="3.42553" fill="white"/>
<circle cx="70.3396" cy="7.68139" r="3.42553" fill="white"/>
<circle cx="58.9255" cy="7.68139" r="3.42553" fill="white"/>
<defs>
<linearGradient id="paint0_linear_6913_12528" x1="47" y1="3.24641" x2="47" y2="101" gradientUnits="userSpaceOnUse">
<stop stop-color="#FFC875"/>
<stop offset="0.977659" stop-color="#FF931E"/>
</linearGradient>
</defs>
</svg>
