<svg width="24" height="24" viewBox="0 0 24 24" fill="none" xmlns="http://www.w3.org/2000/svg">
<path d="M3 5.98047C6.33 5.65047 9.68 5.48047 13.02 5.48047C15 5.48047 16.98 5.58047 18.96 5.78047L21 5.98047" stroke="#FF5656" stroke-width="1.5" stroke-linecap="round" stroke-linejoin="round"/>
<path d="M15.5 4.97L15.28 3.66C15.12 2.71 15 2 13.31 2H10.69C9 2 8.87 2.75 8.72 3.67L8.5 4.97" stroke="#FF5656" stroke-width="1.5" stroke-linecap="round" stroke-linejoin="round"/>
<path d="M5.1501 9.13965L5.8001 19.2096C5.9101 20.7796 6.0001 21.9996 8.7901 21.9996H15.2101C18.0001 21.9996 18.0901 20.7796 18.2001 19.2096L18.8501 9.13965" stroke="#FF5656" stroke-width="1.5" stroke-linecap="round" stroke-linejoin="round"/>
<path d="M13.6699 16.5H10.3399" stroke="#FF5656" stroke-width="1.5" stroke-linecap="round" stroke-linejoin="round"/>
<path d="M14.5 12.5H9.5" stroke="#FF5656" stroke-width="1.5" stroke-linecap="round" stroke-linejoin="round"/>
</svg>
