<svg width="32" height="32" viewBox="0 0 32 32" fill="none" xmlns="http://www.w3.org/2000/svg">
<path d="M23.9999 9.547C23.9199 9.53366 23.8266 9.53366 23.7466 9.547C21.9066 9.48033 20.4399 7.97366 20.4399 6.10699C20.4399 4.20033 21.9733 2.66699 23.8799 2.66699C25.7866 2.66699 27.3199 4.21366 27.3199 6.10699C27.3066 7.97366 25.8399 9.48033 23.9999 9.547Z" stroke="#FF931E" stroke-width="1.5" stroke-linecap="round" stroke-linejoin="round"/>
<path d="M22.6266 19.2539C24.4532 19.5605 26.4666 19.2405 27.8799 18.2939C29.7599 17.0405 29.7599 14.9872 27.8799 13.7339C26.4532 12.7872 24.4132 12.4672 22.5865 12.7872" stroke="#FF931E" stroke-width="1.5" stroke-linecap="round" stroke-linejoin="round"/>
<path d="M7.96002 9.547C8.04002 9.53366 8.13335 9.53366 8.21335 9.547C10.0533 9.48033 11.52 7.97366 11.52 6.10699C11.52 4.20033 9.98668 2.66699 8.08002 2.66699C6.17335 2.66699 4.64001 4.21366 4.64001 6.10699C4.65335 7.97366 6.12002 9.48033 7.96002 9.547Z" stroke="#FF931E" stroke-width="1.5" stroke-linecap="round" stroke-linejoin="round"/>
<path d="M9.33338 19.2539C7.50671 19.5605 5.49338 19.2405 4.08004 18.2939C2.20004 17.0405 2.20004 14.9872 4.08004 13.7339C5.50671 12.7872 7.54671 12.4672 9.37337 12.7872" stroke="#FF931E" stroke-width="1.5" stroke-linecap="round" stroke-linejoin="round"/>
<path d="M15.9999 19.507C15.9199 19.4936 15.8266 19.4936 15.7466 19.507C13.9066 19.4403 12.4399 17.9336 12.4399 16.067C12.4399 14.1603 13.9733 12.627 15.8799 12.627C17.7866 12.627 19.3199 14.1736 19.3199 16.067C19.3066 17.9336 17.8399 19.4536 15.9999 19.507Z" stroke="#FF931E" stroke-width="1.5" stroke-linecap="round" stroke-linejoin="round"/>
<path d="M12.12 23.7065C10.24 24.9598 10.24 27.0131 12.12 28.2665C14.2533 29.6931 17.7466 29.6931 19.88 28.2665C21.76 27.0131 21.76 24.9598 19.88 23.7065C17.76 22.2932 14.2533 22.2932 12.12 23.7065Z" stroke="#FF931E" stroke-width="1.5" stroke-linecap="round" stroke-linejoin="round"/>
</svg>
