<svg width="25" height="24" viewBox="0 0 25 24" fill="none" xmlns="http://www.w3.org/2000/svg">
<path d="M21.5169 7.99175C21.9148 8.55833 21.4405 9.25 20.7482 9.25H3.5C2.94772 9.25 2.5 8.80228 2.5 8.25V6.42C2.5 3.98 4.48 2 6.92 2H9.24C10.87 2 11.38 2.53 12.03 3.4L13.43 5.26C13.74 5.67 13.78 5.72 14.36 5.72H17.15C18.9546 5.72 20.5516 6.61709 21.5169 7.99175Z" fill="#8F9AA8"/>
<path d="M22.4834 11.7463C22.4815 11.1953 22.0343 10.7496 21.4834 10.7497L3.49998 10.75C2.94771 10.75 2.5 11.1977 2.5 11.75V16.65C2.5 19.6 4.9 22 7.85 22H17.15C20.1 22 22.5 19.6 22.5 16.65L22.4834 11.7463ZM15 16.75H13.31V18.5C13.31 18.91 12.97 19.25 12.56 19.25C12.14 19.25 11.81 18.91 11.81 18.5V16.75H10C9.59 16.75 9.25 16.41 9.25 16C9.25 15.59 9.59 15.25 10 15.25H11.81V13.5C11.81 13.09 12.14 12.75 12.56 12.75C12.97 12.75 13.31 13.09 13.31 13.5V15.25H15C15.41 15.25 15.75 15.59 15.75 16C15.75 16.41 15.41 16.75 15 16.75Z" fill="#8F9AA8"/>
</svg>
