<svg width="29" height="28" viewBox="0 0 29 28" fill="none" xmlns="http://www.w3.org/2000/svg">
<path d="M6.33333 11.667C5.05 11.667 4 12.717 4 14.0003C4 15.2837 5.05 16.3337 6.33333 16.3337C7.61667 16.3337 8.66667 15.2837 8.66667 14.0003C8.66667 12.717 7.61667 11.667 6.33333 11.667Z" stroke="#FF931E" stroke-width="1.5"/>
<path d="M22.6666 11.667C21.3833 11.667 20.3333 12.717 20.3333 14.0003C20.3333 15.2837 21.3833 16.3337 22.6666 16.3337C23.9499 16.3337 24.9999 15.2837 24.9999 14.0003C24.9999 12.717 23.9499 11.667 22.6666 11.667Z" stroke="#FF931E" stroke-width="1.5"/>
<path d="M14.5001 11.667C13.2167 11.667 12.1667 12.717 12.1667 14.0003C12.1667 15.2837 13.2167 16.3337 14.5001 16.3337C15.7834 16.3337 16.8334 15.2837 16.8334 14.0003C16.8334 12.717 15.7834 11.667 14.5001 11.667Z" stroke="#FF931E" stroke-width="1.5"/>
</svg>
