<svg width="24" height="25" viewBox="0 0 24 25" fill="none" xmlns="http://www.w3.org/2000/svg">
<path d="M17.5291 8.27C17.4591 8.26 17.3891 8.26 17.3191 8.27C15.7691 8.22 14.5391 6.95 14.5391 5.39C14.5391 3.8 15.8291 2.5 17.4291 2.5C19.0191 2.5 20.3191 3.79 20.3191 5.39C20.3091 6.95 19.0791 8.22 17.5291 8.27Z" fill="#FF931E"/>
<path d="M20.7896 15.2C19.6696 15.95 18.0996 16.23 16.6496 16.04C17.0296 15.22 17.2296 14.31 17.2396 13.35C17.2396 12.35 17.0196 11.4 16.5996 10.57C18.0796 10.37 19.6496 10.65 20.7796 11.4C22.3596 12.44 22.3596 14.15 20.7896 15.2Z" fill="#FF931E"/>
<path d="M6.44016 8.27C6.51016 8.26 6.58016 8.26 6.65016 8.27C8.20016 8.22 9.43016 6.95 9.43016 5.39C9.43016 3.79 8.14016 2.5 6.54016 2.5C4.95016 2.5 3.66016 3.79 3.66016 5.39C3.66016 6.95 4.89016 8.22 6.44016 8.27Z" fill="#FF931E"/>
<path d="M6.54914 13.35C6.54914 14.32 6.75914 15.24 7.13914 16.07C5.72914 16.22 4.25914 15.92 3.17914 15.21C1.59914 14.16 1.59914 12.45 3.17914 11.4C4.24914 10.68 5.75914 10.39 7.17914 10.55C6.76914 11.39 6.54914 12.34 6.54914 13.35Z" fill="#FF931E"/>
<path d="M12.1208 16.37C12.0408 16.36 11.9508 16.36 11.8608 16.37C10.0208 16.31 8.55078 14.8 8.55078 12.94C8.56078 11.04 10.0908 9.5 12.0008 9.5C13.9008 9.5 15.4408 11.04 15.4408 12.94C15.4308 14.8 13.9708 16.31 12.1208 16.37Z" fill="#FF931E"/>
<path d="M8.87078 18.44C7.36078 19.45 7.36078 21.11 8.87078 22.11C10.5908 23.26 13.4108 23.26 15.1308 22.11C16.6408 21.1 16.6408 19.44 15.1308 18.44C13.4208 17.29 10.6008 17.29 8.87078 18.44Z" fill="#FF931E"/>
</svg>
