<svg width="48" height="58" viewBox="0 0 48 58" fill="none" xmlns="http://www.w3.org/2000/svg">
<path d="M36.055 21.0227C35.8298 19.8884 35.4002 18.8157 34.7916 17.8682C34.0592 16.6966 32.9972 15.8239 31.7698 15.3852C30.8787 15.0936 29.9531 14.9504 29.0237 14.9602H21.3707V17.2295C21.9189 17.6682 22.4339 18.155 22.9109 18.6853C23.7415 19.5653 24.4133 20.611 24.8907 21.767L24.9567 21.9443V18.3554H28.3797C30.0664 18.3554 31.1936 18.8876 31.7613 19.952C32.4018 21.3741 32.6953 22.9558 32.6128 24.5412C32.6404 25.8127 32.4486 27.0784 32.0476 28.2709C31.8051 29.1243 31.3148 29.866 30.6524 30.3818C29.9899 30.8975 29.1921 31.1586 28.3819 31.1249H24.9758V25.3958C24.7649 25.8603 24.4854 26.2828 24.1488 26.6461L21.7284 29.3158L21.3761 28.9295V34.526H29.0258C30.227 34.5943 31.4213 34.2874 32.4715 33.6408C33.5217 32.9941 34.3853 32.0338 34.963 30.8702C35.9617 28.8453 36.453 26.5633 36.386 24.2594C36.3811 23.1705 36.2701 22.0854 36.055 21.0227V21.0227Z" fill="#4D4D4D"/>
<path d="M28.631 21.3397C28.3723 20.2859 27.9719 19.2808 27.4432 18.3578C26.8627 17.3391 26.1769 16.3983 25.3995 15.5543C25.215 15.3508 25.0213 15.1516 24.8184 14.9567C24.2729 14.4322 23.6926 13.9534 23.0824 13.5244C22.1941 12.8987 21.2015 12.4749 20.1628 12.2777C18.8897 12.0174 17.5743 12.2301 16.4225 12.8823C15.6046 13.3699 14.8576 13.99 14.2064 14.7219L8.80042 20.6882L21.3421 34.5213L26.7502 28.5539C27.6485 27.6693 28.3017 26.5226 28.6345 25.2462C28.9673 23.9697 28.9661 22.6155 28.631 21.3397V21.3397ZM24.9695 25.397C24.7586 25.8615 24.4791 26.284 24.1425 26.6473L21.7221 29.3158L21.3698 28.9296L13.5327 20.2831L15.9531 17.6135C17.1452 16.2978 18.2813 15.7965 19.3613 16.1096C20.0878 16.3445 20.7687 16.7254 21.3698 17.2331C21.9179 17.6717 22.433 18.1586 22.9099 18.6888C23.7405 19.5688 24.4123 20.6145 24.8897 21.7706L24.9557 21.9478C25.1841 22.4874 25.3037 23.0753 25.3061 23.6708C25.3085 24.2663 25.1936 24.8553 24.9695 25.397Z" fill="#FF931E"/>
<path d="M23.4038 57.6971C18.1318 53.8479 13.4976 49.0296 9.70296 43.4519C6.83617 39.107 4.54462 34.3342 2.89726 29.2771C1.19511 24.2839 0.217349 19.026 0 13.697L0 13.0666L9.25379 0H38.3957L47.6494 13.0654V13.6958C47.4349 19.0252 46.4571 24.2836 44.7522 29.2759C43.1056 34.3329 40.8147 39.1057 37.9486 43.4507C34.1564 49.0316 29.5214 53.8508 24.2468 57.6971L23.8263 58L23.4038 57.6971ZM3.32195 14.2887V14.3779C3.63153 19.0737 4.54025 23.6979 6.02124 28.1136C9.39874 38.3883 15.573 47.2605 23.6986 53.5153L23.8221 53.6128L23.9455 53.5153C32.0906 47.2453 38.2738 38.3452 41.6442 28.0397C43.1151 23.6471 44.016 19.0473 44.32 14.3767V14.2875L36.7874 3.63938H10.8642L3.32195 14.2887Z" fill="#4D4D4D"/>
</svg>
