<svg width="173" height="139" viewBox="0 0 173 139" fill="none" xmlns="http://www.w3.org/2000/svg">
<g clip-path="url(#clip0_193_9838)">
<path d="M79.5 90C27.9 90 4.33333 117.667 -1 131.5H188.5C173.667 117.667 131.1 90 79.5 90Z" fill="url(#paint0_linear_193_9838)"/>
<path d="M79.5 90C74.951 90 59.1199 91.5984 55 92L111 119.5L161 112C133.5 97.5 107.722 90 79.5 90Z" fill="url(#paint1_linear_193_9838)"/>
<path d="M113.813 92.5099L90.4141 69.3887L85.7807 74.0776L109.18 97.1989L113.813 92.5099Z" fill="#4D4D4D" fill-opacity="0.16"/>
<path d="M122.751 98.7226L104.547 80.7342C104.445 80.634 104.282 80.635 104.182 80.7364L97.2917 87.7094C97.1915 87.8107 97.1925 87.9741 97.2939 88.0742L115.498 106.063C115.6 106.163 115.763 106.162 115.863 106.06L122.753 99.0875C122.854 98.9861 122.853 98.8228 122.751 98.7226Z" fill="#8F9AA8"/>
<path d="M69.6749 81.0169C85.7726 81.0169 98.8224 67.9671 98.8224 51.8693C98.8224 35.7716 85.7726 22.7218 69.6749 22.7218C53.5771 22.7218 40.5273 35.7716 40.5273 51.8693C40.5273 67.9671 53.5771 81.0169 69.6749 81.0169Z" fill="#8F9AA8"/>
<path d="M69.6748 76.2611C83.1459 76.2611 94.0664 65.3406 94.0664 51.8695C94.0664 38.3984 83.1459 27.4779 69.6748 27.4779C56.2037 27.4779 45.2832 38.3984 45.2832 51.8695C45.2832 65.3406 56.2037 76.2611 69.6748 76.2611Z" fill="#F2F3F4"/>
</g>
<defs>
<linearGradient id="paint0_linear_193_9838" x1="93.75" y1="90" x2="93.75" y2="131.5" gradientUnits="userSpaceOnUse">
<stop stop-color="#E2E5E8"/>
<stop offset="1" stop-color="#F2F3F4" stop-opacity="0"/>
</linearGradient>
<linearGradient id="paint1_linear_193_9838" x1="109.5" y1="94" x2="107" y2="108.5" gradientUnits="userSpaceOnUse">
<stop stop-color="#C4D0DA"/>
<stop offset="1" stop-color="#F2F3F4" stop-opacity="0"/>
</linearGradient>
<clipPath id="clip0_193_9838">
<rect width="172" height="139" fill="white" transform="translate(0.5)"/>
</clipPath>
</defs>
</svg>
