<svg width="18" height="22" viewBox="0 0 18 22" fill="none" xmlns="http://www.w3.org/2000/svg">
<path d="M2.625 0C2.06141 0 1.52091 0.231785 1.1224 0.644365C0.723883 1.05694 0.5 1.61652 0.5 2.2V19.8C0.5 20.3835 0.723883 20.9431 1.1224 21.3556C1.52091 21.7682 2.06141 22 2.625 22H15.375C15.9386 22 16.4791 21.7682 16.8776 21.3556C17.2761 20.9431 17.5 20.3835 17.5 19.8V2.2C17.5 1.61652 17.2761 1.05694 16.8776 0.644365C16.4791 0.231785 15.9386 0 15.375 0H2.625ZM9 3.3C10.409 3.3 11.7602 3.87946 12.7565 4.91091C13.7528 5.94236 14.3125 7.34131 14.3125 8.8C14.3125 10.2587 13.7528 11.6576 12.7565 12.6891C11.7602 13.7205 10.409 14.3 9 14.3C7.59104 14.3 6.23978 13.7205 5.24349 12.6891C4.24721 11.6576 3.6875 10.2587 3.6875 8.8C3.6875 7.34131 4.24721 5.94236 5.24349 4.91091C6.23978 3.87946 7.59104 3.3 9 3.3ZM9 4.4C8.56437 5.082 8.20312 5.819 7.98 6.6H10.02C9.79134 5.81671 9.4473 5.07464 9 4.4ZM7.61875 4.642C6.64125 4.983 5.8125 5.687 5.32375 6.6H6.875C7.06625 5.918 7.3 5.258 7.61875 4.642ZM10.3706 4.642C10.6894 5.258 10.9338 5.918 11.125 6.6H12.6763C12.1875 5.687 11.3481 4.994 10.3706 4.642ZM4.88812 7.7C4.80312 8.052 4.75 8.415 4.75 8.8C4.75 9.185 4.80312 9.548 4.88812 9.9H6.68375C6.64125 9.537 6.60938 9.174 6.60938 8.8C6.60938 8.426 6.64125 8.063 6.68375 7.7H4.88812ZM7.75688 7.7C7.70375 8.052 7.67188 8.426 7.67188 8.8C7.67188 9.174 7.70375 9.537 7.75688 9.9H10.2431C10.2856 9.537 10.3281 9.174 10.3281 8.8C10.3281 8.426 10.2856 8.052 10.2431 7.7H7.75688ZM11.3162 7.7C11.3588 8.063 11.3906 8.426 11.3906 8.8C11.3906 9.174 11.3588 9.537 11.3162 9.9H13.1119C13.1969 9.548 13.25 9.185 13.25 8.8C13.25 8.415 13.1969 8.052 13.1119 7.7H11.3162ZM5.32375 11C5.8125 11.913 6.64125 12.606 7.61875 12.958C7.3 12.342 7.06625 11.693 6.875 11H5.32375ZM7.98 11C8.20312 11.792 8.56437 12.518 9 13.2C9.44625 12.518 9.79688 11.792 10.02 11H7.98ZM11.125 11C10.9338 11.693 10.6894 12.342 10.3706 12.958C11.3481 12.606 12.1875 11.913 12.6763 11H11.125ZM3.6875 16.5H14.3125V18.7H3.6875V16.5Z" fill="#FF931E"/>
</svg>
