<svg width="25" height="24" viewBox="0 0 25 24" fill="none" xmlns="http://www.w3.org/2000/svg">
<path d="M7.01017 22H17.4902C20.2502 22 21.3502 20.31 21.4802 18.25L22.0002 9.99C22.1402 7.83 20.4202 6 18.2502 6C17.6402 6 17.0802 5.65 16.8002 5.11L16.0802 3.66C15.6202 2.75 14.4202 2 13.4002 2H11.1102C10.0802 2 8.88017 2.75 8.42017 3.66L7.70017 5.11C7.42017 5.65 6.86017 6 6.25017 6C4.08017 6 2.36017 7.83 2.50017 9.99L3.02017 18.25C3.14017 20.31 4.25017 22 7.01017 22Z" stroke="#292D32" stroke-width="1.5" stroke-linecap="round" stroke-linejoin="round"/>
<path d="M10.75 8H13.75" stroke="#292D32" stroke-width="1.5" stroke-linecap="round" stroke-linejoin="round"/>
<path d="M12.25 18C14.04 18 15.5 16.54 15.5 14.75C15.5 12.96 14.04 11.5 12.25 11.5C10.46 11.5 9 12.96 9 14.75C9 16.54 10.46 18 12.25 18Z" stroke="#292D32" stroke-width="1.5" stroke-linecap="round" stroke-linejoin="round"/>
</svg>
