<svg width="103" height="32" viewBox="0 0 103 32" fill="none" xmlns="http://www.w3.org/2000/svg">
<path d="M20.0739 11.5987C19.9485 10.9729 19.7093 10.381 19.3705 9.8583C18.9627 9.21191 18.3714 8.73043 17.6881 8.48837C17.1919 8.32751 16.6766 8.24848 16.1591 8.25389H11.8983V9.50594C12.2035 9.74796 12.4903 10.0166 12.7558 10.3091C13.2182 10.7946 13.5923 11.3716 13.8581 12.0094L13.8948 12.1072V10.1271H15.8006C16.7397 10.1271 17.3673 10.4207 17.6833 11.008C18.0399 11.7926 18.2033 12.6653 18.1574 13.5399C18.1728 14.2415 18.066 14.9398 17.8427 15.5978C17.7077 16.0686 17.4348 16.4778 17.0659 16.7624C16.6971 17.0469 16.2529 17.191 15.8018 17.1724H13.9055V14.0115C13.788 14.2677 13.6324 14.5008 13.445 14.7013L12.0974 16.1742L11.9013 15.9611V19.0488H16.1603C16.8291 19.0865 17.494 18.9172 18.0788 18.5604C18.6635 18.2036 19.1443 17.6738 19.4659 17.0318C20.022 15.9146 20.2955 14.6556 20.2582 13.3845C20.2555 12.7837 20.1937 12.185 20.0739 11.5987Z" fill="white"/>
<path d="M15.9405 11.7736C15.7964 11.1922 15.5735 10.6377 15.2791 10.1284C14.956 9.56641 14.5741 9.04734 14.1413 8.58167C14.0386 8.46939 13.9308 8.3595 13.8178 8.25198C13.5141 7.96257 13.191 7.69842 12.8512 7.46176C12.3567 7.11654 11.804 6.88268 11.2257 6.77388C10.5169 6.63031 9.78459 6.74762 9.1433 7.10745C8.68794 7.37648 8.27205 7.71861 7.9095 8.12243L4.89966 11.4141L11.8823 19.0462L14.8933 15.7539C15.3935 15.2658 15.7571 14.6332 15.9424 13.9289C16.1277 13.2247 16.127 12.4775 15.9405 11.7736ZM13.9019 14.0122C13.7845 14.2684 13.6289 14.5015 13.4415 14.702L12.0939 16.1742L11.8977 15.9611L7.53438 11.1907L8.88196 9.71777C9.54568 8.99189 10.1782 8.71531 10.7795 8.88804C11.184 9.01764 11.5631 9.22779 11.8977 9.50791C12.2029 9.74993 12.4897 10.0185 12.7552 10.3111C13.2177 10.7966 13.5917 11.3735 13.8575 12.0113L13.8942 12.1092C14.0214 12.4068 14.088 12.7312 14.0893 13.0597C14.0906 13.3883 14.0267 13.7132 13.9019 14.0122Z" fill="#FF931E"/>
<path d="M13.0302 31.8329C10.095 29.7092 7.51489 27.0508 5.40219 23.9734C3.80608 21.5763 2.53025 18.943 1.61307 16.1529C0.665384 13.398 0.12101 10.4971 0 7.55696L0 7.20913L5.15211 0H21.377L26.5291 7.20848V7.55631C26.4097 10.4967 25.8653 13.3979 24.9161 16.1522C23.9993 18.9423 22.7239 21.5756 21.1281 23.9728C19.0168 27.0519 16.4363 29.7108 13.4995 31.8329L13.2655 32L13.0302 31.8329ZM1.84952 7.88341V7.93264C2.02188 10.5234 2.52782 13.0747 3.35237 15.511C5.23281 21.1798 8.67035 26.0747 13.1944 29.5257L13.2631 29.5795L13.3318 29.5257C17.8667 26.0664 21.3092 21.1559 23.1857 15.4702C24.0046 13.0467 24.5062 10.5089 24.6755 7.93199V7.88276L20.4816 2.00793H6.04872L1.84952 7.88341Z" fill="white"/>
<path d="M41.1756 7.24961C42.0666 7.56401 42.8375 8.19158 43.3682 9.03462C43.8109 9.71683 44.1235 10.4894 44.2875 11.3063C44.4456 12.0705 44.5277 12.8511 44.5324 13.6345C44.5801 15.2913 44.2239 16.9322 43.5004 18.3891C43.0784 19.2253 42.4496 19.9149 41.686 20.379C40.9223 20.8431 40.0546 21.0628 39.182 21.0132H33.6327V6.94583H39.182C39.8566 6.93889 40.5285 7.04127 41.1756 7.24961ZM36.244 9.38786V18.579H38.7274C39.3149 18.6023 39.8931 18.414 40.3732 18.0432C40.8533 17.6723 41.2086 17.1394 41.3846 16.5263C41.676 15.6688 41.8156 14.7586 41.7961 13.8441C41.8551 12.7054 41.6428 11.5695 41.18 10.5472C40.7692 9.78112 39.9511 9.39753 38.7259 9.39649L36.244 9.38786Z" fill="#FF931E"/>
<path d="M48.9074 9.36904H46.3838V6.85715H48.9074V9.36904ZM46.3838 10.6101H48.9074V21.0116H46.3838V10.6101Z" fill="white"/>
<path d="M56.0267 10.6007C56.6596 10.9039 57.1772 11.4369 57.4918 12.1094V10.6109H59.9206V20.4811C59.9843 21.5372 59.7689 22.5911 59.3001 23.5173C58.5887 24.689 57.2263 25.2749 55.213 25.2749C54.1722 25.323 53.1398 25.051 52.2333 24.4899C51.861 24.2445 51.5498 23.9023 51.3276 23.4938C51.1053 23.0853 50.9788 22.6231 50.9593 22.1483H53.6653C53.7073 22.4117 53.8271 22.6527 54.0065 22.8344C54.4055 23.124 54.8833 23.2555 55.3602 23.2073C55.7154 23.2549 56.0754 23.1869 56.3954 23.012C56.7154 22.837 56.9811 22.5628 57.1593 22.2237C57.3978 21.5492 57.499 20.8259 57.4559 20.1043V19.4355C57.2629 19.8221 57.0014 20.1629 56.6867 20.4379C56.1247 20.8739 55.4455 21.0922 54.757 21.058C54.2027 21.082 53.6507 20.9677 53.1428 20.7237C52.635 20.4797 52.1847 20.1124 51.8261 19.6498C51.0513 18.5652 50.662 17.2105 50.7302 15.8364C50.6865 14.4476 51.0571 13.0809 51.7859 11.9422C52.1259 11.4289 52.5772 11.0158 53.0993 10.7401C53.6213 10.4643 54.1978 10.3344 54.7771 10.3621C55.2039 10.3516 55.6284 10.4327 56.0267 10.6007ZM56.8741 18.065C57.326 17.4067 57.5377 16.5883 57.4681 15.7689C57.5182 14.9694 57.3176 14.1751 56.8993 13.5169C56.7193 13.2657 56.4878 13.0643 56.2234 12.929C55.959 12.7937 55.6692 12.7283 55.3775 12.7382C54.9841 12.7166 54.595 12.8366 54.2701 13.08C53.9451 13.3233 53.7021 13.6764 53.5785 14.0852C53.3933 14.6516 53.3073 15.251 53.3249 15.8521C53.3156 16.405 53.4102 16.954 53.6029 17.4652C53.7334 17.8694 53.9804 18.2163 54.3068 18.454C54.6331 18.6916 55.0211 18.8071 55.4127 18.7832C55.6896 18.7862 55.9639 18.7233 56.2164 18.5989C56.4689 18.4745 56.6936 18.2915 56.8749 18.0626L56.8741 18.065Z" fill="white"/>
<path d="M64.8027 9.36904H62.2791V6.85715H64.8027V9.36904ZM62.2791 10.6101H64.8027V21.0116H62.2791V10.6101Z" fill="white"/>
<path d="M74.9549 7.2496C75.8462 7.56401 76.6176 8.19155 77.1489 9.03461C77.5917 9.71653 77.9039 10.4892 78.0667 11.3063C78.2247 12.0705 78.3069 12.8511 78.3116 13.6345C78.3592 15.2911 78.0036 16.9319 77.281 18.389C76.8598 19.226 76.2312 19.9162 75.4673 20.3803C74.7035 20.8445 73.8354 21.0639 72.9627 21.0132H67.4141V6.94582H72.9648C73.6383 6.93897 74.3089 7.04135 74.9549 7.2496ZM70.0232 9.38785V18.579H72.5131C73.1006 18.6023 73.6788 18.414 74.1589 18.0432C74.6389 17.6723 74.9943 17.1394 75.1703 16.5263C75.4617 15.6688 75.6013 14.7586 75.5818 13.8441C75.6408 12.7054 75.4284 11.5694 74.9656 10.5472C74.5548 9.78111 73.7368 9.39752 72.5116 9.39648L70.0232 9.38785Z" fill="white"/>
<path d="M88.0644 19.7424C87.0841 20.783 85.7715 21.365 84.405 21.365C83.0385 21.365 81.7258 20.783 80.7455 19.7424C79.9636 18.6201 79.5402 17.2483 79.5402 15.8376C79.5402 14.4269 79.9636 13.0552 80.7455 11.9328C81.7182 10.8771 83.033 10.284 84.4038 10.2829C85.7746 10.2817 87.0903 10.8725 88.0644 11.9265C88.8683 13.0319 89.2945 14.409 89.2695 15.8207C89.3074 17.243 88.8801 18.6335 88.0644 19.7424ZM86.0722 18.24C86.5021 17.5262 86.7103 16.6802 86.6662 15.827C86.7207 14.9747 86.5115 14.1271 86.0722 13.4203C85.8786 13.1405 85.6249 12.917 85.3336 12.7695C85.0423 12.6221 84.7223 12.5553 84.4018 12.5749C84.0794 12.5561 83.7577 12.6233 83.4644 12.7707C83.1711 12.9181 82.9151 13.1414 82.7184 13.4211C82.3295 14.153 82.1247 14.9842 82.1247 15.8306C82.1247 16.6769 82.3295 17.5082 82.7184 18.24C82.9255 18.5056 83.1829 18.7189 83.4728 18.8652C83.7627 19.0115 84.0782 19.0872 84.3975 19.0872C84.7168 19.0872 85.0322 19.0115 85.3221 18.8652C85.612 18.7189 85.8694 18.5056 86.0766 18.24H86.0722Z" fill="white"/>
<path d="M97.2605 10.8212C97.9302 11.1542 98.4995 11.6883 98.9022 12.3613C99.3007 13.0064 99.5596 13.7422 99.6592 14.5129C99.7365 15.1973 99.7644 15.8874 99.7425 16.5766H92.8158C92.7943 17.0057 92.8748 17.4336 93.0493 17.8187C93.2238 18.2039 93.4865 18.5331 93.8118 18.7745C94.2254 19.0459 94.7014 19.1821 95.1836 19.167C95.5728 19.2008 95.9622 19.1048 96.3005 18.8916C96.6388 18.6785 96.9099 18.3582 97.0781 17.973H99.6197C99.5067 18.6934 99.1832 19.3544 98.6976 19.8569C98.2349 20.3759 97.6756 20.78 97.0576 21.0421C96.4395 21.3042 95.7771 21.418 95.1153 21.3759C93.8945 21.393 92.7071 20.9398 91.7615 20.0956C90.7934 19.2421 90.3093 17.8532 90.3093 15.929C90.2631 15.1773 90.3553 14.4232 90.5805 13.7112C90.8056 12.9991 91.1591 12.3437 91.62 11.7836C92.0669 11.3013 92.5996 10.9244 93.1851 10.6762C93.7707 10.428 94.3966 10.3139 95.0241 10.3408C95.7923 10.3261 96.5546 10.4898 97.2605 10.8212ZM93.5375 13.1761C93.1647 13.6215 92.9321 14.1857 92.8739 14.7861H97.1628C97.1607 14.4771 97.1008 14.1719 96.9866 13.8892C96.8725 13.6065 96.7066 13.3523 96.4992 13.1424C96.0881 12.7613 95.5622 12.5607 95.0234 12.5795C94.7516 12.5604 94.4791 12.603 94.2231 12.7048C93.9671 12.8065 93.7332 12.9651 93.5361 13.1706L93.5375 13.1761Z" fill="white"/>
</svg>
