<svg width="45" height="45" viewBox="0 0 45 45" fill="none" xmlns="http://www.w3.org/2000/svg">
<rect width="45" height="45" rx="22.5" fill="#043CAE"/>
<mask id="mask0_3183_18316" style="mask-type:luminance" maskUnits="userSpaceOnUse" x="0" y="0" width="45" height="45">
<rect width="45" height="45" rx="22.5" fill="white"/>
</mask>
<g mask="url(#mask0_3183_18316)">
<rect width="45" height="45" rx="22.5" fill="#043CAE"/>
<path fill-rule="evenodd" clip-rule="evenodd" d="M20.3772 9.62155L22.4985 9.00023L24.6199 9.62155L23.9985 7.50023L24.6199 5.37891L22.4985 6.00023L20.3772 5.37891L20.9985 7.50023L20.3772 9.62155ZM20.3772 39.6216L22.4985 39.0002L24.6199 39.6216L23.9985 37.5002L24.6199 35.3789L22.4985 36.0002L20.3772 35.3789L20.9985 37.5002L20.3772 39.6216ZM37.5015 24.0002L35.3801 24.6216L36.0015 22.5002L35.3801 20.3789L37.5015 21.0002L39.6228 20.3789L39.0015 22.5002L39.6228 24.6216L37.5015 24.0002ZM5.37891 24.6216L7.50023 24.0002L9.62155 24.6216L9.00023 22.5002L9.62155 20.3789L7.50023 21.0002L5.37891 20.3789L6.00023 22.5002L5.37891 24.6216ZM35.4888 16.5002L33.3674 17.1216L33.9888 15.0002L33.3674 12.8789L35.4888 13.5002L37.6101 12.8789L36.9888 15.0002L37.6101 17.1216L35.4888 16.5002ZM7.38698 32.1215L9.5083 31.5002L11.6296 32.1215L11.0083 30.0002L11.6296 27.8789L9.5083 28.5002L7.38698 27.8789L8.0083 30.0002L7.38698 32.1215ZM30.0002 11.0098L27.8789 11.6312L28.5002 9.50985L27.8789 7.38853L30.0002 8.00985L32.1215 7.38853L31.5002 9.50985L32.1215 11.6312L30.0002 11.0098ZM12.8801 37.6119L15.0015 36.9906L17.1228 37.6119L16.5015 35.4906L17.1228 33.3693L15.0015 33.9906L12.8801 33.3693L13.5015 35.4906L12.8801 37.6119ZM35.4888 31.5002L33.3674 32.1215L33.9888 30.0002L33.3674 27.8789L35.4888 28.5002L37.6101 27.8789L36.9888 30.0002L37.6101 32.1215L35.4888 31.5002ZM7.38698 17.1216L9.5083 16.5002L11.6296 17.1216L11.0083 15.0002L11.6296 12.8789L9.5083 13.5002L7.38698 12.8789L8.0083 15.0002L7.38698 17.1216ZM30.0002 36.9906L27.8789 37.6119L28.5002 35.4906L27.8789 33.3693L30.0002 33.9906L32.1215 33.3693L31.5002 35.4906L32.1215 37.6119L30.0002 36.9906ZM12.8801 11.6312L15.0015 11.0098L17.1228 11.6312L16.5015 9.50985L17.1228 7.38853L15.0015 8.00985L12.8801 7.38853L13.5015 9.50985L12.8801 11.6312Z" fill="#FFD429"/>
</g>
</svg>
