<svg width="32" height="32" viewBox="0 0 32 32" fill="none" xmlns="http://www.w3.org/2000/svg">
<path d="M15.9998 19.8398C14.7865 19.8398 13.7998 18.8531 13.7998 17.6398V14.3465C13.7998 13.1332 14.7865 12.1465 15.9998 12.1465C17.2131 12.1465 18.1998 13.1332 18.1998 14.3465V17.6398C18.1998 18.8531 17.2131 19.8398 15.9998 19.8398Z" stroke="#FF931E" stroke-width="1.5" stroke-linecap="round"/>
<path d="M22.6397 17.9596C22.373 21.3996 19.493 24.0929 15.9997 24.0929C12.3197 24.0929 9.33301 21.1063 9.33301 17.4263V14.5729C9.33301 10.8929 12.3197 7.90625 15.9997 7.90625C19.453 7.90625 22.293 10.5329 22.6263 13.8929" stroke="#FF931E" stroke-width="1.5" stroke-linecap="round"/>
<path d="M20 2.66699H22.6667C26.6667 2.66699 29.3333 5.33366 29.3333 9.33366V12.0003" stroke="#FF931E" stroke-width="1.5" stroke-miterlimit="10" stroke-linecap="round" stroke-linejoin="round"/>
<path d="M2.66699 12.0003V9.33366C2.66699 5.33366 5.33366 2.66699 9.33366 2.66699H12.0003" stroke="#FF931E" stroke-width="1.5" stroke-miterlimit="10" stroke-linecap="round" stroke-linejoin="round"/>
<path d="M20 29.3333H22.6667C26.6667 29.3333 29.3333 26.6667 29.3333 22.6667V20" stroke="#FF931E" stroke-width="1.5" stroke-miterlimit="10" stroke-linecap="round" stroke-linejoin="round"/>
<path d="M2.66699 20V22.6667C2.66699 26.6667 5.33366 29.3333 9.33366 29.3333H12.0003" stroke="#FF931E" stroke-width="1.5" stroke-miterlimit="10" stroke-linecap="round" stroke-linejoin="round"/>
</svg>
