<svg width="238" height="238" viewBox="0 0 238 238" fill="none" xmlns="http://www.w3.org/2000/svg">
<g clip-path="url(#clip0_12823_19478)">
<path d="M190.352 0H47.6476C21.3326 0 0 21.3326 0 47.6476V190.352C0 216.667 21.3326 238 47.6476 238H190.352C216.667 238 238 216.667 238 190.352V47.6476C238 21.3326 216.667 0 190.352 0Z" fill="#3378FF"/>
<path d="M43.2208 120.523L85.0612 187.782C91.7252 198.397 107.1 198.54 114.002 188.02L195.398 62.1656C200.92 53.55 194.827 42.1736 184.64 42.1736C174.454 42.1736 176.263 44.4584 173.788 48.076L113.526 142.943C107.862 151.892 94.8668 151.892 89.1072 142.943L86.9652 139.42C81.7768 131.186 87.6316 120.428 97.2468 120.428C106.862 120.428 105.291 118.286 107.528 114.764L107.766 114.43C113.288 105.72 107.1 94.2956 96.8184 94.2956H57.358C44.1252 94.2956 35.9856 109.004 43.1256 120.428L43.2208 120.523Z" fill="white"/>
</g>
<defs>
<clipPath id="clip0_12823_19478">
<rect width="238" height="238" fill="white"/>
</clipPath>
</defs>
</svg>
