<svg width="78" height="78" viewBox="0 0 78 78" fill="none" xmlns="http://www.w3.org/2000/svg">
<path d="M39 0C60.5391 0 78 17.4609 78 39C78 60.5391 60.5391 78 39 78C17.4609 78 0 60.5391 0 39C0 17.4609 17.4609 0 39 0ZM39 5.12988C20.2223 5.12988 5 20.3522 5 39.1299C5 57.9076 20.2223 73.1299 39 73.1299C57.7777 73.1299 73 57.9076 73 39.1299C73 20.3522 57.7777 5.12988 39 5.12988Z" fill="#FF5656"/>
<path d="M35.9219 42.9883L35.1719 31.7617C35.0312 29.5742 34.9609 28.0039 34.9609 27.0508C34.9609 25.7539 35.2969 24.7461 35.9688 24.0273C36.6562 23.293 37.5547 22.9258 38.6641 22.9258C40.0078 22.9258 40.9062 23.3945 41.3594 24.332C41.8125 25.2539 42.0391 26.5898 42.0391 28.3398C42.0391 29.3711 41.9844 30.418 41.875 31.4805L40.8672 43.0352C40.7578 44.4102 40.5234 45.4648 40.1641 46.1992C39.8047 46.9336 39.2109 47.3008 38.3828 47.3008C37.5391 47.3008 36.9531 46.9492 36.625 46.2461C36.2969 45.5273 36.0625 44.4414 35.9219 42.9883ZM38.5234 58.4102C37.5703 58.4102 36.7344 58.1055 36.0156 57.4961C35.3125 56.8711 34.9609 56.0039 34.9609 54.8945C34.9609 53.9258 35.2969 53.1055 35.9688 52.4336C36.6562 51.7461 37.4922 51.4023 38.4766 51.4023C39.4609 51.4023 40.2969 51.7461 40.9844 52.4336C41.6875 53.1055 42.0391 53.9258 42.0391 54.8945C42.0391 55.9883 41.6875 56.8477 40.9844 57.4727C40.2812 58.0977 39.4609 58.4102 38.5234 58.4102Z" fill="white"/>
</svg>
