<svg width="22" height="22" viewBox="0 0 22 22" fill="none" xmlns="http://www.w3.org/2000/svg">
<path d="M19.25 20.1667H2.75C2.37417 20.1667 2.0625 19.8551 2.0625 19.4792C2.0625 19.1034 2.37417 18.7917 2.75 18.7917H19.25C19.6258 18.7917 19.9375 19.1034 19.9375 19.4792C19.9375 19.8551 19.6258 20.1667 19.25 20.1667Z" fill="#FF931E"/>
<path d="M17.435 3.1901C15.6567 1.41177 13.915 1.36594 12.0909 3.1901L10.9817 4.29927C10.89 4.39094 10.8534 4.5376 10.89 4.66594C11.5867 7.0951 13.53 9.03844 15.9592 9.7351C15.9959 9.74427 16.0325 9.75344 16.0692 9.75344C16.17 9.75344 16.2617 9.71677 16.335 9.64344L17.435 8.53427C18.3425 7.63594 18.7825 6.7651 18.7825 5.8851C18.7917 4.9776 18.3517 4.0976 17.435 3.1901Z" fill="#FF931E"/>
<path d="M14.3091 10.5692C14.0433 10.4409 13.7866 10.3126 13.5391 10.1659C13.3375 10.0467 13.145 9.9184 12.9525 9.7809C12.7966 9.68006 12.6133 9.5334 12.4391 9.38673C12.4208 9.37756 12.3566 9.32256 12.2833 9.24923C11.9808 8.99256 11.6416 8.66256 11.3391 8.2959C11.3116 8.27757 11.2658 8.2134 11.2016 8.1309C11.11 8.0209 10.9541 7.83756 10.8166 7.62673C10.7066 7.48923 10.5783 7.28756 10.4591 7.0859C10.3125 6.8384 10.1841 6.5909 10.0558 6.33423C10.0457 6.31255 10.0357 6.29093 10.0259 6.26936C9.87532 5.93742 9.44119 5.83967 9.18344 6.09743L3.9783 11.3026C3.85913 11.4217 3.74913 11.6509 3.72163 11.8067L3.22663 15.3176C3.13497 15.9409 3.30913 16.5276 3.69413 16.9217C4.02413 17.2426 4.48247 17.4167 4.97747 17.4167C5.08747 17.4167 5.19747 17.4076 5.30747 17.3892L8.82747 16.8942C8.99247 16.8667 9.22163 16.7567 9.33163 16.6376L14.5296 11.4396C14.7892 11.18 14.6915 10.734 14.3544 10.5888C14.3394 10.5823 14.3243 10.5758 14.3091 10.5692Z" fill="#FF931E"/>
</svg>
