<svg width="101" height="119" viewBox="0 0 101 119" fill="none" xmlns="http://www.w3.org/2000/svg">
<path d="M42.6201 8.45C41.5701 3.83 37.5401 1.75 34.0001 1.75C34.0001 1.75 34.0001 1.75 33.9901 1.75C30.4601 1.75 26.4201 3.82 25.3701 8.44C24.2001 13.6 27.3601 17.97 30.2201 20.72C31.2801 21.74 32.6401 22.25 34.0001 22.25C35.3601 22.25 36.7201 21.74 37.7701 20.72C40.6301 17.97 43.7901 13.61 42.6201 8.45ZM34.0001 13.46C32.2601 13.46 30.8501 12.05 30.8501 10.31C30.8501 8.57 32.2601 7.16 34.0001 7.16C35.7401 7.16 37.1501 8.57 37.1501 10.31C37.1501 12.05 35.7401 13.46 34.0001 13.46Z" fill="#FF931E"/>
<ellipse cx="34" cy="26" rx="3" ry="2" fill="white"/>
<path d="M101 68.5055C101 83.7304 94.2572 97.3883 83.5897 106.661C74.4073 114.631 62.653 119.012 50.4944 118.996C32.5379 118.996 16.781 109.637 7.82435 95.5192C2.99231 87.8805 0.298327 79.0853 0.0233813 70.0509C-0.251564 61.0164 1.9026 52.0737 6.26119 44.1554C10.6198 36.2371 17.0232 29.6333 24.8034 25.0328C32.5836 20.4323 41.4558 18.0036 50.4944 18C73.9142 18 93.6247 33.9438 99.3179 55.5807C100.443 59.7966 101.008 64.1421 101 68.5055Z" fill="#FFD3A4"/>
<path d="M101 68.5055C101 83.7304 94.2572 97.3883 83.5897 106.661C74.4073 114.631 62.653 119.012 50.4944 118.996C32.5379 118.996 16.781 109.637 7.82435 95.5192C2.99231 87.8805 0.298327 79.0853 0.0233813 70.0509C-0.251564 61.0164 1.9026 52.0737 6.26119 44.1554C10.6198 36.2371 17.0232 29.6333 24.8034 25.0328C32.5836 20.4323 41.4558 18.0036 50.4944 18C73.9142 18 93.6247 33.9438 99.3179 55.5807C100.443 59.7966 101.008 64.1421 101 68.5055Z" fill="#FFD3A4"/>
<path d="M83.5895 106.661C74.4072 114.631 62.6529 119.012 50.4943 118.996C32.5377 118.996 16.7809 109.637 7.82422 95.5191C15.7027 89.064 20.145 89.7537 23.1067 90.861C26.3414 92.0832 28.1385 97.5607 37.4834 92.1694C46.8284 86.7781 54.376 99.7172 57.9702 101.874C72.3469 100.839 79.8372 103.901 83.5895 106.661Z" fill="url(#paint0_linear_152_9244)"/>
<path d="M99.3178 55.5807C77.9684 60.6413 79.4779 48.493 77.3789 41.1321C75.2224 33.5844 73.7848 36.1002 60.4862 46.5237C47.1877 56.9473 45.7498 40.0542 45.5057 37.179C45.2469 34.3036 44.6718 33.2259 37.8429 34.0736C31.014 34.9213 29.2169 29.6311 23.4662 33.2254C21.0797 34.7206 17.8305 34.0448 14.8545 32.7365C19.5324 28.0549 25.0888 24.3431 31.2049 21.8142C37.3209 19.2854 43.8761 17.9892 50.4944 18.0002C73.9141 17.9999 93.6246 33.9438 99.3178 55.5807Z" fill="url(#paint1_linear_152_9244)"/>
<defs>
<linearGradient id="paint0_linear_152_9244" x1="45.7069" y1="91.0677" x2="45.7069" y2="118.996" gradientUnits="userSpaceOnUse">
<stop stop-color="#FFC875"/>
<stop offset="0.977659" stop-color="#FF931E"/>
</linearGradient>
<linearGradient id="paint1_linear_152_9244" x1="57.0862" y1="19.2466" x2="57.0862" y2="56.779" gradientUnits="userSpaceOnUse">
<stop stop-color="#FFC875"/>
<stop offset="0.977659" stop-color="#FF931E"/>
</linearGradient>
</defs>
</svg>
