<svg width="151" height="232" viewBox="0 0 151 232" fill="none" xmlns="http://www.w3.org/2000/svg">
<g filter="url(#filter0_b_4566_23126)">
<path d="M0.0324302 15.0324C0.0145308 6.73547 6.73548 0 15.0324 0H135.534C143.806 0 150.516 6.69602 150.534 14.9676L150.968 215.968C150.985 224.265 144.265 231 135.968 231H15.4661C7.19442 231 0.483904 224.304 0.466059 216.032L0.0324302 15.0324Z" fill="url(#paint0_linear_4566_23126)"/>
<path d="M0.0324302 15.0324C0.0145308 6.73547 6.73548 0 15.0324 0H135.534C143.806 0 150.516 6.69602 150.534 14.9676L150.968 215.968C150.985 224.265 144.265 231 135.968 231H15.4661C7.19442 231 0.483904 224.304 0.466059 216.032L0.0324302 15.0324Z" fill="url(#paint1_linear_4566_23126)"/>
</g>
<path fill-rule="evenodd" clip-rule="evenodd" d="M48.0469 62.4648V55.7266C48.0469 52.0434 51.0434 49.0469 54.7266 49.0469H61.4648C62.3062 49.0469 62.9883 48.3648 62.9883 47.5234C62.9883 46.6821 62.3062 46 61.4648 46H54.7266C49.3634 46 45 50.3633 45 55.7266V62.4648C45 63.3062 45.6821 63.9883 46.5234 63.9883C47.3648 63.9883 48.0469 63.3062 48.0469 62.4648ZM61.4648 102.953C62.3062 102.953 62.9883 103.635 62.9883 104.477C62.9883 105.318 62.3062 106 61.4648 106H54.7266C49.3634 106 45 101.637 45 96.2737V89.5354C45 88.6941 45.6821 88.012 46.5234 88.012C47.3648 88.012 48.0469 88.6941 48.0469 89.5354V96.2737C48.0469 99.9569 51.0434 102.953 54.7266 102.953H61.4648ZM105 89.5354V96.2737C105 101.637 100.637 106 95.2734 106H88.5351C87.6937 106 87.0116 105.318 87.0116 104.477C87.0116 103.635 87.6937 102.953 88.5351 102.953H95.2734C98.9565 102.953 101.953 99.9569 101.953 96.2737V89.5354C101.953 88.6941 102.635 88.012 103.476 88.012C104.318 88.012 105 88.6941 105 89.5354ZM105 55.7266V62.4648C105 63.3062 104.318 63.9883 103.476 63.9883C102.635 63.9883 101.953 63.3062 101.953 62.4648V55.7266C101.953 52.0434 98.9565 49.0469 95.2734 49.0469H88.5351C87.6937 49.0469 87.0116 48.3648 87.0116 47.5234C87.0116 46.6821 87.6937 46 88.5351 46H95.2734C100.637 46 105 50.3633 105 55.7266ZM85.5134 90.3457C86.1553 89.7528 86.1949 88.7519 85.6021 88.1101C85.0092 87.4682 84.0083 87.4286 83.3665 88.0214C81.0827 90.131 78.1114 91.2928 75 91.2928C71.8886 91.2928 68.9173 90.131 66.6335 88.0214C65.9916 87.4286 64.9908 87.4683 64.3979 88.1101C63.8051 88.7519 63.8447 89.7528 64.4866 90.3457C67.3568 92.9968 71.0905 94.4568 75 94.4568C78.9096 94.4568 82.6432 92.9968 85.5134 90.3457ZM78.1642 68.6168V79.8668C78.1642 82.0962 76.3505 83.9098 74.1212 83.9098H72.8321C71.9584 83.9098 71.2501 83.2015 71.2501 82.3278C71.2501 81.454 71.9584 80.7457 72.8321 80.7457H74.1212C74.6058 80.7457 75.0001 80.3515 75.0001 79.8668V68.6168C75.0001 67.7431 75.7084 67.0348 76.5821 67.0348C77.4559 67.0348 78.1642 67.7431 78.1642 68.6168ZM89.0626 73.0407V68.529C89.0626 67.7038 88.3936 67.0348 87.5684 67.0348C86.7433 67.0348 86.0743 67.7038 86.0743 68.529V73.0407C86.0743 73.8658 86.7433 74.5348 87.5684 74.5348C88.3936 74.5348 89.0626 73.8658 89.0626 73.0407ZM61.2891 73.0407C61.2891 73.8658 61.958 74.5348 62.7832 74.5348C63.6084 74.5348 64.2773 73.8658 64.2773 73.0407V68.529C64.2773 67.7038 63.6084 67.0348 62.7832 67.0348C61.958 67.0348 61.2891 67.7038 61.2891 68.529V73.0407Z" fill="url(#paint2_linear_4566_23126)"/>
<g filter="url(#filter1_b_4566_23126)">
<circle cx="75.5" cy="180.5" r="27.5" fill="url(#paint3_linear_4566_23126)"/>
<circle cx="75.5" cy="180.5" r="27.5" fill="url(#paint4_linear_4566_23126)"/>
<circle cx="75.5" cy="180.5" r="26.5" stroke="url(#paint5_radial_4566_23126)" stroke-width="2"/>
</g>
<g clip-path="url(#clip0_4566_23126)">
<path d="M79.5251 163.501C77.1433 162.907 74.6371 162.822 72.1984 163.349C72.01 163.389 71.8902 163.575 71.9309 163.764C71.9715 163.952 72.1573 164.072 72.3458 164.031C74.6812 163.527 77.087 163.61 79.3754 164.184C84.8478 165.555 89.4029 169.67 91.1378 175.044C91.8088 177.123 92.0938 179.336 92.1509 181.656C92.1556 181.848 92.3157 182.001 92.5085 181.996C92.7012 181.991 92.8536 181.831 92.8489 181.639C92.791 179.287 92.5027 177.017 91.8151 174.87C90.0134 169.243 85.2526 164.93 79.5251 163.501Z" fill="url(#paint6_linear_4566_23126)"/>
<path d="M70.4268 164.557C70.6126 164.506 70.7218 164.314 70.6705 164.128C70.6192 163.942 70.427 163.833 70.2411 163.884C67.6907 164.588 64.1031 167.019 61.886 170.267C61.8851 170.268 61.8842 170.269 61.8834 170.271C59.9366 173.204 58.7162 176.891 59.0569 180.469C59.0572 180.472 59.0576 180.476 59.058 180.479C59.1397 181.132 59.2768 181.785 59.414 182.437C59.7031 183.812 59.9929 185.191 59.767 186.591C59.7363 186.781 59.8657 186.96 60.0561 186.991C60.2464 187.022 60.4256 186.892 60.4563 186.702C60.6924 185.238 60.3992 183.811 60.106 182.383C59.9704 181.722 59.8348 181.062 59.7515 180.398C59.431 177.017 60.5853 173.49 62.4639 170.659C64.5967 167.535 68.0505 165.213 70.4268 164.557Z" fill="url(#paint7_linear_4566_23126)"/>
<path d="M75.008 165.337C79.3911 165.07 83.7732 166.859 86.7162 170.286C86.8418 170.432 86.8251 170.652 86.6788 170.778C86.5325 170.903 86.3121 170.887 86.1865 170.74C83.3879 167.481 79.2178 165.779 75.0484 166.034C75.047 166.035 75.0455 166.035 75.044 166.035C69.7713 166.29 64.8334 169.867 63.0171 174.879C62.9514 175.06 62.7512 175.154 62.5699 175.088C62.3887 175.023 62.295 174.822 62.3606 174.641C64.274 169.361 69.4591 165.607 75.008 165.337Z" fill="url(#paint8_linear_4566_23126)"/>
<path d="M87.7798 171.811C87.6723 171.651 87.4554 171.608 87.2953 171.716C87.1353 171.823 87.0927 172.04 87.2002 172.2C88.8317 174.629 89.5062 177.273 89.7729 180.41C89.7893 180.602 89.9582 180.745 90.1504 180.728C90.3425 180.712 90.485 180.543 90.4686 180.351C90.1961 177.145 89.5005 174.373 87.7798 171.811Z" fill="url(#paint9_linear_4566_23126)"/>
<path d="M90.2352 181.833C90.4277 181.821 90.5934 181.967 90.6054 182.16C90.737 184.265 90.7382 186.647 90.5054 188.407C90.4801 188.598 90.3046 188.732 90.1135 188.707C89.9223 188.682 89.7879 188.506 89.8132 188.315C90.0376 186.619 90.0389 184.287 89.9086 182.203C89.8966 182.011 90.0428 181.845 90.2352 181.833Z" fill="url(#paint10_linear_4566_23126)"/>
<path d="M62.4899 176.57C62.5352 176.382 62.4199 176.194 62.2325 176.149C62.0451 176.103 61.8564 176.219 61.8112 176.406C61.5549 177.467 61.4219 178.557 61.4167 179.649C61.4112 180.773 61.6209 181.871 61.8307 182.97C62.0024 183.868 62.174 184.767 62.228 185.681C62.299 186.881 62.0465 188.084 61.6101 189.228C61.5414 189.408 61.6317 189.61 61.8119 189.679C61.992 189.747 62.1938 189.657 62.2625 189.477C62.7237 188.267 63.0033 186.964 62.925 185.64C62.8714 184.732 62.6998 183.838 62.5282 182.945C62.3188 181.855 62.1095 180.766 62.1149 179.652C62.1199 178.615 62.2463 177.579 62.4899 176.57Z" fill="url(#paint11_linear_4566_23126)"/>
<path d="M71.6504 168.812C71.7223 168.991 71.6355 169.194 71.4566 169.266C67.8373 170.719 65.1194 173.999 64.5649 177.867C64.3333 179.483 64.5835 181.084 64.8337 182.684C64.9746 183.585 65.1155 184.486 65.1703 185.39C65.2891 187.349 65.0659 189.501 63.7908 191.459C63.6856 191.62 63.4693 191.666 63.3078 191.561C63.1462 191.456 63.1005 191.239 63.2057 191.078C64.3674 189.294 64.5873 187.312 64.4733 185.432C64.4178 184.515 64.2778 183.604 64.1379 182.693C63.8868 181.058 63.6361 179.426 63.8738 177.768C64.4658 173.638 67.3604 170.159 71.1964 168.618C71.3753 168.546 71.5786 168.633 71.6504 168.812Z" fill="url(#paint12_linear_4566_23126)"/>
<path d="M83.9062 170.799C81.0509 168.125 76.9126 167.192 73.1515 168.017C72.9632 168.058 72.844 168.244 72.8853 168.433C72.9266 168.621 73.1128 168.74 73.3011 168.699C76.8626 167.918 80.7593 168.809 83.4289 171.309C85.6791 173.417 86.9857 176.483 87.3277 179.829C87.3473 180.021 87.5187 180.16 87.7105 180.141C87.9023 180.121 88.0419 179.95 88.0223 179.758C87.6672 176.284 86.3054 173.047 83.9062 170.799Z" fill="url(#paint13_linear_4566_23126)"/>
<path d="M87.9493 181.42C88.1411 181.401 88.3125 181.54 88.3322 181.732C88.6638 184.96 88.5209 188.447 88.0203 191.82C87.992 192.011 87.8145 192.143 87.6238 192.114C87.433 192.086 87.3014 191.908 87.3297 191.718C87.8232 188.391 87.9622 184.964 87.6376 181.803C87.6179 181.612 87.7575 181.44 87.9493 181.42Z" fill="url(#paint14_linear_4566_23126)"/>
<path d="M75.778 170.095C70.4283 170.095 66.0816 174.363 66.0816 179.64C66.0816 180.203 66.1316 180.756 66.227 181.293C66.2607 181.483 66.4419 181.609 66.6317 181.575C66.8216 181.542 66.9482 181.361 66.9144 181.171C66.8262 180.673 66.7798 180.162 66.7798 179.64C66.7798 174.759 70.8031 170.793 75.778 170.793C78.0261 170.793 80.0802 171.604 81.6568 172.942C81.8037 173.067 82.024 173.049 82.1488 172.902C82.2737 172.755 82.2557 172.535 82.1087 172.41C80.4098 170.967 78.1967 170.095 75.778 170.095Z" fill="url(#paint15_linear_4566_23126)"/>
<path d="M82.8909 173.712C83.0301 173.578 83.2511 173.583 83.3845 173.722C84.9252 175.329 85.4184 177.854 85.7447 179.973C86.1123 182.36 86.1684 184.689 86.1684 185.769C86.1684 185.961 86.0121 186.118 85.8193 186.118C85.6265 186.118 85.4702 185.961 85.4702 185.769C85.4702 184.706 85.4146 182.417 85.0546 180.079C84.7517 178.112 84.315 175.701 82.8806 174.205C82.7471 174.066 82.7518 173.845 82.8909 173.712Z" fill="url(#paint16_linear_4566_23126)"/>
<path d="M86.0798 187.768C86.0951 187.576 85.9517 187.407 85.7595 187.392C85.5673 187.377 85.3991 187.52 85.3838 187.712C85.2123 189.863 84.9883 192.011 84.5337 193.995C84.4907 194.183 84.6081 194.37 84.7961 194.413C84.984 194.457 85.1712 194.339 85.2143 194.151C85.6809 192.115 85.9079 189.924 86.0798 187.768Z" fill="url(#paint17_linear_4566_23126)"/>
<path d="M66.7889 182.578C66.9781 182.54 67.1616 182.664 67.1989 182.853C67.937 186.601 67.4271 190.006 65.4724 192.989C65.3667 193.15 65.1503 193.195 64.989 193.09C64.8278 192.984 64.7827 192.768 64.8884 192.606C66.7276 189.8 67.2226 186.587 66.5138 182.988C66.4766 182.798 66.5997 182.615 66.7889 182.578Z" fill="url(#paint18_linear_4566_23126)"/>
<path d="M75.778 172.366C72.3053 172.366 68.8986 175.055 68.5509 178.433C68.3986 179.912 68.6125 181.369 68.8264 182.826C69.0132 184.099 69.2001 185.372 69.1433 186.661C69.0135 189.61 68.1481 192.045 66.6612 194.05C66.5464 194.205 66.5788 194.424 66.7337 194.538C66.8886 194.653 67.1072 194.621 67.2221 194.466C68.7991 192.339 69.7055 189.768 69.8409 186.692C69.8974 185.409 69.7099 184.14 69.5226 182.871C69.3084 181.421 69.0944 179.972 69.2454 178.504C69.5509 175.537 72.6057 173.065 75.778 173.065C77.2575 173.065 81.0857 173.866 82.3034 177.833C83.0666 180.319 83.2747 183.683 83.0899 186.951C82.905 190.219 82.3301 193.345 81.557 195.349C81.4876 195.529 81.5772 195.731 81.7571 195.801C81.937 195.87 82.1391 195.78 82.2085 195.601C83.0173 193.504 83.5999 190.299 83.787 186.991C83.974 183.683 83.7684 180.226 82.9709 177.628C81.6192 173.224 77.3819 172.366 75.778 172.366Z" fill="url(#paint19_linear_4566_23126)"/>
<path d="M70.4054 192.99C70.5669 193.095 70.6125 193.311 70.5071 193.473C70.2906 193.805 70.1002 194.152 69.9098 194.499C69.7193 194.847 69.5288 195.194 69.3123 195.526C69.207 195.687 68.9907 195.733 68.8292 195.628C68.6677 195.522 68.6221 195.306 68.7275 195.144C68.944 194.813 69.1344 194.465 69.3249 194.118C69.5153 193.771 69.7058 193.423 69.9223 193.091C70.0276 192.93 70.2439 192.884 70.4054 192.99Z" fill="url(#paint20_linear_4566_23126)"/>
<path d="M73.3947 175.99C73.555 175.883 73.598 175.666 73.4908 175.506C73.3836 175.346 73.1668 175.303 73.0066 175.41C71.6241 176.335 70.776 177.606 70.776 179.469C70.776 180.578 70.9725 181.485 71.174 182.414C71.4756 183.806 71.6801 185.194 71.6434 186.624C71.5987 188.359 71.2592 189.945 70.6064 191.456C70.53 191.633 70.6114 191.838 70.7884 191.915C70.9654 191.991 71.1709 191.91 71.2474 191.733C71.9375 190.135 72.2946 188.461 72.3414 186.642C72.3796 185.156 72.1693 183.713 71.8566 182.267C71.6546 181.333 71.4742 180.499 71.4742 179.469C71.4742 177.873 72.1763 176.805 73.3947 175.99Z" fill="url(#paint21_linear_4566_23126)"/>
<path d="M74.7573 174.764C76.206 174.468 77.7649 174.833 78.9124 175.762C80.962 177.421 81.2346 180.446 81.4555 182.898L81.4667 183.023C81.7522 186.183 81.4254 189.252 80.7672 192.335C80.727 192.523 80.5415 192.644 80.3529 192.603C80.1644 192.563 80.0442 192.378 80.0844 192.189C80.7327 189.153 81.0487 186.156 80.7713 183.086C80.7621 182.984 80.753 182.881 80.7438 182.777L80.7436 182.775C80.5474 180.56 80.3017 177.785 78.4731 176.305C77.4921 175.511 76.1466 175.193 74.8968 175.448C74.7079 175.486 74.5235 175.365 74.485 175.176C74.4465 174.987 74.5684 174.802 74.7573 174.764Z" fill="url(#paint22_linear_4566_23126)"/>
<path d="M80.2738 194.072C80.3214 193.885 80.2085 193.695 80.0216 193.648C79.8348 193.6 79.6448 193.713 79.5972 193.9C79.3861 194.729 79.0609 195.477 78.6486 196.166C78.5496 196.331 78.6034 196.546 78.7688 196.645C78.9343 196.744 79.1487 196.69 79.2477 196.525C79.6921 195.782 80.0448 194.971 80.2738 194.072Z" fill="url(#paint23_linear_4566_23126)"/>
<path d="M78.5667 189.006C78.7581 189.028 78.895 189.202 78.8723 189.394C78.5426 192.18 77.7982 194.665 76.6038 196.82C76.5104 196.989 76.2979 197.05 76.1293 196.956C75.9606 196.863 75.8997 196.65 75.9931 196.482C77.1362 194.419 77.8579 192.024 78.1789 189.311C78.2016 189.12 78.3752 188.983 78.5667 189.006Z" fill="url(#paint24_linear_4566_23126)"/>
<path d="M78.4947 179.286C78.2527 177.993 77.1427 177.003 75.7952 177.003C73.9706 177.003 72.6904 178.843 73.1415 180.554C73.9048 183.574 74.0301 186.485 73.5134 189.289L73.513 189.291C73.0646 191.809 72.2034 194.073 71.0288 195.992C70.9281 196.157 70.9798 196.372 71.1443 196.472C71.3087 196.573 71.5236 196.521 71.6243 196.357C72.847 194.359 73.7374 192.012 74.2002 189.415C74.7368 186.503 74.6038 183.489 73.818 180.381L73.817 180.377C73.4786 179.097 74.4218 177.702 75.7952 177.702C76.7863 177.702 77.6232 178.431 77.808 179.412C78.3161 182.359 78.5808 185.093 78.3923 187.446C78.3769 187.638 78.5203 187.806 78.7125 187.822C78.9047 187.837 79.0729 187.694 79.0883 187.502C79.2837 185.062 79.0079 182.262 78.4956 179.291C78.4953 179.289 78.495 179.287 78.4947 179.286Z" fill="url(#paint25_linear_4566_23126)"/>
<path d="M74.7535 194.406C74.925 194.494 74.9926 194.705 74.9045 194.876L73.9794 196.676C73.8913 196.848 73.6808 196.915 73.5093 196.827C73.3378 196.739 73.2703 196.529 73.3584 196.357L74.2834 194.557C74.3716 194.385 74.582 194.318 74.7535 194.406Z" fill="url(#paint26_linear_4566_23126)"/>
<path d="M76.0549 179.622C76.0108 179.435 75.8229 179.318 75.6352 179.362C75.4475 179.406 75.3311 179.594 75.3752 179.782C76.5525 184.794 76.3908 189.194 74.9568 192.943C74.8879 193.123 74.978 193.325 75.1581 193.394C75.3382 193.463 75.54 193.372 75.6089 193.192C77.1041 189.284 77.2561 184.736 76.0549 179.622Z" fill="url(#paint27_linear_4566_23126)"/>
</g>
<path fill-rule="evenodd" clip-rule="evenodd" d="M15.0074 0C6.70634 0 -0.0179392 6.96006 3.59541e-05 15.5336L0.421443 216.534C0.439363 225.081 7.15312 232 15.4288 232H135.993C144.294 232 151.018 225.04 151 216.466L150.579 15.4664C150.561 6.91915 143.847 0 135.571 0H100H52H15.0074ZM52 11H15.0074C12.5974 11 10.6452 13.0207 10.6504 15.5097L11.0718 216.51C11.077 218.991 13.0262 221 15.4288 221H135.993C138.403 221 140.355 218.979 140.35 216.49L139.928 15.4903C139.923 13.0088 137.974 11 135.571 11H100C100 14.3137 97.3137 17 94 17H58C54.6863 17 52 14.3137 52 11Z" fill="url(#paint28_radial_4566_23126)"/>
<path fill-rule="evenodd" clip-rule="evenodd" d="M15.0074 0C6.70634 0 -0.0179392 6.96006 3.59541e-05 15.5336L0.421443 216.534C0.439363 225.081 7.15312 232 15.4288 232H135.993C144.294 232 151.018 225.04 151 216.466L150.579 15.4664C150.561 6.91915 143.847 0 135.571 0H100H52H15.0074ZM52 11H15.0074C12.5974 11 10.6452 13.0207 10.6504 15.5097L11.0718 216.51C11.077 218.991 13.0262 221 15.4288 221H135.993C138.403 221 140.355 218.979 140.35 216.49L139.928 15.4903C139.923 13.0088 137.974 11 135.571 11H100C100 14.3137 97.3137 17 94 17H58C54.6863 17 52 14.3137 52 11Z" fill="url(#paint29_linear_4566_23126)"/>
<circle cx="76" cy="11" r="2" fill="white"/>
<defs>
<filter id="filter0_b_4566_23126" x="-12.6455" y="-12.6779" width="176.291" height="256.356" filterUnits="userSpaceOnUse" color-interpolation-filters="sRGB">
<feFlood flood-opacity="0" result="BackgroundImageFix"/>
<feGaussianBlur in="BackgroundImageFix" stdDeviation="6.33894"/>
<feComposite in2="SourceAlpha" operator="in" result="effect1_backgroundBlur_4566_23126"/>
<feBlend mode="normal" in="SourceGraphic" in2="effect1_backgroundBlur_4566_23126" result="shape"/>
</filter>
<filter id="filter1_b_4566_23126" x="40" y="145" width="71" height="71" filterUnits="userSpaceOnUse" color-interpolation-filters="sRGB">
<feFlood flood-opacity="0" result="BackgroundImageFix"/>
<feGaussianBlur in="BackgroundImageFix" stdDeviation="4"/>
<feComposite in2="SourceAlpha" operator="in" result="effect1_backgroundBlur_4566_23126"/>
<feBlend mode="normal" in="SourceGraphic" in2="effect1_backgroundBlur_4566_23126" result="shape"/>
</filter>
<linearGradient id="paint0_linear_4566_23126" x1="-62.95" y1="-120.044" x2="174.306" y2="243.5" gradientUnits="userSpaceOnUse">
<stop stop-color="white" stop-opacity="0.3"/>
<stop offset="1" stop-color="white" stop-opacity="0"/>
</linearGradient>
<linearGradient id="paint1_linear_4566_23126" x1="-25.5" y1="-9" x2="371.294" y2="542.294" gradientUnits="userSpaceOnUse">
<stop stop-color="#727272" stop-opacity="0"/>
<stop offset="1" stop-color="#777777" stop-opacity="0.3"/>
</linearGradient>
<linearGradient id="paint2_linear_4566_23126" x1="75" y1="47.9286" x2="75" y2="106" gradientUnits="userSpaceOnUse">
<stop stop-color="#FFC875"/>
<stop offset="0.977659" stop-color="#FF931E"/>
</linearGradient>
<linearGradient id="paint3_linear_4566_23126" x1="24.8132" y1="124.418" x2="69.2576" y2="228.945" gradientUnits="userSpaceOnUse">
<stop stop-color="white" stop-opacity="0.3"/>
<stop offset="1" stop-color="white" stop-opacity="0"/>
</linearGradient>
<linearGradient id="paint4_linear_4566_23126" x1="24.8132" y1="124.418" x2="69.2576" y2="228.945" gradientUnits="userSpaceOnUse">
<stop stop-color="#777777" stop-opacity="0.3"/>
<stop offset="1" stop-color="#727272" stop-opacity="0"/>
</linearGradient>
<radialGradient id="paint5_radial_4566_23126" cx="0" cy="0" r="1" gradientUnits="userSpaceOnUse" gradientTransform="translate(91.7827 210.942) rotate(-131.116) scale(67.7428 52.3182)">
<stop stop-color="white" stop-opacity="0.3"/>
<stop offset="1" stop-color="#151515" stop-opacity="0"/>
</radialGradient>
<linearGradient id="paint6_linear_4566_23126" x1="75.9245" y1="164.093" x2="75.9245" y2="197" gradientUnits="userSpaceOnUse">
<stop stop-color="#FFC875"/>
<stop offset="0.977659" stop-color="#FF931E"/>
</linearGradient>
<linearGradient id="paint7_linear_4566_23126" x1="75.9245" y1="164.093" x2="75.9245" y2="197" gradientUnits="userSpaceOnUse">
<stop stop-color="#FFC875"/>
<stop offset="0.977659" stop-color="#FF931E"/>
</linearGradient>
<linearGradient id="paint8_linear_4566_23126" x1="75.9245" y1="164.093" x2="75.9245" y2="197" gradientUnits="userSpaceOnUse">
<stop stop-color="#FFC875"/>
<stop offset="0.977659" stop-color="#FF931E"/>
</linearGradient>
<linearGradient id="paint9_linear_4566_23126" x1="75.9245" y1="164.093" x2="75.9245" y2="197" gradientUnits="userSpaceOnUse">
<stop stop-color="#FFC875"/>
<stop offset="0.977659" stop-color="#FF931E"/>
</linearGradient>
<linearGradient id="paint10_linear_4566_23126" x1="75.9245" y1="164.093" x2="75.9245" y2="197" gradientUnits="userSpaceOnUse">
<stop stop-color="#FFC875"/>
<stop offset="0.977659" stop-color="#FF931E"/>
</linearGradient>
<linearGradient id="paint11_linear_4566_23126" x1="75.9245" y1="164.093" x2="75.9245" y2="197" gradientUnits="userSpaceOnUse">
<stop stop-color="#FFC875"/>
<stop offset="0.977659" stop-color="#FF931E"/>
</linearGradient>
<linearGradient id="paint12_linear_4566_23126" x1="75.9245" y1="164.093" x2="75.9245" y2="197" gradientUnits="userSpaceOnUse">
<stop stop-color="#FFC875"/>
<stop offset="0.977659" stop-color="#FF931E"/>
</linearGradient>
<linearGradient id="paint13_linear_4566_23126" x1="75.9245" y1="164.093" x2="75.9245" y2="197" gradientUnits="userSpaceOnUse">
<stop stop-color="#FFC875"/>
<stop offset="0.977659" stop-color="#FF931E"/>
</linearGradient>
<linearGradient id="paint14_linear_4566_23126" x1="75.9245" y1="164.093" x2="75.9245" y2="197" gradientUnits="userSpaceOnUse">
<stop stop-color="#FFC875"/>
<stop offset="0.977659" stop-color="#FF931E"/>
</linearGradient>
<linearGradient id="paint15_linear_4566_23126" x1="75.9245" y1="164.093" x2="75.9245" y2="197" gradientUnits="userSpaceOnUse">
<stop stop-color="#FFC875"/>
<stop offset="0.977659" stop-color="#FF931E"/>
</linearGradient>
<linearGradient id="paint16_linear_4566_23126" x1="75.9245" y1="164.093" x2="75.9245" y2="197" gradientUnits="userSpaceOnUse">
<stop stop-color="#FFC875"/>
<stop offset="0.977659" stop-color="#FF931E"/>
</linearGradient>
<linearGradient id="paint17_linear_4566_23126" x1="75.9245" y1="164.093" x2="75.9245" y2="197" gradientUnits="userSpaceOnUse">
<stop stop-color="#FFC875"/>
<stop offset="0.977659" stop-color="#FF931E"/>
</linearGradient>
<linearGradient id="paint18_linear_4566_23126" x1="75.9245" y1="164.093" x2="75.9245" y2="197" gradientUnits="userSpaceOnUse">
<stop stop-color="#FFC875"/>
<stop offset="0.977659" stop-color="#FF931E"/>
</linearGradient>
<linearGradient id="paint19_linear_4566_23126" x1="75.9245" y1="164.093" x2="75.9245" y2="197" gradientUnits="userSpaceOnUse">
<stop stop-color="#FFC875"/>
<stop offset="0.977659" stop-color="#FF931E"/>
</linearGradient>
<linearGradient id="paint20_linear_4566_23126" x1="75.9245" y1="164.093" x2="75.9245" y2="197" gradientUnits="userSpaceOnUse">
<stop stop-color="#FFC875"/>
<stop offset="0.977659" stop-color="#FF931E"/>
</linearGradient>
<linearGradient id="paint21_linear_4566_23126" x1="75.9245" y1="164.093" x2="75.9245" y2="197" gradientUnits="userSpaceOnUse">
<stop stop-color="#FFC875"/>
<stop offset="0.977659" stop-color="#FF931E"/>
</linearGradient>
<linearGradient id="paint22_linear_4566_23126" x1="75.9245" y1="164.093" x2="75.9245" y2="197" gradientUnits="userSpaceOnUse">
<stop stop-color="#FFC875"/>
<stop offset="0.977659" stop-color="#FF931E"/>
</linearGradient>
<linearGradient id="paint23_linear_4566_23126" x1="75.9245" y1="164.093" x2="75.9245" y2="197" gradientUnits="userSpaceOnUse">
<stop stop-color="#FFC875"/>
<stop offset="0.977659" stop-color="#FF931E"/>
</linearGradient>
<linearGradient id="paint24_linear_4566_23126" x1="75.9245" y1="164.093" x2="75.9245" y2="197" gradientUnits="userSpaceOnUse">
<stop stop-color="#FFC875"/>
<stop offset="0.977659" stop-color="#FF931E"/>
</linearGradient>
<linearGradient id="paint25_linear_4566_23126" x1="75.9245" y1="164.093" x2="75.9245" y2="197" gradientUnits="userSpaceOnUse">
<stop stop-color="#FFC875"/>
<stop offset="0.977659" stop-color="#FF931E"/>
</linearGradient>
<linearGradient id="paint26_linear_4566_23126" x1="75.9245" y1="164.093" x2="75.9245" y2="197" gradientUnits="userSpaceOnUse">
<stop stop-color="#FFC875"/>
<stop offset="0.977659" stop-color="#FF931E"/>
</linearGradient>
<linearGradient id="paint27_linear_4566_23126" x1="75.9245" y1="164.093" x2="75.9245" y2="197" gradientUnits="userSpaceOnUse">
<stop stop-color="#FFC875"/>
<stop offset="0.977659" stop-color="#FF931E"/>
</linearGradient>
<radialGradient id="paint28_radial_4566_23126" cx="0" cy="0" r="1" gradientUnits="userSpaceOnUse" gradientTransform="translate(121.671 243.909) rotate(-120.402) scale(249.601 169.838)">
<stop stop-color="white" stop-opacity="0.3"/>
<stop offset="1" stop-color="#151515" stop-opacity="0.05"/>
</radialGradient>
<linearGradient id="paint29_linear_4566_23126" x1="-63.6584" y1="-120.564" x2="174.722" y2="244.333" gradientUnits="userSpaceOnUse">
<stop stop-color="#777777" stop-opacity="0.3"/>
<stop offset="1" stop-color="#727272" stop-opacity="0"/>
</linearGradient>
<clipPath id="clip0_4566_23126">
<rect width="34" height="34" fill="white" transform="translate(59 163)"/>
</clipPath>
</defs>
</svg>
