<svg width="32" height="32" viewBox="0 0 32 32" fill="none" xmlns="http://www.w3.org/2000/svg">
<path d="M26.667 16.2663V18.533C26.667 22.733 24.267 24.533 20.667 24.533H8.66699C5.06699 24.533 2.66699 22.733 2.66699 18.533V11.333C2.66699 7.13301 5.06699 5.33301 8.66699 5.33301H12.267C12.0937 5.83967 12.0003 6.39967 12.0003 6.99967V12.1997C12.0003 13.493 12.427 14.5864 13.187 15.3464C13.947 16.1064 15.0403 16.533 16.3337 16.533V18.3864C16.3337 19.0664 17.107 19.4796 17.6803 19.1063L21.5337 16.533H25.0003C25.6003 16.533 26.1603 16.4396 26.667 16.2663Z" stroke="#FF931E" stroke-width="1.5" stroke-miterlimit="10" stroke-linecap="round" stroke-linejoin="round"/>
<path d="M29.3333 7.00033V12.2004C29.3333 14.187 28.32 15.6803 26.6667 16.2669C26.16 16.4403 25.6 16.5337 25 16.5337H21.5333L17.68 19.1069C17.1067 19.4803 16.3333 19.067 16.3333 18.387V16.5337C15.04 16.5337 13.9467 16.107 13.1867 15.347C12.4267 14.587 12 13.4937 12 12.2004V7.00033C12 6.40033 12.0933 5.84033 12.2667 5.33366C12.8533 3.68033 14.3467 2.66699 16.3333 2.66699H25C27.6 2.66699 29.3333 4.40033 29.3333 7.00033Z" stroke="#FF931E" stroke-width="1.5" stroke-miterlimit="10" stroke-linecap="round" stroke-linejoin="round"/>
<path d="M9.86621 29.333H19.4662" stroke="#FF931E" stroke-width="1.5" stroke-miterlimit="10" stroke-linecap="round" stroke-linejoin="round"/>
<path d="M14.667 24.5332V29.3332" stroke="#FF931E" stroke-width="1.5" stroke-miterlimit="10" stroke-linecap="round" stroke-linejoin="round"/>
<path d="M24.6607 9.66667H24.6727" stroke="#FF931E" stroke-width="1.5" stroke-linecap="round" stroke-linejoin="round"/>
<path d="M20.9273 9.66667H20.9393" stroke="#FF931E" stroke-width="1.5" stroke-linecap="round" stroke-linejoin="round"/>
<path d="M17.1939 9.66667H17.2059" stroke="#FF931E" stroke-width="1.5" stroke-linecap="round" stroke-linejoin="round"/>
</svg>
