<svg width="45" height="45" viewBox="0 0 45 45" fill="none" xmlns="http://www.w3.org/2000/svg">
<mask id="mask0_3183_18238" style="mask-type:luminance" maskUnits="userSpaceOnUse" x="0" y="0" width="45" height="45">
<rect width="45" height="45" rx="22.5" fill="white"/>
</mask>
<g mask="url(#mask0_3183_18238)">
<rect x="-4.5" width="51.75" height="45" rx="2" fill="white"/>
<path fill-rule="evenodd" clip-rule="evenodd" d="M59 0H-4V3H59V0ZM58.5 6H-4.5V9H58.5V6ZM-4.5 12H58.5V15H-4.5V12ZM58.5 18H-4.5V21H58.5V18ZM-4.5 24H58.5V27H-4.5V24ZM58.5 30H-4.5V33H58.5V30ZM-4.5 36H58.5V39H-4.5V36ZM58.5 42H-4.5V45H58.5V42Z" fill="#D02F44"/>
<rect x="-4.5" width="27" height="21" fill="#2E3192"/>
<path d="M1.5 0L1.83677 1.03647H2.92658L2.04491 1.67705L2.38168 2.71353L1.5 2.07295L0.618322 2.71353L0.955093 1.67705L0.0734153 1.03647H1.16323L1.5 0Z" fill="white"/>
<path d="M4.5 0L4.83677 1.03647H5.92658L5.04491 1.67705L5.38168 2.71353L4.5 2.07295L3.61832 2.71353L3.95509 1.67705L3.07342 1.03647H4.16323L4.5 0Z" fill="white"/>
<path d="M7.5 0L7.83677 1.03647H8.92658L8.04491 1.67705L8.38168 2.71353L7.5 2.07295L6.61832 2.71353L6.95509 1.67705L6.07342 1.03647H7.16323L7.5 0Z" fill="white"/>
<path d="M10.5 0L10.8368 1.03647H11.9266L11.0449 1.67705L11.3817 2.71353L10.5 2.07295L9.61832 2.71353L9.95509 1.67705L9.07342 1.03647H10.1632L10.5 0Z" fill="white"/>
<path d="M13.5 0L13.8368 1.03647H14.9266L14.0449 1.67705L14.3817 2.71353L13.5 2.07295L12.6183 2.71353L12.9551 1.67705L12.0734 1.03647H13.1632L13.5 0Z" fill="white"/>
<path d="M16.5 0L16.8368 1.03647H17.9266L17.0449 1.67705L17.3817 2.71353L16.5 2.07295L15.6183 2.71353L15.9551 1.67705L15.0734 1.03647H16.1632L16.5 0Z" fill="white"/>
<path d="M19.5 0L19.8368 1.03647H20.9266L20.0449 1.67705L20.3817 2.71353L19.5 2.07295L18.6183 2.71353L18.9551 1.67705L18.0734 1.03647H19.1632L19.5 0Z" fill="white"/>
<path d="M1.5 4L1.83677 5.03647H2.92658L2.04491 5.67705L2.38168 6.71353L1.5 6.07295L0.618322 6.71353L0.955093 5.67705L0.0734153 5.03647H1.16323L1.5 4Z" fill="white"/>
<path d="M4.5 4L4.83677 5.03647H5.92658L5.04491 5.67705L5.38168 6.71353L4.5 6.07295L3.61832 6.71353L3.95509 5.67705L3.07342 5.03647H4.16323L4.5 4Z" fill="white"/>
<path d="M7.5 4L7.83677 5.03647H8.92658L8.04491 5.67705L8.38168 6.71353L7.5 6.07295L6.61832 6.71353L6.95509 5.67705L6.07342 5.03647H7.16323L7.5 4Z" fill="white"/>
<path d="M10.5 4L10.8368 5.03647H11.9266L11.0449 5.67705L11.3817 6.71353L10.5 6.07295L9.61832 6.71353L9.95509 5.67705L9.07342 5.03647H10.1632L10.5 4Z" fill="white"/>
<path d="M13.5 4L13.8368 5.03647H14.9266L14.0449 5.67705L14.3817 6.71353L13.5 6.07295L12.6183 6.71353L12.9551 5.67705L12.0734 5.03647H13.1632L13.5 4Z" fill="white"/>
<path d="M16.5 4L16.8368 5.03647H17.9266L17.0449 5.67705L17.3817 6.71353L16.5 6.07295L15.6183 6.71353L15.9551 5.67705L15.0734 5.03647H16.1632L16.5 4Z" fill="white"/>
<path d="M19.5 4L19.8368 5.03647H20.9266L20.0449 5.67705L20.3817 6.71353L19.5 6.07295L18.6183 6.71353L18.9551 5.67705L18.0734 5.03647H19.1632L19.5 4Z" fill="white"/>
<path d="M1.5 8L1.83677 9.03647H2.92658L2.04491 9.67705L2.38168 10.7135L1.5 10.0729L0.618322 10.7135L0.955093 9.67705L0.0734153 9.03647H1.16323L1.5 8Z" fill="white"/>
<path d="M4.5 8L4.83677 9.03647H5.92658L5.04491 9.67705L5.38168 10.7135L4.5 10.0729L3.61832 10.7135L3.95509 9.67705L3.07342 9.03647H4.16323L4.5 8Z" fill="white"/>
<path d="M7.5 8L7.83677 9.03647H8.92658L8.04491 9.67705L8.38168 10.7135L7.5 10.0729L6.61832 10.7135L6.95509 9.67705L6.07342 9.03647H7.16323L7.5 8Z" fill="white"/>
<path d="M10.5 8L10.8368 9.03647H11.9266L11.0449 9.67705L11.3817 10.7135L10.5 10.0729L9.61832 10.7135L9.95509 9.67705L9.07342 9.03647H10.1632L10.5 8Z" fill="white"/>
<path d="M13.5 8L13.8368 9.03647H14.9266L14.0449 9.67705L14.3817 10.7135L13.5 10.0729L12.6183 10.7135L12.9551 9.67705L12.0734 9.03647H13.1632L13.5 8Z" fill="white"/>
<path d="M16.5 8L16.8368 9.03647H17.9266L17.0449 9.67705L17.3817 10.7135L16.5 10.0729L15.6183 10.7135L15.9551 9.67705L15.0734 9.03647H16.1632L16.5 8Z" fill="white"/>
<path d="M19.5 8L19.8368 9.03647H20.9266L20.0449 9.67705L20.3817 10.7135L19.5 10.0729L18.6183 10.7135L18.9551 9.67705L18.0734 9.03647H19.1632L19.5 8Z" fill="white"/>
<path d="M1.5 12L1.83677 13.0365H2.92658L2.04491 13.6771L2.38168 14.7135L1.5 14.0729L0.618322 14.7135L0.955093 13.6771L0.0734153 13.0365H1.16323L1.5 12Z" fill="white"/>
<path d="M4.5 12L4.83677 13.0365H5.92658L5.04491 13.6771L5.38168 14.7135L4.5 14.0729L3.61832 14.7135L3.95509 13.6771L3.07342 13.0365H4.16323L4.5 12Z" fill="white"/>
<path d="M7.5 12L7.83677 13.0365H8.92658L8.04491 13.6771L8.38168 14.7135L7.5 14.0729L6.61832 14.7135L6.95509 13.6771L6.07342 13.0365H7.16323L7.5 12Z" fill="white"/>
<path d="M10.5 12L10.8368 13.0365H11.9266L11.0449 13.6771L11.3817 14.7135L10.5 14.0729L9.61832 14.7135L9.95509 13.6771L9.07342 13.0365H10.1632L10.5 12Z" fill="white"/>
<path d="M13.5 12L13.8368 13.0365H14.9266L14.0449 13.6771L14.3817 14.7135L13.5 14.0729L12.6183 14.7135L12.9551 13.6771L12.0734 13.0365H13.1632L13.5 12Z" fill="white"/>
<path d="M16.5 12L16.8368 13.0365H17.9266L17.0449 13.6771L17.3817 14.7135L16.5 14.0729L15.6183 14.7135L15.9551 13.6771L15.0734 13.0365H16.1632L16.5 12Z" fill="white"/>
<path d="M19.5 12L19.8368 13.0365H20.9266L20.0449 13.6771L20.3817 14.7135L19.5 14.0729L18.6183 14.7135L18.9551 13.6771L18.0734 13.0365H19.1632L19.5 12Z" fill="white"/>
<path d="M1.5 16L1.83677 17.0365H2.92658L2.04491 17.6771L2.38168 18.7135L1.5 18.0729L0.618322 18.7135L0.955093 17.6771L0.0734153 17.0365H1.16323L1.5 16Z" fill="white"/>
<path d="M4.5 16L4.83677 17.0365H5.92658L5.04491 17.6771L5.38168 18.7135L4.5 18.0729L3.61832 18.7135L3.95509 17.6771L3.07342 17.0365H4.16323L4.5 16Z" fill="white"/>
<path d="M7.5 16L7.83677 17.0365H8.92658L8.04491 17.6771L8.38168 18.7135L7.5 18.0729L6.61832 18.7135L6.95509 17.6771L6.07342 17.0365H7.16323L7.5 16Z" fill="white"/>
<path d="M10.5 16L10.8368 17.0365H11.9266L11.0449 17.6771L11.3817 18.7135L10.5 18.0729L9.61832 18.7135L9.95509 17.6771L9.07342 17.0365H10.1632L10.5 16Z" fill="white"/>
<path d="M13.5 16L13.8368 17.0365H14.9266L14.0449 17.6771L14.3817 18.7135L13.5 18.0729L12.6183 18.7135L12.9551 17.6771L12.0734 17.0365H13.1632L13.5 16Z" fill="white"/>
<path d="M16.5 16L16.8368 17.0365H17.9266L17.0449 17.6771L17.3817 18.7135L16.5 18.0729L15.6183 18.7135L15.9551 17.6771L15.0734 17.0365H16.1632L16.5 16Z" fill="white"/>
<path d="M19.5 16L19.8368 17.0365H20.9266L20.0449 17.6771L20.3817 18.7135L19.5 18.0729L18.6183 18.7135L18.9551 17.6771L18.0734 17.0365H19.1632L19.5 16Z" fill="white"/>
</g>
</svg>
