<svg width="266" height="216" viewBox="0 0 266 216" fill="none" xmlns="http://www.w3.org/2000/svg">
<path d="M2 70.4297C11.0742 67.405 30.8921 66.0741 37.5708 84.9484C44.2495 103.823 55.5983 105.88 60.4378 104.549" stroke="#23CF72" stroke-width="3" stroke-linecap="round"/>
<path d="M205.625 106.651C214.699 103.626 234.517 102.295 241.196 121.169C247.874 140.044 259.223 142.101 264.063 140.77" stroke="#23CF72" stroke-width="3" stroke-linecap="round"/>
<path d="M123.573 42.5701C126.775 38.609 132.814 38.609 136.016 42.5701L142.746 50.8953C144.735 53.3563 147.988 54.4134 151.045 53.5917L161.382 50.8121C166.301 49.4896 171.187 53.0393 171.449 58.1259L172 68.8168C172.163 71.9772 174.174 74.7445 177.129 75.8761L187.126 79.7038C191.883 81.525 193.749 87.2685 190.971 91.5378L185.133 100.511C183.407 103.163 183.407 106.584 185.133 109.237L190.971 118.21C193.749 122.479 191.883 128.222 187.126 130.043L177.129 133.871C174.174 135.003 172.163 137.77 172 140.931L171.449 151.621C171.187 156.708 166.301 160.258 161.382 158.935L151.044 156.156C147.988 155.334 144.735 156.391 142.746 158.852L136.016 167.177C132.814 171.138 126.775 171.138 123.573 167.177L116.843 158.852C114.854 156.391 111.601 155.334 108.545 156.156L98.2068 158.935C93.2881 160.258 88.4024 156.708 88.1402 151.621L87.5891 140.931C87.4262 137.77 85.4156 135.003 82.4602 133.871L72.4629 130.043C67.7063 128.222 65.8401 122.479 68.6178 118.209L74.4559 109.237C76.1818 106.584 76.1818 103.163 74.4559 100.511L68.6178 91.5378C65.8401 87.2685 67.7063 81.525 72.4629 79.7038L82.4602 75.8761C85.4156 74.7445 87.4262 71.9772 87.5891 68.8168L88.1402 58.1259C88.4024 53.0393 93.2881 49.4896 98.2068 50.8121L108.545 53.5917C111.601 54.4134 114.854 53.3563 116.843 50.8953L123.573 42.5701Z" fill="#23CF72"/>
<path d="M147.249 92.8737L123.249 116.874L112.34 105.965" stroke="white" stroke-width="5" stroke-linecap="round" stroke-linejoin="round"/>
<path d="M209.498 35.8347C209.813 33.9249 212.558 33.9249 212.873 35.8347L213.846 41.7419L219.753 42.7149C221.663 43.0294 221.663 45.7753 219.753 46.0899L213.846 47.0629L212.873 52.9701C212.558 54.8798 209.813 54.8798 209.498 52.9701L208.525 47.0629L202.618 46.0899C200.708 45.7753 200.708 43.0294 202.618 42.7149L208.525 41.7419L209.498 35.8347Z" fill="#C9D7E9"/>
<path d="M49.3344 147.495C49.6332 145.68 52.2418 145.68 52.5406 147.495L53.465 153.106L59.0768 154.031C60.8911 154.33 60.8911 156.938 59.0768 157.237L53.465 158.161L52.5406 163.773C52.2418 165.587 49.6332 165.587 49.3344 163.773L48.41 158.161L42.7982 157.237C40.9839 156.938 40.9839 154.33 42.7982 154.031L48.41 153.106L49.3344 147.495Z" fill="#C9D7E9"/>
<path d="M44.2211 40.6019C44.4413 39.2651 46.3634 39.2651 46.5836 40.6019L47.2647 44.7369L51.3997 45.4181C52.7365 45.6382 52.7365 47.5604 51.3997 47.7806L47.2647 48.4617L46.5836 52.5967C46.3634 53.9335 44.4413 53.9335 44.2211 52.5967L43.54 48.4617L39.4049 47.7806C38.0681 47.5604 38.0681 45.6382 39.4049 45.4181L43.54 44.7369L44.2211 40.6019Z" fill="#C9D7E9"/>
<path d="M219.112 167.137C219.332 165.8 221.254 165.8 221.474 167.137L222.155 171.272L226.29 171.953C227.627 172.173 227.627 174.095 226.29 174.315L222.155 174.996L221.474 179.131C221.254 180.468 219.332 180.468 219.112 179.131L218.431 174.996L214.296 174.315C212.959 174.095 212.959 172.173 214.296 171.953L218.431 171.272L219.112 167.137Z" fill="#C9D7E9"/>
<circle cx="213.621" cy="84.0499" r="4" fill="#23CF72" fill-opacity="0.14"/>
<circle cx="112.34" cy="4" r="4" fill="#23CF72" fill-opacity="0.14"/>
<circle cx="168.111" cy="211.473" r="4" fill="#23CF72" fill-opacity="0.14"/>
<circle cx="90.9355" cy="187.102" r="2.5" fill="#23CF72" fill-opacity="0.14"/>
</svg>
