<svg width="343" height="248" viewBox="0 0 343 248" fill="none" xmlns="http://www.w3.org/2000/svg">
<g clip-path="url(#clip0_319_12795)">
<path opacity="0.5" d="M343.782 51.5246C344.872 45.2781 341.698 40.6608 338.296 37.8174C335.732 35.6737 332.098 36.1077 329.31 37.9521L72.6344 207.79C68.7509 210.36 67.1551 215.27 68.7858 219.632L69.6244 221.875C71.0617 225.72 74.6741 228.295 78.7779 228.373C109.544 228.963 159.057 230.023 184.499 230.6C191.955 230.769 204.567 223.107 207.676 216.328C210.173 210.885 212.891 204.663 215.029 199.018C216.591 194.893 220.469 192 224.879 192H250.099C260.677 192 270.902 188.189 278.9 181.264L279.43 180.805C284.88 176.086 289.117 170.127 291.783 163.428L293.481 159.164C296.956 150.434 305.403 144.705 314.799 144.705H321.185C322.98 144.705 324.529 143.46 324.905 141.705C330.943 113.51 342.237 60.3799 343.782 51.5246Z" fill="#E5EAF3"/>
<path d="M314.32 44.7583C314.32 44.7583 316.503 30.5503 326.993 30.5503C337.483 30.5503 334.997 44.7583 334.997 44.7583L314.32 141.044H289.156L314.32 44.7583Z" fill="#C9D7E9"/>
<g style="mix-blend-mode:multiply">
<path d="M334.571 47.3804C334.571 47.3804 328.629 43.5387 324.142 54.5149C319.716 65.491 304.981 140.922 304.981 140.922H289.822L314.44 44.6364C314.44 44.6364 316.745 31.282 326.386 30.5503C338.331 29.6966 334.571 47.3804 334.571 47.3804Z" fill="#C9D7E9"/>
</g>
<path d="M236.342 30.4893C236.342 30.4893 227.307 33.5992 224.215 44.6973L185.59 183.911H262.294C262.294 183.911 276.968 186.899 282.789 167.203C288.61 147.507 314.319 44.6973 314.319 44.6973C314.319 44.6973 316.866 32.3187 326.992 30.4893H236.342Z" fill="#C9D7E9"/>
<path d="M214.998 104.273L216.878 97.9926H278.362L277.028 104.273H214.998Z" fill="#4D4D4D" fill-opacity="0.24"/>
<path d="M208.752 126.287L210.632 120.006H272.116L270.782 126.287H208.752Z" fill="#4D4D4D" fill-opacity="0.24"/>
<path d="M203.658 151.166L205.538 144.885H267.023L265.628 151.166H203.658Z" fill="#4D4D4D" fill-opacity="0.24"/>
<path d="M275.816 168.667C275.816 168.667 274.968 176.96 269.328 178.423C266.721 179.094 258.475 178.423 258.475 178.423C258.475 178.423 262.416 176.289 264.417 172.935C266.297 169.764 266.66 168.667 266.66 168.667H275.816Z" fill="white"/>
<path d="M220.334 82.2601L222.214 75.9793H283.698L282.364 82.2601H220.334Z" fill="#4D4D4D" fill-opacity="0.24"/>
<path d="M285.457 85.7359L288.792 72.4426H300.737L297.342 85.7359H285.457Z" fill="white"/>
<g style="mix-blend-mode:multiply">
<path d="M217.546 68.8448H281.516C281.516 68.8448 287.762 70.3083 287.762 79.0893C287.762 87.8702 271.572 180.192 265.448 182.997C259.324 185.802 264.175 182.997 264.175 182.997H214.999L214.332 80.4918L217.546 68.8448Z" fill="#C9D7E9"/>
</g>
<path d="M280.182 107.749L283.517 94.4559H295.401L292.066 107.749H280.182Z" fill="white"/>
<path d="M273.875 129.762L277.271 116.469H289.155L285.82 129.762H273.875Z" fill="white"/>
<path d="M268.236 154.703L271.571 141.409H283.456L280.121 154.703H268.236Z" fill="white"/>
<path d="M262.84 79.76C262.84 79.76 275.331 80.0039 271.571 98.9073C267.751 117.75 258.777 162.874 258.534 166.715C258.292 170.557 258.292 180.923 267.751 183.972H206.994L242.466 79.76H262.84Z" fill="#C9D7E9"/>
<path d="M248.105 125.494L251.016 112.201H262.901L260.051 125.494H248.105Z" fill="#C9D7E9"/>
<path d="M243.68 145.129L246.53 131.836H258.475L255.564 145.129H243.68Z" fill="#C9D7E9"/>
<path d="M239.615 166.472L242.465 153.178H254.41L251.5 166.472H239.615Z" fill="#C9D7E9"/>
<path d="M207.055 122.018L208.449 115.737H245.68L244.285 122.018H207.055Z" fill="white"/>
<path d="M202.447 141.409L203.781 135.129H241.012L239.678 141.409H202.447Z" fill="white"/>
<path d="M197.959 162.996L199.293 156.715H236.523L235.189 162.996H197.959Z" fill="white"/>
<g style="mix-blend-mode:multiply">
<path d="M272.117 89.9435C272.117 89.9435 263.87 89.3337 257.989 101.103C252.107 112.871 235.735 172.63 235.311 174.765C234.887 176.899 234.098 183.911 239.919 183.911H206.994L242.466 96.7121C242.466 96.7121 250.834 78.2356 262.9 79.76C272.117 80.8576 272.117 89.9435 272.117 89.9435Z" fill="#C9D7E9"/>
</g>
<path d="M225.186 62.564L227.065 56.2832H288.55L287.216 62.564H225.186Z" fill="#4D4D4D" fill-opacity="0.24"/>
<path d="M101.307 219.218L149.149 101.103C149.149 101.103 156.789 79.76 171.705 79.76C183.105 79.76 208.147 79.76 262.78 79.76C262.78 79.76 248.652 79.76 240.466 101.103L192.624 219.218C192.624 219.218 189.896 227.45 185.53 231.048H87.7246C87.7246 231.048 96.6987 230.56 101.307 219.218Z" fill="#C9D7E9"/>
<path d="M179.77 201.229L185.53 187.936H197.475L191.715 201.229H179.77Z" fill="white"/>
<path d="M185.591 231.048C185.591 231.048 171.462 231.414 177.587 211.352C183.771 191.29 185.591 183.911 185.591 183.911H80.812C80.812 183.911 67.7754 216.108 66.6839 218.303C65.5925 220.499 63.4096 231.048 74.6878 231.048H185.591Z" fill="#BDCADB"/>
<path d="M216.574 114.396L222.335 101.103H234.28L228.519 114.396H216.574Z" fill="white"/>
<path d="M290.307 66.0398L293.642 52.7465H305.587L302.191 66.0398H290.307Z" fill="white"/>
<path d="M153.514 112.201L157.334 103.298H214.331L210.451 112.201H153.514Z" fill="#4D4D4D" fill-opacity="0.24"/>
<path d="M144.902 132.202L148.722 123.36H205.659L201.839 132.202H144.902Z" fill="#4D4D4D" fill-opacity="0.24"/>
<g style="mix-blend-mode:multiply">
<path d="M193.108 107.322C193.108 107.322 169.097 129.031 166.611 132.263C164.124 135.494 150.785 159.459 144.842 162.996C138.9 166.533 120.467 171.838 120.467 171.838L148.238 103.359L193.108 97.7487V107.322Z" fill="#C9D7E9"/>
</g>
<path d="M136.232 153.178L140.052 144.275H197.05L193.169 153.178H136.232Z" fill="#4D4D4D" fill-opacity="0.24"/>
<path d="M127.805 174.155L131.685 165.252H188.622L184.742 174.155H127.805Z" fill="#4D4D4D" fill-opacity="0.24"/>
<path d="M80.9316 200.193L83.8422 193.546H157.818L155.938 200.193H80.9316Z" fill="white"/>
<path d="M208.389 134.458L214.149 121.103H226.094L220.334 134.458H208.389Z" fill="white"/>
<path d="M198.93 155.373L204.69 142.08H216.575L210.814 155.373H198.93Z" fill="white"/>
<path d="M189.531 176.35L195.292 163.057H207.176L201.416 176.35H189.531Z" fill="white"/>
<path d="M160.668 202.815L164.67 188.485H176.615L172.795 202.815H160.668Z" fill="#C9D7E9"/>
<path d="M74.2617 217.389L77.1722 210.681H153.27L151.875 217.389H74.2617Z" fill="white"/>
<path d="M225.67 111.469L221.365 107.444L222.032 106.774L225.731 110.249L236.282 102.932L236.827 103.725L225.67 111.469Z" fill="#4D4D4D"/>
<path d="M218.211 132.202L213.967 128.116L214.634 127.445L218.333 130.921L228.883 123.604L229.429 124.396L218.211 132.202Z" fill="#4D4D4D"/>
<path d="M170.551 197.937L166.307 193.851L166.974 193.18L170.672 196.656L181.162 189.339L181.708 190.131L170.551 197.937Z" fill="#4D4D4D"/>
<path d="M158.668 207.51C158.668 207.51 156.121 216.535 155.636 219.096C155.151 221.657 156.242 223.852 157.819 224.767H170.128C170.128 224.767 168.187 223.731 169.036 218.974C169.885 214.218 171.34 207.51 171.34 207.51H158.668Z" fill="#C9D7E9"/>
<path d="M163.155 219.767L158.91 215.742L159.577 215.011L163.215 218.547L173.766 211.169L174.312 211.962L163.155 219.767Z" fill="#4D4D4D"/>
<path d="M247.559 164.215L243.314 160.191L243.981 159.459L247.68 162.996L258.231 155.678L258.777 156.471L247.559 164.215Z" fill="#4D4D4D"/>
<path d="M209.602 151.776L205.357 147.751L206.024 147.019L209.663 150.556L220.213 143.239L220.759 144.031L209.602 151.776Z" fill="#4D4D4D"/>
<path d="M197.376 164.965L196.643 165.603L206.204 176.716L206.938 176.078L197.376 164.965Z" fill="#4D4D4D"/>
<path d="M209.526 164.84L192.84 175.944L193.375 176.757L210.061 165.653L209.526 164.84Z" fill="#4D4D4D"/>
<path d="M255.113 113.848L254.379 114.486L262.393 123.801L263.127 123.163L255.113 113.848Z" fill="#4D4D4D"/>
<path d="M265.209 113.765L251.203 123.086L251.738 123.9L265.745 114.579L265.209 113.765Z" fill="#4D4D4D"/>
<path d="M250.329 133.493L249.596 134.131L257.61 143.446L258.343 142.807L250.329 133.493Z" fill="#4D4D4D"/>
<path d="M260.424 133.408L246.418 142.729L246.953 143.542L260.96 134.222L260.424 133.408Z" fill="#4D4D4D"/>
<g style="mix-blend-mode:multiply">
<path d="M213.058 120.006C213.058 120.006 146.116 151.898 160.426 159.886C174.736 167.813 217.242 122.018 217.242 122.018L213.058 120.006Z" fill="#C9D7E9"/>
</g>
<path d="M206.995 101.103C206.995 101.103 210.815 104.7 213.119 110.859C215.423 117.018 217.303 121.957 217.303 121.957C217.303 121.957 204.388 122.201 195.717 118.847C195.717 118.847 202.387 116.896 205.722 111.53C208.996 106.164 206.995 101.103 206.995 101.103Z" fill="#FFB949"/>
<path d="M124.832 116.652L142.901 112.201C142.901 112.201 141.81 117.811 144.721 123.177C147.631 128.543 151.876 126.531 153.937 124.762C156.059 122.994 163.942 106.408 158.667 102.261C153.331 98.1146 136.959 97.6877 136.959 97.6877" fill="#FF9D00"/>
<path d="M145.752 85.1261C145.752 85.1261 162.124 85.5529 167.46 89.6995C172.796 93.846 164.852 110.432 162.73 112.201C160.608 113.969 156.424 115.981 153.513 110.615C150.603 105.249 151.694 99.639 151.694 99.639L133.625 104.09" fill="#FFB949"/>
<path d="M136.232 121.104C139.264 116.713 137.445 105.371 138.173 104.212C138.9 103.054 151.634 90.7362 151.634 90.7362L169.218 92.9314C169.218 92.9314 192.927 89.8825 198.626 87.9921C204.326 86.1628 205.418 78.5404 203.174 77.1989C200.87 75.8574 186.924 76.7111 180.436 75.9184C173.948 75.1256 152.665 68.7839 152.058 68.7839C151.452 68.7839 119.436 75.3696 108.279 82.1992C97.1222 89.0288 80.8719 105.859 80.8719 105.859C80.8719 105.859 69.6543 118.725 67.2289 119.945C64.8034 121.164 55.223 127.75 51.888 132.202C48.5531 136.653 -29 166.472 -29 166.472V235.012" fill="#FFCC99"/>
<g style="mix-blend-mode:multiply">
<path d="M123.803 75.9794C123.803 75.9794 133.626 76.1013 140.902 85.1871C148.178 94.273 147.572 94.8218 147.572 94.8218L158.244 84.8213L141.023 71.284C141.023 71.284 125.682 75.3696 123.803 75.9794Z" fill="#FFD48F"/>
</g>
<path d="M152.058 91.285L151.27 90.3703C151.33 90.3093 158.546 84.1505 159.88 81.9552L160.911 82.626C159.516 84.8822 152.361 90.9801 152.058 91.285Z" fill="#FF9D00"/>
<path d="M133.2 41.8313L206.994 101.103C206.994 101.103 210.571 109.518 205.721 114.396C200.87 119.274 195.716 118.847 195.716 118.847L119.436 61.0396C119.436 61.0396 114.706 54.3319 119.436 46.4047C124.166 38.4775 133.2 41.8313 133.2 41.8313Z" fill="#F37F00"/>
<path d="M-29 238.182C-29 238.182 -29 238.182 -7.17115 222.328C14.6577 206.474 61.044 178.728 61.044 178.728C61.044 178.728 92.999 163.606 107.734 163.606C119.133 163.606 140.174 138.238 140.174 138.238C140.174 138.238 164.125 123.299 166.611 119.945C169.097 116.591 181.709 105.554 185.59 102.2C189.47 98.8463 188.076 90.3093 179.587 89.6995C171.098 89.0897 153.695 103.664 153.695 103.664C147.025 107.444 136.111 110.981 136.111 110.981" fill="#FFCC99"/>
<path d="M136.718 121.469L135.748 120.799C137.688 117.994 137.506 112.079 137.446 108.176C137.385 105.615 137.385 104.456 137.688 103.908L138.719 104.578C138.598 104.883 138.598 106.652 138.659 108.176C138.719 112.201 138.901 118.36 136.718 121.469Z" fill="#FF9D00"/>
<path d="M167.096 120.372L166.126 119.64C168.612 116.347 180.739 105.615 185.166 101.773C186.864 100.31 187.47 97.7487 186.682 95.3096C185.712 92.3826 183.104 90.6142 179.527 90.3703C179.345 90.3703 179.224 90.3703 179.042 90.3703C170.735 90.3703 154.242 104.03 154.06 104.151L153.999 104.212C147.329 107.993 136.415 111.53 136.294 111.591L135.93 110.432C136.051 110.371 146.783 106.896 153.332 103.176C154.484 102.2 171.159 88.541 179.648 89.1507C183.711 89.4556 186.803 91.5899 187.894 94.9437C188.865 97.8097 188.076 100.92 186.015 102.688C181.588 106.53 169.522 117.14 167.096 120.372Z" fill="#FF9D00"/>
<path d="M123.56 64.2105C123.56 64.2105 130.776 64.2105 135.202 58.4175C139.568 52.7465 138.78 46.2828 138.78 46.2828L125.137 34.8188C125.137 34.8188 118.649 33.5992 112.828 42.1362C108.037 49.0878 111.069 55.3686 111.069 55.3686L123.56 64.2105Z" fill="#FFB949"/>
<path d="M124.591 126.592L123.742 125.738C123.803 125.677 128.957 120.616 134.172 111.408C139.386 102.2 142.479 89.3947 142.539 89.2727L143.691 89.5776C143.631 89.6996 140.538 102.688 135.202 112.079C129.927 121.347 124.652 126.531 124.591 126.592Z" fill="#FF9D00"/>
<g style="mix-blend-mode:multiply">
<path d="M125.681 132.202C123.862 134.58 115.616 151.288 120.467 151.105C125.318 150.983 132.897 141.165 133.685 135.068C134.474 128.97 130.593 125.616 125.681 132.202Z" fill="#FFD48F"/>
</g>
<g style="mix-blend-mode:multiply">
<path d="M87.6632 147.385C84.3888 144.336 71.6553 143.544 68.9267 145.129C66.1981 146.715 78.0221 151.349 83.1761 151.959C88.3302 152.568 90.9375 150.495 87.6632 147.385Z" fill="#FFD48F"/>
</g>
<path d="M190.441 197.937L186.803 193.851L187.53 193.18L190.562 196.656L200.143 190.131L200.688 190.924L190.441 197.937Z" fill="#4D4D4D"/>
<g style="mix-blend-mode:multiply">
<path d="M124.833 184.216C124.833 184.216 104.096 207.632 101.246 211.596C98.3963 215.559 98.8207 227.023 106.885 231.048H72.5048C72.5048 231.048 61.4691 230.621 66.6232 218.303L80.7513 183.911L124.833 184.216Z" fill="#C9D7E9"/>
</g>
</g>
<defs>
<clipPath id="clip0_319_12795">
<rect width="372" height="248" fill="white" transform="translate(-29)"/>
</clipPath>
</defs>
</svg>
