<svg width="154" height="152" viewBox="0 0 154 152" fill="none" xmlns="http://www.w3.org/2000/svg">
<path d="M54.1149 28.7321L41.6337 58.4911C41.6337 58.4911 55.7707 51.9695 75.5271 54.7606C86.2766 56.2899 96.6224 59.922 105.979 65.4512L116.289 33.1663C116.289 33.1663 83.1251 15.7433 54.1149 28.7321Z" fill="#FF931E"/>
<path d="M45.165 54.9252L54.8516 30.4083L54.9065 30.3644L54.9614 30.3203C58.7873 28.6481 62.8098 27.4732 66.9312 26.8242C71.6375 26.1147 76.4073 25.9319 81.1531 26.2792C86.3978 26.642 91.5997 27.472 96.6978 28.7595C102.179 30.0963 107.535 31.9058 112.706 34.168L112.923 34.2643L112.848 34.4925L112.32 36.2043L104.395 61.1783L104.297 61.4757L104.036 61.3242C96.9088 57.2862 89.2054 54.3744 81.1959 52.6911C74.8737 51.4069 68.4072 50.9877 61.9723 51.4448C57.7625 51.728 53.5906 52.4291 49.5178 53.5378C48.0884 53.9358 46.9944 54.2712 46.278 54.5489L45.4597 54.8437L45.1775 54.9409L45.4425 54.8059L46.2515 54.467C46.9757 54.183 48.0464 53.8019 49.4648 53.3741C53.5445 52.1837 57.7348 51.417 61.9698 51.0859C68.4347 50.5798 74.9377 50.9668 81.2969 52.2363C89.3654 53.8997 97.1281 56.8088 104.309 60.8602L103.95 61.0062L111.855 36.0227L112.383 34.3109L112.518 34.6274C107.38 32.3795 102.06 30.5765 96.6155 29.2379C91.5488 27.9509 86.3783 27.1173 81.1648 26.7467C76.4423 26.3975 71.6957 26.5708 67.0103 27.2635C62.9188 27.8863 58.9222 29.0278 55.1159 30.6605L55.2257 30.5725L45.165 54.9252Z" fill="white"/>
<path d="M87.0542 33.2543C89.1806 37.1303 86.5202 42.6386 81.1029 45.5621C75.6857 48.4857 69.5546 47.7286 67.4282 43.8526C65.3019 39.9765 67.9623 34.4683 73.3795 31.5447C78.7968 28.6212 84.9043 29.3971 87.0542 33.2543Z" fill="#FAFAFA"/>
<path d="M47.9465 48.0051C47.9465 48.0051 53.2003 46.9134 51.846 52.6118L44.6557 54.8688L47.9465 48.0051Z" fill="#FAFAFA"/>
<path d="M53.4722 34.2889C53.4722 34.2889 60.1166 35.2256 60.4047 28.4763L55.0233 30.4566L53.4722 34.2889Z" fill="#FAFAFA"/>
<path d="M97.9369 57.8769C97.9369 57.8769 99.6665 50.0469 106.724 53.1033L104.192 61.0865L97.9369 57.8769Z" fill="#FAFAFA"/>
<path d="M106.717 32.0483C106.717 32.0483 104.961 37.0658 110.947 39.7078L112.627 34.4162L106.717 32.0483Z" fill="#FAFAFA"/>
<path d="M98.0993 43.4801C97.4373 44.7969 95.6018 45.185 94.0585 44.3077C93.3354 43.9893 92.7617 43.404 92.456 42.6726C92.1503 41.9412 92.1359 41.1196 92.4158 40.3776C93.0778 39.0607 94.9133 38.6726 96.4629 39.5579C97.1847 39.8754 97.7571 40.4597 98.0617 41.1898C98.3664 41.9199 98.3798 42.7399 98.0993 43.4801Z" fill="#FAFAFA"/>
<path d="M101.447 125.381L116.111 96.6348C116.111 96.6348 101.527 102.085 82.0338 97.8289C71.4282 95.5026 61.3819 91.1097 52.4632 84.8984L39.7757 116.325C39.7757 116.325 71.549 136.171 101.447 125.381Z" fill="#8F9AA8"/>
<path d="M112.324 99.9273L100.837 123.654L100.779 123.694L100.721 123.734C96.7808 125.116 92.682 125.988 88.5237 126.328C83.7776 126.685 79.0075 126.511 74.3007 125.811C69.0977 125.059 63.972 123.843 58.9841 122.179C53.6179 120.438 48.4119 118.234 43.4239 115.593L43.2141 115.481L43.3065 115.259L43.9606 113.591L53.7248 89.2771L53.8444 88.9879L54.0937 89.1584C60.8998 93.7164 68.3647 97.1942 76.2265 99.4698C82.4354 101.222 88.8527 102.122 95.3038 102.145C99.523 102.177 103.735 101.788 107.88 100.986C109.335 100.696 110.451 100.443 111.186 100.22L112.024 99.9865L112.312 99.9106L112.038 100.026L111.206 100.303C110.463 100.532 109.367 100.833 107.92 101.154C103.763 102.037 99.5274 102.489 95.2795 102.503C88.7948 102.526 82.3388 101.656 76.0919 99.9157C68.1698 97.6557 60.6455 94.1761 53.7865 89.6007L54.1553 89.4819L44.4106 113.807L43.7566 115.475L43.6449 115.149C48.6015 117.773 53.7726 119.968 59.1018 121.709C64.0586 123.37 69.1525 124.586 74.3239 125.344C79.0072 126.045 83.7536 126.225 88.4775 125.884C92.604 125.568 96.6747 124.727 100.592 123.383L100.476 123.462L112.324 99.9273Z" fill="white"/>
<path d="M68.9359 118.416C67.1043 114.392 70.1678 109.098 75.7879 106.586C81.408 104.074 87.4656 105.286 89.2971 109.31C91.1287 113.334 88.0652 118.628 82.4451 121.14C76.825 123.652 70.7923 122.423 68.9359 118.416Z" fill="#FAFAFA"/>
<path d="M109.034 106.62C109.034 106.62 103.714 107.317 105.489 101.736L112.827 100.021L109.034 106.62Z" fill="#FAFAFA"/>
<path d="M102.502 119.887C102.502 119.887 95.9455 118.457 95.1553 125.166L100.669 123.593L102.502 119.887Z" fill="#FAFAFA"/>
<path d="M59.9186 93.0499C59.9186 93.0499 57.6103 100.729 50.7999 97.1553L53.9198 89.383L59.9186 93.0499Z" fill="#FAFAFA"/>
<path d="M49.2377 118.153C49.2377 118.153 51.3633 113.28 45.5905 110.2L43.5206 115.351L49.2377 118.153Z" fill="#FAFAFA"/>
<path d="M58.6837 107.395C59.442 106.131 61.3013 105.881 62.7749 106.871C63.4723 107.242 64.0007 107.869 64.2511 108.621C64.5014 109.373 64.4546 110.194 64.1202 110.913C63.3618 112.177 61.5025 112.427 60.0232 111.429C59.3271 111.058 58.7998 110.433 58.5505 109.682C58.3011 108.931 58.3488 108.112 58.6837 107.395Z" fill="#FAFAFA"/>
<path d="M92.6021 116.235C91.9189 114.929 92.6748 113.212 94.2878 112.471C94.9682 112.069 95.7783 111.945 96.5507 112.124C97.323 112.302 97.9987 112.77 98.438 113.43C99.1211 114.736 98.3653 116.453 96.7423 117.195C96.0633 117.596 95.2547 117.72 94.484 117.541C93.7133 117.363 93.0395 116.895 92.6021 116.235Z" fill="#FAFAFA"/>
<path d="M27.8751 51.862C27.607 51.748 27.306 51.7421 27.035 51.8454C26.764 51.9488 26.544 52.1534 26.421 52.4166L21.8825 62.1259C21.8182 62.2634 21.7824 62.4127 21.7773 62.5649C21.7721 62.717 21.7977 62.8688 21.8524 63.0112C21.9072 63.1536 21.9901 63.2835 22.096 63.3933C22.2019 63.5031 22.3288 63.5903 22.4689 63.6499L23.2924 64C23.4325 64.0596 23.583 64.0902 23.7348 64.09C23.8866 64.0899 24.0366 64.0589 24.1758 63.999C24.3151 63.9391 24.4406 63.8515 24.5448 63.7415C24.6491 63.6315 24.73 63.5014 24.7826 63.3589L28.4976 53.2996C28.5983 53.0269 28.5897 52.7251 28.4737 52.4572C28.3577 52.1893 28.1432 51.976 27.8751 51.862Z" fill="#FF931E"/>
<path d="M28.7159 52.3712C28.6528 52.087 28.4826 51.8376 28.2407 51.6751C27.9989 51.5127 27.7042 51.4499 27.4182 51.4997L16.8675 53.3389C16.7181 53.3649 16.5756 53.421 16.4486 53.5037C16.3217 53.5864 16.2128 53.694 16.1287 53.8202C16.0446 53.9463 15.9869 54.0882 15.9591 54.2376C15.9313 54.3869 15.934 54.5404 15.9669 54.689L16.1608 55.562C16.1938 55.7106 16.2564 55.8511 16.3448 55.975C16.4333 56.099 16.5458 56.2039 16.6756 56.2835C16.8054 56.363 16.9497 56.4156 17.1 56.4379C17.2503 56.4603 17.4034 56.452 17.5501 56.4136L27.9069 53.7014C28.1876 53.6279 28.4285 53.4484 28.5793 53.2005C28.7301 52.9526 28.779 52.6555 28.7159 52.3712Z" fill="#FF931E"/>
<path d="M26 54.5C7.50001 64 -3.29993 93.6003 27.5 106" stroke="#FF931E" stroke-width="2" stroke-linecap="round" stroke-dasharray="4 4"/>
<path d="M125.79 99.7864C126.058 99.9004 126.359 99.9064 126.63 99.803C126.901 99.6997 127.121 99.495 127.244 99.2319L131.783 89.5226C131.847 89.385 131.883 89.2357 131.888 89.0836C131.893 88.9314 131.868 88.7796 131.813 88.6372C131.758 88.4949 131.675 88.3649 131.569 88.2551C131.463 88.1454 131.336 88.0581 131.196 87.9985L130.373 87.6484C130.233 87.5889 130.082 87.5582 129.93 87.5584C129.779 87.5586 129.629 87.5895 129.489 87.6494C129.35 87.7093 129.225 87.7969 129.12 87.9069C129.016 88.0169 128.935 88.1471 128.883 88.2895L125.168 98.3489C125.067 98.6215 125.075 98.9234 125.191 99.1913C125.307 99.4592 125.522 99.6724 125.79 99.7864Z" fill="#FF931E"/>
<path d="M124.949 99.2782C125.012 99.5625 125.183 99.8119 125.424 99.9743C125.666 100.137 125.961 100.2 126.247 100.15L136.798 98.3106C136.947 98.2845 137.09 98.2285 137.217 98.1457C137.344 98.063 137.452 97.9554 137.536 97.8293C137.621 97.7031 137.678 97.5612 137.706 97.4119C137.734 97.2626 137.731 97.109 137.698 96.9605L137.504 96.0874C137.471 95.9388 137.409 95.7984 137.32 95.6744C137.232 95.5504 137.119 95.4455 136.99 95.3659C136.86 95.2864 136.715 95.2338 136.565 95.2115C136.415 95.1891 136.262 95.1974 136.115 95.2358L125.758 97.948C125.478 98.0215 125.237 98.201 125.086 98.4489C124.935 98.6968 124.886 98.9939 124.949 99.2782Z" fill="#FF931E"/>
<path d="M127.047 98C146.12 87.8544 157.255 56.2426 125.5 43" stroke="#FF931E" stroke-width="2" stroke-linecap="round" stroke-dasharray="4 4"/>
</svg>
