<svg width="27" height="25" viewBox="0 0 27 25" fill="none" xmlns="http://www.w3.org/2000/svg">
<path d="M24.3327 8.38281V19.6328C24.3327 20.668 23.4229 21.5078 22.3014 21.5078H4.69727C3.57585 21.5078 2.66602 20.668 2.66602 19.6328V8.38281C2.66602 7.34766 3.57585 6.50781 4.69727 6.50781H8.42122L8.94173 5.22266C9.23796 4.49219 9.99544 4.00781 10.8418 4.00781H16.1527C16.999 4.00781 17.7565 4.49219 18.0527 5.22266L18.5775 6.50781H22.3014C23.4229 6.50781 24.3327 7.34766 24.3327 8.38281ZM18.5775 14.0078C18.5775 11.4219 16.3008 9.32031 13.4993 9.32031C10.6979 9.32031 8.42122 11.4219 8.42122 14.0078C8.42122 16.5937 10.6979 18.6953 13.4993 18.6953C16.3008 18.6953 18.5775 16.5937 18.5775 14.0078ZM17.2233 14.0078C17.2233 15.9023 15.5518 17.4453 13.4993 17.4453C11.4469 17.4453 9.77539 15.9023 9.77539 14.0078C9.77539 12.1133 11.4469 10.5703 13.4993 10.5703C15.5518 10.5703 17.2233 12.1133 17.2233 14.0078Z" fill="#FF931E"/>
</svg>
