<svg width="26" height="26" viewBox="0 0 26 26" fill="none" xmlns="http://www.w3.org/2000/svg">
<g id="vuesax/bold/money">
<g id="money">
<path id="Vector" d="M17.9444 3.69434H7.38886C4.2222 3.69434 2.11108 5.27767 2.11108 8.97211V16.361C2.11108 20.0554 4.2222 21.6388 7.38886 21.6388H17.9444C21.1111 21.6388 23.2222 20.0554 23.2222 16.361V8.97211C23.2222 5.27767 21.1111 3.69434 17.9444 3.69434ZM6.5972 15.3054C6.5972 15.7382 6.23831 16.0971 5.80553 16.0971C5.37275 16.0971 5.01386 15.7382 5.01386 15.3054V10.0277C5.01386 9.59489 5.37275 9.236 5.80553 9.236C6.23831 9.236 6.5972 9.59489 6.5972 10.0277V15.3054ZM12.6666 15.8332C10.9144 15.8332 9.49997 14.4188 9.49997 12.6666C9.49997 10.9143 10.9144 9.49989 12.6666 9.49989C14.4189 9.49989 15.8333 10.9143 15.8333 12.6666C15.8333 14.4188 14.4189 15.8332 12.6666 15.8332ZM20.3194 15.3054C20.3194 15.7382 19.9605 16.0971 19.5278 16.0971C19.095 16.0971 18.7361 15.7382 18.7361 15.3054V10.0277C18.7361 9.59489 19.095 9.236 19.5278 9.236C19.9605 9.236 20.3194 9.59489 20.3194 10.0277V15.3054Z" fill="#8F9AA8"/>
</g>
</g>
</svg>
