<svg width="25" height="24" viewBox="0 0 25 24" fill="none" xmlns="http://www.w3.org/2000/svg">
<path d="M7.30176 2H6.30176C3.30176 2 2.30176 3.79 2.30176 6V7V21C2.30176 21.83 3.24176 22.3 3.90176 21.8L5.61176 20.52C6.01176 20.22 6.57176 20.26 6.93176 20.62L8.59176 22.29C8.98176 22.68 9.62176 22.68 10.0118 22.29L11.6918 20.61C12.0418 20.26 12.6018 20.22 12.9918 20.52L14.7018 21.8C15.3618 22.29 16.3018 21.82 16.3018 21V4C16.3018 2.9 17.2018 2 18.3018 2H7.30176ZM6.27176 14.01C5.72176 14.01 5.27176 13.56 5.27176 13.01C5.27176 12.46 5.72176 12.01 6.27176 12.01C6.82176 12.01 7.27176 12.46 7.27176 13.01C7.27176 13.56 6.82176 14.01 6.27176 14.01ZM6.27176 10.01C5.72176 10.01 5.27176 9.56 5.27176 9.01C5.27176 8.46 5.72176 8.01 6.27176 8.01C6.82176 8.01 7.27176 8.46 7.27176 9.01C7.27176 9.56 6.82176 10.01 6.27176 10.01ZM12.3018 13.76H9.30176C8.89176 13.76 8.55176 13.42 8.55176 13.01C8.55176 12.6 8.89176 12.26 9.30176 12.26H12.3018C12.7118 12.26 13.0518 12.6 13.0518 13.01C13.0518 13.42 12.7118 13.76 12.3018 13.76ZM12.3018 9.76H9.30176C8.89176 9.76 8.55176 9.42 8.55176 9.01C8.55176 8.6 8.89176 8.26 9.30176 8.26H12.3018C12.7118 8.26 13.0518 8.6 13.0518 9.01C13.0518 9.42 12.7118 9.76 12.3018 9.76Z" fill="#FF931E"/>
<path d="M18.3118 2V3.5C18.9718 3.5 19.6018 3.77 20.0618 4.22C20.5418 4.71 20.8018 5.34 20.8018 6V8.42C20.8018 9.16 20.4718 9.5 19.7218 9.5H17.8018V4.01C17.8018 3.73 18.0318 3.5 18.3118 3.5V2ZM18.3118 2C17.2018 2 16.3018 2.9 16.3018 4.01V11H19.7218C21.3018 11 22.3018 10 22.3018 8.42V6C22.3018 4.9 21.8518 3.9 21.1318 3.17C20.4018 2.45 19.4118 2.01 18.3118 2C18.3218 2 18.3118 2 18.3118 2Z" fill="#FF931E"/>
</svg>
