<svg width="221" height="160" viewBox="0 0 221 160" fill="none" xmlns="http://www.w3.org/2000/svg">
<circle cx="19.5" cy="35" r="5" fill="#EAEEF9"/>
<circle cx="9.5" cy="122" r="9" fill="#EAEEF9"/>
<circle cx="205.5" cy="28" r="6" fill="#EAEEF9"/>
<circle cx="110.5" cy="80" r="80" fill="#E4E8F6"/>
<mask id="mask0_4105_24630" style="mask-type:alpha" maskUnits="userSpaceOnUse" x="30" y="0" width="161" height="160">
<circle cx="110.5" cy="80" r="80" fill="#EAEEF9"/>
</mask>
<g mask="url(#mask0_4105_24630)">
<g filter="url(#filter0_d_4105_24630)">
<rect x="35" y="67" width="91" height="104" rx="4" fill="white"/>
<rect x="35" y="67" width="91" height="104" rx="4" fill="url(#paint0_linear_4105_24630)"/>
<rect x="35" y="67" width="91" height="104" rx="4" fill="url(#paint1_linear_4105_24630)"/>
</g>
<g filter="url(#filter1_d_4105_24630)">
<rect x="99" y="-17" width="91" height="104" rx="4" fill="white"/>
<rect x="99" y="-17" width="91" height="104" rx="4" fill="url(#paint2_linear_4105_24630)"/>
<rect x="99" y="-17" width="91" height="104" rx="4" fill="url(#paint3_linear_4105_24630)"/>
</g>
<path d="M149.753 17.5H138.332C134.683 17.5 132.85 19.3517 132.85 23.0367V52.3333H142.75V45.4583C142.75 44.7067 143.373 44.0833 144.125 44.0833C144.877 44.0833 145.5 44.6883 145.5 45.4583V52.3333H155.217V23.0367C155.217 19.3517 153.402 17.5 149.753 17.5ZM148.708 35.375H139.633C138.882 35.375 138.258 34.7517 138.258 34C138.258 33.2483 138.882 32.625 139.633 32.625H148.708C149.46 32.625 150.083 33.2483 150.083 34C150.083 34.7517 149.46 35.375 148.708 35.375ZM148.708 28.5H139.633C138.882 28.5 138.258 27.8767 138.258 27.125C138.258 26.3733 138.882 25.75 139.633 25.75H148.708C149.46 25.75 150.083 26.3733 150.083 27.125C150.083 27.8767 149.46 28.5 148.708 28.5Z" fill="#D7E0E7"/>
<path d="M171.167 50.9587H167.005V45.4587C168.747 44.8904 170.012 43.2587 170.012 41.3337V37.667C170.012 35.2654 168.05 33.3037 165.648 33.3037C163.247 33.3037 161.285 35.2654 161.285 37.667V41.3337C161.285 43.2404 162.532 44.8537 164.237 45.4404V50.9587H130.833C130.082 50.9587 129.458 51.582 129.458 52.3337C129.458 53.0854 130.082 53.7087 130.833 53.7087H165.538C165.575 53.7087 165.593 53.727 165.63 53.727C165.667 53.727 165.685 53.7087 165.722 53.7087H171.167C171.918 53.7087 172.542 53.0854 172.542 52.3337C172.542 51.582 171.918 50.9587 171.167 50.9587Z" fill="#D7E0E7"/>
<path d="M79.9999 117C85.0625 117 89.1666 112.896 89.1666 107.834C89.1666 102.771 85.0625 98.667 79.9999 98.667C74.9373 98.667 70.8333 102.771 70.8333 107.834C70.8333 112.896 74.9373 117 79.9999 117Z" fill="#D7E0E7"/>
<path d="M80 121.583C70.815 121.583 63.335 127.743 63.335 135.333C63.335 135.846 63.7383 136.25 64.2516 136.25H95.7483C96.2616 136.25 96.665 135.846 96.665 135.333C96.665 127.743 89.185 121.583 80 121.583Z" fill="#D7E0E7"/>
</g>
<circle cx="209.5" cy="4" r="4" fill="#EAEEF9"/>
<defs>
<filter id="filter0_d_4105_24630" x="15" y="67" width="131" height="144" filterUnits="userSpaceOnUse" color-interpolation-filters="sRGB">
<feFlood flood-opacity="0" result="BackgroundImageFix"/>
<feColorMatrix in="SourceAlpha" type="matrix" values="0 0 0 0 0 0 0 0 0 0 0 0 0 0 0 0 0 0 127 0" result="hardAlpha"/>
<feMorphology radius="4" operator="erode" in="SourceAlpha" result="effect1_dropShadow_4105_24630"/>
<feOffset dy="20"/>
<feGaussianBlur stdDeviation="12"/>
<feColorMatrix type="matrix" values="0 0 0 0 0.0627451 0 0 0 0 0.0941176 0 0 0 0 0.156863 0 0 0 0.08 0"/>
<feBlend mode="normal" in2="BackgroundImageFix" result="effect1_dropShadow_4105_24630"/>
<feBlend mode="normal" in="SourceGraphic" in2="effect1_dropShadow_4105_24630" result="shape"/>
</filter>
<filter id="filter1_d_4105_24630" x="79" y="-17" width="131" height="144" filterUnits="userSpaceOnUse" color-interpolation-filters="sRGB">
<feFlood flood-opacity="0" result="BackgroundImageFix"/>
<feColorMatrix in="SourceAlpha" type="matrix" values="0 0 0 0 0 0 0 0 0 0 0 0 0 0 0 0 0 0 127 0" result="hardAlpha"/>
<feMorphology radius="4" operator="erode" in="SourceAlpha" result="effect1_dropShadow_4105_24630"/>
<feOffset dy="20"/>
<feGaussianBlur stdDeviation="12"/>
<feColorMatrix type="matrix" values="0 0 0 0 0.0627451 0 0 0 0 0.0941176 0 0 0 0 0.156863 0 0 0 0.1 0"/>
<feBlend mode="normal" in2="BackgroundImageFix" result="effect1_dropShadow_4105_24630"/>
<feBlend mode="normal" in="SourceGraphic" in2="effect1_dropShadow_4105_24630" result="shape"/>
</filter>
<linearGradient id="paint0_linear_4105_24630" x1="-15.9059" y1="185.806" x2="-6.34871" y2="59.6811" gradientUnits="userSpaceOnUse">
<stop stop-color="#E4E7EC"/>
<stop offset="1" stop-color="#F9FAFB"/>
</linearGradient>
<linearGradient id="paint1_linear_4105_24630" x1="38.1691" y1="169.769" x2="32.6676" y2="74.807" gradientUnits="userSpaceOnUse">
<stop stop-color="#EDF0F6"/>
<stop offset="0.875779" stop-color="white"/>
</linearGradient>
<linearGradient id="paint2_linear_4105_24630" x1="48.0941" y1="101.806" x2="57.6513" y2="-24.3189" gradientUnits="userSpaceOnUse">
<stop stop-color="#E4E7EC"/>
<stop offset="1" stop-color="#F9FAFB"/>
</linearGradient>
<linearGradient id="paint3_linear_4105_24630" x1="102.169" y1="85.7689" x2="96.6676" y2="-9.19304" gradientUnits="userSpaceOnUse">
<stop stop-color="#EDF0F6"/>
<stop offset="1" stop-color="#FCFDFF"/>
</linearGradient>
</defs>
</svg>
