<svg width="93" height="92" viewBox="0 0 93 92" fill="none" xmlns="http://www.w3.org/2000/svg">
<path d="M46.5001 7.66699C25.3784 7.66699 8.16675 24.8787 8.16675 46.0003C8.16675 67.122 25.3784 84.3337 46.5001 84.3337C67.6218 84.3337 84.8334 67.122 84.8334 46.0003C84.8334 24.8787 67.6218 7.66699 46.5001 7.66699ZM59.3801 54.817C60.4917 55.9287 60.4917 57.7687 59.3801 58.8803C58.8051 59.4553 58.0767 59.7237 57.3484 59.7237C56.6201 59.7237 55.8918 59.4553 55.3168 58.8803L46.5001 50.0637L37.6834 58.8803C37.1084 59.4553 36.3801 59.7237 35.6517 59.7237C34.9234 59.7237 34.1951 59.4553 33.6201 58.8803C32.5084 57.7687 32.5084 55.9287 33.6201 54.817L42.4367 46.0003L33.6201 37.1837C32.5084 36.072 32.5084 34.232 33.6201 33.1203C34.7318 32.0087 36.5717 32.0087 37.6834 33.1203L46.5001 41.937L55.3168 33.1203C56.4284 32.0087 58.2684 32.0087 59.3801 33.1203C60.4917 34.232 60.4917 36.072 59.3801 37.1837L50.5634 46.0003L59.3801 54.817Z" fill="#8F9AA8"/>
</svg>
