<svg width="9" height="36" viewBox="0 0 9 36" fill="none" xmlns="http://www.w3.org/2000/svg">
<path d="M1.92188 20.1172L1.17188 8.89062C1.03125 6.70312 0.960938 5.13281 0.960938 4.17969C0.960938 2.88281 1.29688 1.875 1.96875 1.15625C2.65625 0.421875 3.55469 0.0546875 4.66406 0.0546875C6.00781 0.0546875 6.90625 0.523438 7.35938 1.46094C7.8125 2.38281 8.03906 3.71875 8.03906 5.46875C8.03906 6.5 7.98438 7.54688 7.875 8.60938L6.86719 20.1641C6.75781 21.5391 6.52344 22.5938 6.16406 23.3281C5.80469 24.0625 5.21094 24.4297 4.38281 24.4297C3.53906 24.4297 2.95312 24.0781 2.625 23.375C2.29688 22.6562 2.0625 21.5703 1.92188 20.1172ZM4.52344 35.5391C3.57031 35.5391 2.73438 35.2344 2.01562 34.625C1.3125 34 0.960938 33.1328 0.960938 32.0234C0.960938 31.0547 1.29688 30.2344 1.96875 29.5625C2.65625 28.875 3.49219 28.5312 4.47656 28.5312C5.46094 28.5312 6.29688 28.875 6.98438 29.5625C7.6875 30.2344 8.03906 31.0547 8.03906 32.0234C8.03906 33.1172 7.6875 33.9766 6.98438 34.6016C6.28125 35.2266 5.46094 35.5391 4.52344 35.5391Z" fill="white"/>
</svg>
