<svg width="21" height="20" viewBox="0 0 21 20" fill="none" xmlns="http://www.w3.org/2000/svg">
<g id="vuesax/bold/building-4">
<g id="building-4">
<path id="Vector" d="M9.68333 2.5H4.49167C2.83333 2.5 2 3.34167 2 5.01667V18.3333H6.5V15.2083C6.5 14.8667 6.78333 14.5833 7.125 14.5833C7.46667 14.5833 7.75 14.8583 7.75 15.2083V18.3333H12.1667V5.01667C12.1667 3.34167 11.3417 2.5 9.68333 2.5ZM9.20833 10.625H5.08333C4.74167 10.625 4.45833 10.3417 4.45833 10C4.45833 9.65833 4.74167 9.375 5.08333 9.375H9.20833C9.55 9.375 9.83333 9.65833 9.83333 10C9.83333 10.3417 9.55 10.625 9.20833 10.625ZM9.20833 7.5H5.08333C4.74167 7.5 4.45833 7.21667 4.45833 6.875C4.45833 6.53333 4.74167 6.25 5.08333 6.25H9.20833C9.55 6.25 9.83333 6.53333 9.83333 6.875C9.83333 7.21667 9.55 7.5 9.20833 7.5Z" fill="#8F9AA8"/>
<path id="Vector_2" d="M19.4168 17.7086H17.5252V15.2086C18.3168 14.9503 18.8918 14.2086 18.8918 13.3336V11.6669C18.8918 10.5753 18.0002 9.68359 16.9085 9.68359C15.8168 9.68359 14.9252 10.5753 14.9252 11.6669V13.3336C14.9252 14.2003 15.4918 14.9336 16.2668 15.2003V17.7086H1.0835C0.741829 17.7086 0.458496 17.9919 0.458496 18.3336C0.458496 18.6753 0.741829 18.9586 1.0835 18.9586H16.8585C16.8752 18.9586 16.8835 18.9669 16.9002 18.9669C16.9168 18.9669 16.9252 18.9586 16.9418 18.9586H19.4168C19.7585 18.9586 20.0418 18.6753 20.0418 18.3336C20.0418 17.9919 19.7585 17.7086 19.4168 17.7086Z" fill="#8F9AA8"/>
</g>
</g>
</svg>
