<svg width="93" height="92" viewBox="0 0 93 92" fill="none" xmlns="http://www.w3.org/2000/svg">
<path d="M46.5 53.667C27.295 53.667 11.655 66.547 11.655 82.417C11.655 83.4903 12.4984 84.3337 13.5717 84.3337H79.4284C80.5017 84.3337 81.345 83.4903 81.345 82.417C81.345 66.547 65.705 53.667 46.5 53.667Z" fill="#8F9AA8"/>
<path d="M65.0916 22.2337C64.6316 20.3553 63.8649 18.5153 62.7916 16.8287C62.0633 15.602 61.1049 14.3753 60.0699 13.302C56.6199 9.85199 52.1349 7.97366 47.5349 7.74366C42.3216 7.39866 36.9933 9.31532 32.9683 13.302C29.1733 17.0587 27.2566 22.0803 27.3333 27.1403C27.3716 31.932 29.2883 36.7237 32.9299 40.4037C35.4599 42.9337 38.5649 44.6203 41.8999 45.387C43.7016 45.847 45.6183 46.077 47.5349 45.9237C52.0966 45.732 56.5433 43.9303 60.0316 40.4037C64.9766 35.4587 66.6633 28.5203 65.0916 22.2337ZM54.1666 34.5003C52.7866 35.8803 50.4866 35.8803 49.1066 34.5003L46.4616 31.8553L43.9316 34.3853C42.5516 35.7653 40.2516 35.7653 38.8716 34.3853C37.4533 32.967 37.4533 30.7053 38.8333 29.3253L41.3633 26.7953L38.9099 24.4187C37.5299 23.0003 37.5299 20.7387 38.9099 19.282C40.3283 17.902 42.5899 17.902 44.0466 19.282L46.4233 21.7353L48.9916 19.167C50.3716 17.787 52.6333 17.787 54.0516 19.167C55.4316 20.547 55.4316 22.847 54.0516 24.227L51.5216 26.757L54.1666 29.4403C55.5466 30.8203 55.5466 33.1203 54.1666 34.5003Z" fill="#8F9AA8"/>
</svg>
