<svg width="29" height="28" viewBox="0 0 29 28" fill="none" xmlns="http://www.w3.org/2000/svg">
<path d="M24.4167 25.292H4.58342C4.38122 25.292 4.20842 25.4648 4.20842 25.667C4.20842 25.8692 4.38122 26.042 4.58342 26.042H24.4167C24.6189 26.042 24.7917 25.8692 24.7917 25.667C24.7917 25.4648 24.6189 25.292 24.4167 25.292Z" fill="#FF931E" stroke="#FF931E"/>
<path d="M22.6667 16.9397C22.1884 16.9397 21.7917 16.543 21.7917 16.0647V6.19467L6.95175 21.0347C6.77675 21.2097 6.55508 21.2913 6.33342 21.2913C6.11175 21.2913 5.89008 21.2097 5.71508 21.0347C5.37675 20.6963 5.37675 20.1363 5.71508 19.798L20.5551 4.95801H10.6851C10.2067 4.95801 9.81008 4.56134 9.81008 4.08301C9.81008 3.60467 10.2067 3.20801 10.6851 3.20801H22.6667C22.7834 3.20801 22.8884 3.23134 23.0051 3.27801C23.2151 3.35967 23.3901 3.53467 23.4717 3.74467C23.5184 3.86134 23.5417 3.96634 23.5417 4.08301V16.0647C23.5417 16.543 23.1451 16.9397 22.6667 16.9397Z" fill="#FF931E"/>
</svg>
