<svg width="93" height="92" viewBox="0 0 93 92" fill="none" xmlns="http://www.w3.org/2000/svg">
<path d="M41.7085 9.39156C44.3919 7.1299 48.7235 7.1299 51.3302 9.39156L57.3869 14.5666C58.5369 15.5249 60.7219 16.3299 62.2552 16.3299H68.7719C72.8352 16.3299 76.1702 19.6649 76.1702 23.7282V30.2449C76.1702 31.7782 76.9752 33.9249 77.9335 35.0749L83.1085 41.1316C85.3702 43.8149 85.3702 48.1466 83.1085 50.7532L77.9335 56.8099C76.9752 57.9599 76.1702 60.1066 76.1702 61.6399V68.1566C76.1702 72.2199 72.8352 75.5549 68.7719 75.5549H62.2552C60.7219 75.5549 58.5752 76.3599 57.4252 77.3182L51.3685 82.4932C48.6852 84.7549 44.3535 84.7549 41.7469 82.4932L35.6902 77.3182C34.5402 76.3599 32.3552 75.5549 30.8602 75.5549H24.1519C20.0885 75.5549 16.7535 72.2199 16.7535 68.1566V61.6016C16.7535 60.1066 15.9869 57.9216 15.0285 56.8099L9.85354 50.7149C7.6302 48.0699 7.6302 43.7766 9.85354 41.1316L15.0285 35.0366C15.9869 33.8866 16.7535 31.7399 16.7535 30.2449V23.7666C16.7535 19.7032 20.0885 16.3682 24.1519 16.3682H30.7835C32.3169 16.3682 34.4635 15.5632 35.6135 14.6049L41.7085 9.39156Z" stroke="#8F9AA8" stroke-width="1.5" stroke-linecap="round" stroke-linejoin="round"/>
<path d="M41 38.5781V38.5781C41 35.5406 43.4624 33.0781 46.5 33.0781H47.158C49.8322 33.0781 52 35.246 52 37.9201V37.9201C52 39.5756 51.1542 41.1164 49.7576 42.0051L46.5 44.0781V51.5781" stroke="#8F9AA8" stroke-width="1.5" stroke-linecap="round" stroke-linejoin="round"/>
<path d="M46.479 61.333H46.5134" stroke="#8F9AA8" stroke-width="2" stroke-linecap="round" stroke-linejoin="round"/>
</svg>
