<svg width="25" height="24" viewBox="0 0 25 24" fill="none" xmlns="http://www.w3.org/2000/svg">
<path d="M16.2997 2.21C15.8897 1.8 15.1797 2.08 15.1797 2.65V6.14C15.1797 7.6 16.4197 8.81 17.9297 8.81C18.8797 8.82 20.1997 8.82 21.3297 8.82C21.8997 8.82 22.1997 8.15 21.7997 7.75C20.3597 6.3 17.7797 3.69 16.2997 2.21Z" fill="#FF931E"/>
<path d="M15.2596 19.26C12.9096 19.43 12.9096 22.83 15.2596 23H20.8196C21.4896 23 22.1496 22.75 22.6396 22.3C24.2896 20.86 23.4096 17.98 21.2396 17.71C20.4596 13.02 13.6796 14.8 15.2796 19.27" fill="#FF931E"/>
<path d="M22 11.19V14.44C22 14.74 21.56 14.88 21.34 14.67C20.86 14.2 20.27 13.84 19.59 13.63C17.91 13.11 15.96 13.62 14.75 14.9C13.94 15.74 13.53 16.81 13.54 17.97C13.54 18.16 13.45 18.33 13.3 18.44C12.5 19.05 12 20.01 12 21.12C12 21.2 12 21.28 12.01 21.36C12.03 21.68 11.8 21.99 11.47 21.99H8.57C5.49 21.99 3 19.99 3 16.42V7.57C3 4 5.49 2 8.57 2H12.81C13.36 2 13.81 2.45 13.81 3V5.89C13.81 8.27 15.73 10.19 18.11 10.19H21C21.55 10.19 22 10.64 22 11.19Z" fill="#FF931E"/>
</svg>
