<svg width="24" height="18" viewBox="0 0 24 18" fill="none" xmlns="http://www.w3.org/2000/svg">
<path d="M0.301758 2.57143H23.3018C23.3018 1.15313 22.1558 0 20.7462 0H2.85731C1.44776 0 0.301758 1.15313 0.301758 2.57143ZM0.301758 3.85714V15.4286C0.301758 16.8469 1.44776 18 2.85731 18H20.7462C22.1558 18 23.3018 16.8469 23.3018 15.4286V3.85714H0.301758ZM2.85731 14.9987C2.85731 13.8134 3.81165 12.8571 4.98561 12.8571H9.67346C10.8514 12.8571 11.8018 13.8174 11.8018 14.9987C11.8018 15.2357 11.6101 15.4286 11.3745 15.4286H3.28457C3.04898 15.4286 2.85731 15.2357 2.85731 14.9987ZM7.32954 11.5714C5.91999 11.5714 4.77398 10.4183 4.77398 9C4.77398 7.5817 5.91999 6.42857 7.32954 6.42857C8.73908 6.42857 9.88509 7.5817 9.88509 9C9.88509 10.4183 8.73908 11.5714 7.32954 11.5714ZM14.3573 7.07143C14.3573 6.71786 14.6448 6.42857 14.9962 6.42857H20.1073C20.4587 6.42857 20.7462 6.71786 20.7462 7.07143C20.7462 7.425 20.4587 7.71429 20.1073 7.71429H14.9962C14.6448 7.71429 14.3573 7.425 14.3573 7.07143ZM14.3573 9.64286C14.3573 9.28929 14.6448 9 14.9962 9H20.1073C20.4587 9 20.7462 9.28929 20.7462 9.64286C20.7462 9.99643 20.4587 10.2857 20.1073 10.2857H14.9962C14.6448 10.2857 14.3573 9.99643 14.3573 9.64286ZM14.3573 12.2143C14.3573 11.8607 14.6448 11.5714 14.9962 11.5714H20.1073C20.4587 11.5714 20.7462 11.8607 20.7462 12.2143C20.7462 12.5679 20.4587 12.8571 20.1073 12.8571H14.9962C14.6448 12.8571 14.3573 12.5679 14.3573 12.2143Z" fill="#FF931E"/>
</svg>
