<svg width="22" height="18" viewBox="0 0 22 18" fill="none" xmlns="http://www.w3.org/2000/svg">
<path d="M4.30176 15.75V16.875C4.30176 17.1938 4.19015 17.4608 3.96692 17.676C3.74292 17.892 3.46565 18 3.13509 18H1.96842C1.63787 18 1.36098 17.892 1.13776 17.676C0.913758 17.4608 0.801758 17.1938 0.801758 16.875V7.875L3.25176 1.125C3.36842 0.7875 3.57765 0.515625 3.87942 0.309375C4.18042 0.103125 4.51565 0 4.88509 0H17.7184C18.0879 0 18.4235 0.103125 18.7253 0.309375C19.0263 0.515625 19.2351 0.7875 19.3518 1.125L21.8018 7.875V16.875C21.8018 17.1938 21.6898 17.4608 21.4658 17.676C21.2425 17.892 20.9656 18 20.6351 18H19.4684C19.1379 18 18.861 17.892 18.6378 17.676C18.4138 17.4608 18.3018 17.1938 18.3018 16.875V15.75H4.30176ZM4.06842 5.625H18.5351L17.3101 2.25H5.29342L4.06842 5.625ZM6.05176 12.375C6.53787 12.375 6.95087 12.2108 7.29076 11.8822C7.63142 11.5545 7.80176 11.1562 7.80176 10.6875C7.80176 10.2188 7.63142 9.8205 7.29076 9.49275C6.95087 9.16425 6.53787 9 6.05176 9C5.56565 9 5.15265 9.16425 4.81276 9.49275C4.47209 9.8205 4.30176 10.2188 4.30176 10.6875C4.30176 11.1562 4.47209 11.5545 4.81276 11.8822C5.15265 12.2108 5.56565 12.375 6.05176 12.375ZM16.5518 12.375C17.0379 12.375 17.4509 12.2108 17.7908 11.8822C18.1314 11.5545 18.3018 11.1562 18.3018 10.6875C18.3018 10.2188 18.1314 9.8205 17.7908 9.49275C17.4509 9.16425 17.0379 9 16.5518 9C16.0656 9 15.6526 9.16425 15.3128 9.49275C14.9721 9.8205 14.8018 10.2188 14.8018 10.6875C14.8018 11.1562 14.9721 11.5545 15.3128 11.8822C15.6526 12.2108 16.0656 12.375 16.5518 12.375Z" fill="#FF931E"/>
</svg>
