<svg width="24" height="24" viewBox="0 0 24 24" fill="none" xmlns="http://www.w3.org/2000/svg">
<path d="M10.75 9.5V15.25C10.75 15.9361 11.3139 16.5 12 16.5C12.6861 16.5 13.25 15.9361 13.25 15.25V9.5H16.8C18.2946 9.5 19.4577 9.96497 20.245 10.7533C21.0321 11.5415 21.4947 12.7043 21.49 14.1984V14.2V16.8C21.49 18.2946 21.0251 19.4578 20.2364 20.2464C19.4478 21.0351 18.2846 21.5 16.79 21.5H7.2C5.70546 21.5 4.54235 21.0351 3.7538 20.2454C2.96518 19.4557 2.5 18.29 2.5 16.79V14.2C2.5 12.7054 2.96492 11.5422 3.75355 10.7536C4.54218 9.96492 5.70545 9.5 7.2 9.5H10.75Z" fill="#FF931E" stroke="#FF931E"/>
<path d="M12.7498 4.55994L14.8198 6.62994C14.9698 6.77994 15.1598 6.84994 15.3498 6.84994C15.5398 6.84994 15.7298 6.77994 15.8798 6.62994C16.1698 6.33994 16.1698 5.85994 15.8798 5.56994L12.5298 2.21994C12.2398 1.92994 11.7598 1.92994 11.4698 2.21994L8.11984 5.56994C7.82984 5.85994 7.82984 6.33994 8.11984 6.62994C8.40984 6.91994 8.88984 6.91994 9.17984 6.62994L11.2498 4.55994V8.99994H12.7498V4.55994Z" fill="#FF931E"/>
</svg>
